<svg xmlns="http://www.w3.org/2000/svg" width="65.245" height="419.735" viewBox="0 0 65.245 419.735"><g transform="translate(-2582.002 113.024) rotate(-90)"><g transform="translate(-306.711 2582.002)"><path d="M483.006-2191.34h-.018a3.046,3.046,0,0,0-3.008-2.588,3.048,3.048,0,0,0-3.01,2.588h-.08a3.044,3.044,0,0,0-3.008-2.588,3.044,3.044,0,0,0-3.008,2.588h-.057a3.046,3.046,0,0,0-3.008-2.588,3.048,3.048,0,0,0-3.01,2.588h-.08a3.044,3.044,0,0,0-3.008-2.588,3.045,3.045,0,0,0-3.01,2.588h-.077a3.044,3.044,0,0,0-3.008-2.588,3.048,3.048,0,0,0-3.01,2.588h-.079a3.044,3.044,0,0,0-3.008-2.588,3.042,3.042,0,0,0-3.008,2.588h-.018a3.046,3.046,0,0,0-3.008-2.588,3.048,3.048,0,0,0-3.01,2.588H440.4a3.044,3.044,0,0,0-3.008-2.588,3.044,3.044,0,0,0-3.008,2.588h-.057a3.046,3.046,0,0,0-3.008-2.588,3.046,3.046,0,0,0-3.01,2.588h-.079a3.046,3.046,0,0,0-3.01-2.588,3.044,3.044,0,0,0-3.008,2.588h-.091a3.044,3.044,0,0,0-3.008-2.588,3.048,3.048,0,0,0-3.01,2.588h-.079a3.044,3.044,0,0,0-3.008-2.588A3.042,3.042,0,0,0,410-2191.34h-.018a3.046,3.046,0,0,0-3.008-2.588,3.048,3.048,0,0,0-3.01,2.588h-.079a3.044,3.044,0,0,0-3.008-2.588,3.042,3.042,0,0,0-3.008,2.588h-.06a3.042,3.042,0,0,0-3.006-2.588,3.046,3.046,0,0,0-3.01,2.588h-.079a3.046,3.046,0,0,0-3.01-2.588,3.044,3.044,0,0,0-3.008,2.588h-.077a3.044,3.044,0,0,0-3.008-2.588,3.045,3.045,0,0,0-3.01,2.588h-.079a3.046,3.046,0,0,0-3.01-2.588,3.046,3.046,0,0,0-3.008,2.588h-.015a3.046,3.046,0,0,0-3.008-2.588,3.048,3.048,0,0,0-3.01,2.588h-.079a3.046,3.046,0,0,0-3.01-2.588,3.042,3.042,0,0,0-3.006,2.588h-.06a3.042,3.042,0,0,0-3.008-2.588,3.044,3.044,0,0,0-3.008,2.588h-.077a3.044,3.044,0,0,0-3.008-2.588,3.046,3.046,0,0,0-3.01,2.588h-.079a3.046,3.046,0,0,0-3.01-2.588,3.046,3.046,0,0,0-3.008,2.588h-.015a3.046,3.046,0,0,0-3.008-2.588,3.048,3.048,0,0,0-3.01,2.588h-.079a3.044,3.044,0,0,0-3.008-2.588,3.042,3.042,0,0,0-3.008,2.588h-.06a3.042,3.042,0,0,0-3.008-2.588,3.044,3.044,0,0,0-3.008,2.588h-.08a3.046,3.046,0,0,0-3.01-2.588,3.044,3.044,0,0,0-3.008,2.588h-.091a3.044,3.044,0,0,0-3.008-2.588,3.046,3.046,0,0,0-3.01,2.588h-.079a3.046,3.046,0,0,0-3.01-2.588,3.046,3.046,0,0,0-3.008,2.588h-.016a3.046,3.046,0,0,0-3.008-2.588,3.046,3.046,0,0,0-3.01,2.588h-.079a3.044,3.044,0,0,0-3.008-2.588,3.042,3.042,0,0,0-3.008,2.588h-.06a3.042,3.042,0,0,0-3.008-2.588,3.044,3.044,0,0,0-3.008,2.588h-.08a3.048,3.048,0,0,0-3.01-2.588,3.044,3.044,0,0,0-3.008,2.588h-.077a3.046,3.046,0,0,0-3.01-2.588,3.044,3.044,0,0,0-3.008,2.588h-.08a3.046,3.046,0,0,0-3.009-2.588,3.045,3.045,0,0,0-3.008,2.588h-.017a3.045,3.045,0,0,0-3.008-2.588,3.046,3.046,0,0,0-3.009,2.588h-.08a3.046,3.046,0,0,0-3.009-2.588,3.044,3.044,0,0,0-3.008,2.588h-.058a3.044,3.044,0,0,0-3.008-2.588,3.046,3.046,0,0,0-3.009,2.588h-.08a3.046,3.046,0,0,0-3.009-2.588,3.046,3.046,0,0,0-3.009,2.588h-.089a3.046,3.046,0,0,0-3.009-2.588,3.046,3.046,0,0,0-3.009,2.588h-.08a3.046,3.046,0,0,0-3.009-2.588,3.045,3.045,0,0,0-3.008,2.588h-.017a3.045,3.045,0,0,0-3.008-2.588,3.046,3.046,0,0,0-3.009,2.588h-.08a3.046,3.046,0,0,0-3.009-2.588,3.044,3.044,0,0,0-3.008,2.588h-.058a3.044,3.044,0,0,0-3.008-2.588,3.046,3.046,0,0,0-3.009,2.588h-.08a3.046,3.046,0,0,0-3.009-2.588,3.046,3.046,0,0,0-3.009,2.588h-.077a3.046,3.046,0,0,0-3.009-2.588,3.046,3.046,0,0,0-3.009,2.588h-.08a3.046,3.046,0,0,0-3.009-2.588,3.045,3.045,0,0,0-3.008,2.588h-.017a3.045,3.045,0,0,0-3.008-2.588,3.046,3.046,0,0,0-3.009,2.588h-.079a3.046,3.046,0,0,0-3.009-2.588,3.044,3.044,0,0,0-3.008,2.588h-.058a3.044,3.044,0,0,0-3.008-2.588,3.046,3.046,0,0,0-3.009,2.588h-.08a3.046,3.046,0,0,0-3.009-2.588,3.046,3.046,0,0,0-3.009,2.588h-.089a3.046,3.046,0,0,0-3.009-2.588,3.046,3.046,0,0,0-3.009,2.588h-.08a3.046,3.046,0,0,0-3.009-2.588,3.045,3.045,0,0,0-3.008,2.588h-.017a3.045,3.045,0,0,0-3.008-2.588,3.046,3.046,0,0,0-3.009,2.588h-.079a3.046,3.046,0,0,0-3.009-2.588,3.044,3.044,0,0,0-3.008,2.588H148.4a3.044,3.044,0,0,0-3.008-2.588,3.046,3.046,0,0,0-3.009,2.588h-.08a3.046,3.046,0,0,0-3.009-2.588,3.046,3.046,0,0,0-3.009,2.588h-.076a3.046,3.046,0,0,0-3.009-2.588,3.046,3.046,0,0,0-3.009,2.588h-.08a3.046,3.046,0,0,0-3.009-2.588,3.045,3.045,0,0,0-3.008,2.588h-.017a3.045,3.045,0,0,0-3.008-2.588,3.046,3.046,0,0,0-3.009,2.588h-.08a3.046,3.046,0,0,0-3.009-2.588,3.044,3.044,0,0,0-3.008,2.588h-.058a3.044,3.044,0,0,0-3.008-2.588,3.046,3.046,0,0,0-3.009,2.588h-.08a3.046,3.046,0,0,0-3.009-2.588,3.046,3.046,0,0,0-3.009,2.588H99.7a3.046,3.046,0,0,0-3.009-2.588,3.046,3.046,0,0,0-3.009,2.588H93.6a3.046,3.046,0,0,0-3.009-2.588,3.045,3.045,0,0,0-3.008,2.588h-.017a3.045,3.045,0,0,0-3.008-2.588,3.046,3.046,0,0,0-3.009,2.588h-.08a3.046,3.046,0,0,0-3.009-2.588,3.044,3.044,0,0,0-3.008,2.588H75.4a3.044,3.044,0,0,0-3.008-2.588,3.046,3.046,0,0,0-3.009,2.588H69.3a3.046,3.046,0,0,0-3.009-2.588v3.507H486.025v-3.5l-.011,0a3.044,3.044,0,0,0-3.008,2.588" transform="translate(-66.29 2255.666)" fill="#3c2415"/><path d="M66.289-2241.6v3.047a3.045,3.045,0,0,0,3.011-2.6h.076a3.045,3.045,0,0,0,3.011,2.6,3.043,3.043,0,0,0,3.009-2.6h.055a3.043,3.043,0,0,0,3.009,2.6,3.045,3.045,0,0,0,3.011-2.6h.076a3.045,3.045,0,0,0,3.011,2.6,3.044,3.044,0,0,0,3.01-2.6h.013a3.044,3.044,0,0,0,3.01,2.6,3.045,3.045,0,0,0,3.011-2.6h.076a3.045,3.045,0,0,0,3.011,2.6,3.045,3.045,0,0,0,3.011-2.6h.086a3.045,3.045,0,0,0,3.011,2.6,3.045,3.045,0,0,0,3.011-2.6h.076a3.045,3.045,0,0,0,3.011,2.6,3.043,3.043,0,0,0,3.009-2.6h.056a3.043,3.043,0,0,0,3.009,2.6,3.045,3.045,0,0,0,3.011-2.6h.076a3.045,3.045,0,0,0,3.011,2.6,3.044,3.044,0,0,0,3.01-2.6h.013a3.044,3.044,0,0,0,3.01,2.6,3.045,3.045,0,0,0,3.011-2.6h.076a3.045,3.045,0,0,0,3.011,2.6,3.045,3.045,0,0,0,3.011-2.6h.073a3.045,3.045,0,0,0,3.011,2.6,3.045,3.045,0,0,0,3.011-2.6h.076a3.045,3.045,0,0,0,3.011,2.6,3.043,3.043,0,0,0,3.009-2.6h.055a3.043,3.043,0,0,0,3.009,2.6,3.045,3.045,0,0,0,3.011-2.6h.076a3.044,3.044,0,0,0,3.011,2.6,3.044,3.044,0,0,0,3.01-2.6h.013a3.044,3.044,0,0,0,3.01,2.6,3.045,3.045,0,0,0,3.011-2.6h.076a3.045,3.045,0,0,0,3.011,2.6,3.044,3.044,0,0,0,3.011-2.6h.086a3.045,3.045,0,0,0,3.011,2.6,3.045,3.045,0,0,0,3.011-2.6h.076a3.045,3.045,0,0,0,3.011,2.6,3.043,3.043,0,0,0,3.009-2.6h.055a3.043,3.043,0,0,0,3.009,2.6,3.045,3.045,0,0,0,3.011-2.6h.076a3.045,3.045,0,0,0,3.011,2.6,3.044,3.044,0,0,0,3.01-2.6h.013a3.044,3.044,0,0,0,3.01,2.6,3.045,3.045,0,0,0,3.011-2.6h.076a3.045,3.045,0,0,0,3.011,2.6,3.045,3.045,0,0,0,3.011-2.6h.073a3.045,3.045,0,0,0,3.011,2.6,3.045,3.045,0,0,0,3.011-2.6h.076a3.045,3.045,0,0,0,3.011,2.6,3.043,3.043,0,0,0,3.009-2.6h.055a3.043,3.043,0,0,0,3.009,2.6,3.045,3.045,0,0,0,3.011-2.6h.076a3.045,3.045,0,0,0,3.011,2.6,3.044,3.044,0,0,0,3.01-2.6h.013a3.044,3.044,0,0,0,3.01,2.6,3.045,3.045,0,0,0,3.011-2.6h.076a3.045,3.045,0,0,0,3.011,2.6,3.045,3.045,0,0,0,3.011-2.6h.086a3.045,3.045,0,0,0,3.011,2.6,3.045,3.045,0,0,0,3.011-2.6h.076a3.045,3.045,0,0,0,3.011,2.6,3.043,3.043,0,0,0,3.009-2.6h.055a3.043,3.043,0,0,0,3.009,2.6,3.045,3.045,0,0,0,3.011-2.6h.076a3.045,3.045,0,0,0,3.011,2.6,3.044,3.044,0,0,0,3.01-2.6h.013a3.044,3.044,0,0,0,3.01,2.6,3.045,3.045,0,0,0,3.011-2.6h.076a3.047,3.047,0,0,0,3.01,2.6,3.047,3.047,0,0,0,3.012-2.6h.073a3.043,3.043,0,0,0,3.01,2.6,3.047,3.047,0,0,0,3.012-2.6h.075a3.045,3.045,0,0,0,3.01,2.6,3.043,3.043,0,0,0,3.01-2.6h.055a3.043,3.043,0,0,0,3.01,2.6,3.045,3.045,0,0,0,3.01-2.6h.075a3.047,3.047,0,0,0,3.012,2.6,3.045,3.045,0,0,0,3.01-2.6h.013a3.041,3.041,0,0,0,3.008,2.6,3.047,3.047,0,0,0,3.012-2.6h.075a3.047,3.047,0,0,0,3.012,2.6,3.043,3.043,0,0,0,3.01-2.6h.086a3.043,3.043,0,0,0,3.01,2.6,3.047,3.047,0,0,0,3.012-2.6h.075a3.043,3.043,0,0,0,3.01,2.6,3.043,3.043,0,0,0,3.01-2.6h.055a3.043,3.043,0,0,0,3.01,2.6,3.047,3.047,0,0,0,3.01-2.6h.075a3.047,3.047,0,0,0,3.012,2.6,3.045,3.045,0,0,0,3.01-2.6h.013a3.043,3.043,0,0,0,3.008,2.6,3.047,3.047,0,0,0,3.012-2.6h.075a3.047,3.047,0,0,0,3.012,2.6,3.045,3.045,0,0,0,3.01-2.6h.073a3.045,3.045,0,0,0,3.01,2.6,3.043,3.043,0,0,0,3.01-2.6h.055a3.043,3.043,0,0,0,3.008,2.6,3.047,3.047,0,0,0,3.012-2.6h.075a3.047,3.047,0,0,0,3.012,2.6,3.045,3.045,0,0,0,3.01-2.6h.011a3.045,3.045,0,0,0,3.01,2.6,3.047,3.047,0,0,0,3.012-2.6h.075a3.047,3.047,0,0,0,3.012,2.6,3.043,3.043,0,0,0,3.01-2.6h.073a3.043,3.043,0,0,0,3.01,2.6,3.047,3.047,0,0,0,3.012-2.6h.075a3.047,3.047,0,0,0,3.012,2.6,3.043,3.043,0,0,0,3.008-2.6h.055a3.045,3.045,0,0,0,3.01,2.6,3.043,3.043,0,0,0,3.01-2.6h.077a3.043,3.043,0,0,0,3.01,2.6,3.045,3.045,0,0,0,3.01-2.6H410a3.043,3.043,0,0,0,3.01,2.6,3.047,3.047,0,0,0,3.01-2.6h.075a3.047,3.047,0,0,0,3.012,2.6,3.043,3.043,0,0,0,3.01-2.6h.086a3.043,3.043,0,0,0,3.01,2.6,3.047,3.047,0,0,0,3.012-2.6h.075a3.047,3.047,0,0,0,3.012,2.6,3.041,3.041,0,0,0,3.008-2.6h.055a3.043,3.043,0,0,0,3.01,2.6,3.043,3.043,0,0,0,3.01-2.6h.077a3.043,3.043,0,0,0,3.01,2.6,3.045,3.045,0,0,0,3.01-2.6h.013a3.043,3.043,0,0,0,3.01,2.6,3.047,3.047,0,0,0,3.01-2.6h.075a3.047,3.047,0,0,0,3.012,2.6,3.043,3.043,0,0,0,3.01-2.6h.073a3.047,3.047,0,0,0,3.012,2.6,3.047,3.047,0,0,0,3.01-2.6h.075a3.047,3.047,0,0,0,3.012,2.6,3.041,3.041,0,0,0,3.008-2.6h.055a3.045,3.045,0,0,0,3.01,2.6,3.043,3.043,0,0,0,3.01-2.6h.077a3.043,3.043,0,0,0,3.01,2.6,3.043,3.043,0,0,0,3.01-2.6H483a3.043,3.043,0,0,0,3.01,2.6h.011v-3.518H66.289v.471" transform="translate(-66.289 2295.838)" fill="#3c2415"/><path d="M70.936-2522.595a2.39,2.39,0,0,1-1.134-2.156c.227-1.137,1.906-1.842,4.02-1.842a10.357,10.357,0,0,1,1.679.144,34.051,34.051,0,0,0-1.084,5.455A8.613,8.613,0,0,1,70.936-2522.595Zm3.3,3.779c-1.63.018-3,.572-3.456,1.329H69.12c.436-1.248,2.6-2.241,5.18-2.323C74.273-2519.481,74.249-2519.15,74.232-2518.816ZM71.987-2532a2.392,2.392,0,0,1,2.137-1.169,5.9,5.9,0,0,1,.631-.033,9.2,9.2,0,0,1,3.159.623c-.155.3-.3.612-.451.921-1.8-.755-3.558-.643-3.969.276-.42.939.722,2.363,2.554,3.2-.086.25-.169.5-.249.753-2.634-1.179-4.362-3.224-3.811-4.57Zm3.693-6.944a2.391,2.391,0,0,1,2.326-.725,8.624,8.624,0,0,1,3.605,1.338,34.535,34.535,0,0,0-3.094,4.625C76.164-2535.38,74.871-2537.73,75.679-2538.94Zm4.668-3.578a2.391,2.391,0,0,1,.253-2.423,1.722,1.722,0,0,1,1.26-.446,4.056,4.056,0,0,1,1.162.192,8.621,8.621,0,0,1,3.275,2.018c-.27.23-.536.462-.8.7-1.412-1.42-3.133-1.994-3.866-1.281s-.193,2.489,1.226,3.946c-.166.188-.331.376-.493.568A8.614,8.614,0,0,1,80.348-2542.518Zm6.253-7.346a1.525,1.525,0,0,1,.861-.241c1.274,0,3.039,1.2,4.378,3.079a34.464,34.464,0,0,0-4.623,3.094,8.61,8.61,0,0,1-1.338-3.6A2.394,2.394,0,0,1,86.6-2549.863Zm6.669-3.578a1.4,1.4,0,0,1,.543-.106,2.991,2.991,0,0,1,1.795.791,8.592,8.592,0,0,1,2.258,3.094c-.29.093-.578.192-.864.294-.793-1.853-2.194-3.03-3.143-2.63s-1.087,2.222-.316,4.083c-.271.133-.539.267-.806.406C91.705-2550.208,91.928-2552.88,93.27-2553.441Zm15.244,3a33.447,33.447,0,0,1,33.4,32.951h-.8a32.643,32.643,0,0,0-32.6-32.147,32.643,32.643,0,0,0-32.6,32.147h-.8a33.447,33.447,0,0,1,33.4-32.951Zm-7.723-5.3a2.4,2.4,0,0,1,2.156,1.133,8.6,8.6,0,0,1,1.6,3.48,33.97,33.97,0,0,0-5.457,1.087C98.619-2552.887,99.367-2555.457,100.792-2555.74Zm7.723-.764c1.454,0,2.691,2.376,2.783,5.261-.337-.026-.674-.051-1.014-.068h.108c0-2.034-.841-3.686-1.877-3.686s-1.877,1.652-1.877,3.686h.108c-.339.018-.677.042-1.014.068C105.824-2554.128,107.061-2556.5,108.515-2556.5Zm5.567,1.9a2.655,2.655,0,0,1,1.894-1.16,1.3,1.3,0,0,1,.261.026c1.425.283,2.173,2.854,1.7,5.7a33.968,33.968,0,0,0-5.457-1.087A8.6,8.6,0,0,1,114.082-2554.607Zm8.864.949a1.415,1.415,0,0,1,.537.1,2.4,2.4,0,0,1,1.169,2.138,8.605,8.605,0,0,1-.593,3.788c-.264-.133-.531-.265-.8-.393.761-1.855.62-3.666-.325-4.064s-2.352.78-3.144,2.637c-.29-.1-.582-.2-.876-.294C119.948-2552.047,121.638-2553.657,122.947-2553.657Zm6.621,3.553a1.525,1.525,0,0,1,.861.241,2.4,2.4,0,0,1,.722,2.328,8.61,8.61,0,0,1-1.338,3.6,34.469,34.469,0,0,0-4.623-3.094C126.528-2548.9,128.293-2550.1,129.568-2550.1Zm4.438,4.91a4.057,4.057,0,0,1,1.162-.192,1.723,1.723,0,0,1,1.26.446,2.391,2.391,0,0,1,.253,2.423,8.614,8.614,0,0,1-2.019,3.275c-.187-.221-.377-.437-.57-.654,1.419-1.458,1.968-3.225,1.226-3.947s-2.463-.139-3.877,1.29c-.234-.212-.472-.417-.712-.623A8.622,8.622,0,0,1,134.006-2545.194Zm2.273-3.344a.458.458,0,0,0,.122-.309,14.1,14.1,0,0,1,8.068-12.608,11.62,11.62,0,0,0,3.3-2.253l1.436-1.436a1.384,1.384,0,0,1,.988-.41,1.385,1.385,0,0,1,.989.41l1.094,1.093a10.32,10.32,0,0,0,3.413,2.3,13.974,13.974,0,0,1,8.747,12.9.457.457,0,0,0,.123.309,19.348,19.348,0,0,1,1.824,2.3c-.13-.022-.258-.037-.382-.046a.643.643,0,0,0-.562-.335.645.645,0,0,0-.311.084.642.642,0,0,0,.175-.439.646.646,0,0,0-.646-.645.64.64,0,0,0-.405.146l0,0a.647.647,0,0,0,.26-.515.643.643,0,0,0-.468-.618.637.637,0,0,0,.138-.393.644.644,0,0,0-.509-.632.642.642,0,0,0,.445-.609.645.645,0,0,0-.6-.643.641.641,0,0,0,.351-.572.643.643,0,0,0-.629-.643.647.647,0,0,0,.385-.59.646.646,0,0,0-.646-.647.614.614,0,0,0-.221.042.645.645,0,0,0,.379-.588.645.645,0,0,0-.646-.645.639.639,0,0,0-.282.066h0a.64.64,0,0,0,.316-.552.644.644,0,0,0-.646-.645.687.687,0,0,0-.193.031.643.643,0,0,0,.284-.535.645.645,0,0,0-.646-.645.643.643,0,0,0-.416.154.644.644,0,0,0,.181-.446.646.646,0,0,0-.646-.647.643.643,0,0,0-.342.1.64.64,0,0,0,.155-.415.646.646,0,0,0-.646-.645.641.641,0,0,0-.411.15.636.636,0,0,0,.081-.307.646.646,0,0,0-.646-.645.631.631,0,0,0-.411.152.651.651,0,0,0,.066-.282.646.646,0,0,0-.646-.645.641.641,0,0,0-.514.258.636.636,0,0,0,.055-.258.646.646,0,0,0-.646-.645.642.642,0,0,0-.523.27.648.648,0,0,0,.021-.155.646.646,0,0,0-.646-.647.641.641,0,0,0-.57.349s0,0,0,0a.642.642,0,0,0,.056-.261.646.646,0,0,0-.646-.645.64.64,0,0,0-.514.258.648.648,0,0,0,.055-.258.646.646,0,0,0-.646-.647.641.641,0,0,0-.436.172.644.644,0,0,0,.12-.373.645.645,0,0,0-.646-.645.643.643,0,0,0-.42.159.641.641,0,0,0,.133-.389.644.644,0,0,0-.646-.645.637.637,0,0,0-.409.15.653.653,0,0,0,.05-.252.646.646,0,0,0-.646-.645.646.646,0,0,0-.646.645c0,.02,0,.037.006.057a.622.622,0,0,0-.273-.057.646.646,0,0,0-.633.658.648.648,0,0,0,.14.387.636.636,0,0,0-.423-.15.645.645,0,0,0-.633.658.635.635,0,0,0,.127.368.647.647,0,0,0-.439-.163.646.646,0,0,0-.633.658.649.649,0,0,0,.06.259.647.647,0,0,0-.519-.25.646.646,0,0,0-.633.658.647.647,0,0,0,.091.313h0a.649.649,0,0,0-.6-.389.647.647,0,0,0-.633.658.653.653,0,0,0,.024.155.643.643,0,0,0-.528-.261.646.646,0,0,0-.633.658.645.645,0,0,0,.06.259.647.647,0,0,0-.519-.25.648.648,0,0,0-.633.66.64.64,0,0,0,.072.278.649.649,0,0,0-.414-.144.645.645,0,0,0-.633.658.636.636,0,0,0,.087.3.647.647,0,0,0-.414-.144.646.646,0,0,0-.633.658.641.641,0,0,0,.163.413.649.649,0,0,0-.344-.093.645.645,0,0,0-.633.658.648.648,0,0,0,.19.444.624.624,0,0,0-.419-.148.645.645,0,0,0-.633.658.645.645,0,0,0,.294.53.631.631,0,0,0-.194-.031.648.648,0,0,0-.633.66.643.643,0,0,0,.311.537.64.64,0,0,0-.268-.053.646.646,0,0,0-.633.658.651.651,0,0,0,.39.581.617.617,0,0,0-.222-.038.645.645,0,0,0-.633.658.643.643,0,0,0,.4.581.647.647,0,0,0-.617.658.643.643,0,0,0,.362.563.643.643,0,0,0-.589.654.643.643,0,0,0,.457.6.646.646,0,0,0-.5.64.632.632,0,0,0,.145.391.645.645,0,0,0-.456.627.64.64,0,0,0,.186.439l-.013.015a.637.637,0,0,0-.316-.079.648.648,0,0,0-.633.66.627.627,0,0,0,.163.4l-.013.018a.628.628,0,0,0-.28-.064.637.637,0,0,0-.39.143,4.858,4.858,0,0,0-.571.055,18.965,18.965,0,0,1,1.8-2.292Zm33.833,5.369c-.269.23-.536.461-.8.7-1.412-1.42-3.133-1.994-3.866-1.281s-.193,2.491,1.226,3.946c-.167.188-.331.378-.493.568a8.607,8.607,0,0,1-2.019-3.275,2.391,2.391,0,0,1,.253-2.422,1.723,1.723,0,0,1,1.261-.446,4.071,4.071,0,0,1,1.162.192A8.621,8.621,0,0,1,170.112-2543.169Zm.3-6.687a1.525,1.525,0,0,1,.861-.241c1.275,0,3.039,1.2,4.378,3.079a34.418,34.418,0,0,0-4.623,3.094,8.609,8.609,0,0,1-1.338-3.6A2.4,2.4,0,0,1,170.414-2549.857Zm6.669-3.578a1.4,1.4,0,0,1,.544-.106,2.993,2.993,0,0,1,1.795.791,8.612,8.612,0,0,1,2.258,3.094q-.435.142-.864.293c-.793-1.853-2.194-3.03-3.143-2.63s-1.087,2.222-.317,4.083c-.271.132-.539.27-.806.406C175.518-2550.2,175.741-2552.873,177.083-2553.434Zm15.245,3a33.445,33.445,0,0,1,33.4,32.944h-.8a32.64,32.64,0,0,0-32.6-32.14,32.643,32.643,0,0,0-32.6,32.14h-.8A33.448,33.448,0,0,1,192.328-2550.431Zm-7.723-5.3a2.391,2.391,0,0,1,2.156,1.135,8.593,8.593,0,0,1,1.6,3.481,33.772,33.772,0,0,0-5.457,1.084c-.472-2.847.275-5.415,1.7-5.7Zm7.723-.764c1.454,0,2.691,2.376,2.783,5.26q-.506-.04-1.014-.066h.108c0-2.036-.84-3.688-1.877-3.688s-1.877,1.652-1.877,3.688h.107q-.508.026-1.013.066C189.637-2554.121,190.873-2556.5,192.328-2556.5Zm5.567,1.9a2.652,2.652,0,0,1,1.894-1.161,1.3,1.3,0,0,1,.261.026c1.425.285,2.173,2.853,1.7,5.7a33.988,33.988,0,0,0-5.457-1.084A8.593,8.593,0,0,1,197.895-2554.6Zm8.864.948a1.42,1.42,0,0,1,.538.1,2.4,2.4,0,0,1,1.169,2.138,8.611,8.611,0,0,1-.593,3.79c-.264-.135-.531-.267-.8-.4.761-1.855.62-3.666-.325-4.064s-2.352.78-3.144,2.637c-.29-.1-.582-.2-.876-.294C203.76-2552.039,205.451-2553.651,206.759-2553.651Zm6.621,3.553a1.525,1.525,0,0,1,.861.241,2.4,2.4,0,0,1,.722,2.328,8.612,8.612,0,0,1-1.339,3.606,34.484,34.484,0,0,0-4.623-3.094c1.339-1.877,3.1-3.081,4.379-3.081Zm4.438,4.909a4.073,4.073,0,0,1,1.162-.192,1.724,1.724,0,0,1,1.26.446,2.39,2.39,0,0,1,.253,2.423,8.628,8.628,0,0,1-2.021,3.278c-.187-.221-.377-.437-.57-.654,1.421-1.458,1.97-3.224,1.228-3.949s-2.464-.139-3.878,1.29q-.352-.315-.713-.62a8.609,8.609,0,0,1,3.277-2.021Zm2.244-3.35a.459.459,0,0,0,.122-.309,14.1,14.1,0,0,1,8.068-12.608,11.611,11.611,0,0,0,3.3-2.253l1.436-1.436a1.384,1.384,0,0,1,.988-.411,1.384,1.384,0,0,1,.989.411l1.094,1.093a10.318,10.318,0,0,0,3.413,2.3,13.974,13.974,0,0,1,8.747,12.9.458.458,0,0,0,.122.309,19.3,19.3,0,0,1,1.824,2.3c-.13-.022-.257-.037-.382-.046a.643.643,0,0,0-.562-.335.645.645,0,0,0-.311.084.641.641,0,0,0,.175-.439.646.646,0,0,0-.646-.645.639.639,0,0,0-.405.146l0,0a.646.646,0,0,0,.259-.515.643.643,0,0,0-.468-.618.636.636,0,0,0,.138-.393.644.644,0,0,0-.51-.632.642.642,0,0,0,.445-.609.645.645,0,0,0-.6-.643.641.641,0,0,0,.351-.572.643.643,0,0,0-.629-.643.647.647,0,0,0,.385-.59.646.646,0,0,0-.646-.647.614.614,0,0,0-.221.042.644.644,0,0,0,.379-.587.646.646,0,0,0-.646-.645.639.639,0,0,0-.282.066h0a.641.641,0,0,0,.316-.552.644.644,0,0,0-.646-.645.69.69,0,0,0-.193.031.642.642,0,0,0,.284-.535.646.646,0,0,0-.646-.645.642.642,0,0,0-.416.155.645.645,0,0,0,.181-.446.646.646,0,0,0-.646-.647.643.643,0,0,0-.342.1.641.641,0,0,0,.155-.416.646.646,0,0,0-.646-.645.64.64,0,0,0-.411.15.636.636,0,0,0,.081-.307.646.646,0,0,0-.646-.645.631.631,0,0,0-.411.152.647.647,0,0,0,.067-.282.646.646,0,0,0-.646-.645.641.641,0,0,0-.514.259.642.642,0,0,0,.055-.259.646.646,0,0,0-.646-.645.641.641,0,0,0-.523.269.658.658,0,0,0,.021-.155.646.646,0,0,0-.646-.647.641.641,0,0,0-.57.349s0,0,0,0a.645.645,0,0,0,.055-.26.646.646,0,0,0-.646-.645.642.642,0,0,0-.514.258.649.649,0,0,0,.055-.258.646.646,0,0,0-.646-.647.641.641,0,0,0-.435.172.644.644,0,0,0,.12-.373.646.646,0,0,0-.646-.645.642.642,0,0,0-.42.159.642.642,0,0,0,.133-.389.644.644,0,0,0-.646-.645.637.637,0,0,0-.409.15.655.655,0,0,0,.051-.252.646.646,0,0,0-.646-.645.646.646,0,0,0-.646.645c0,.02,0,.037.006.057a.63.63,0,0,0-.273-.057.646.646,0,0,0-.633.658.648.648,0,0,0,.14.387.636.636,0,0,0-.423-.15.645.645,0,0,0-.633.658.636.636,0,0,0,.127.368.647.647,0,0,0-.439-.163.646.646,0,0,0-.633.658.649.649,0,0,0,.06.258.646.646,0,0,0-.519-.25.646.646,0,0,0-.633.658.647.647,0,0,0,.09.313h0a.649.649,0,0,0-.6-.389.646.646,0,0,0-.633.658.665.665,0,0,0,.024.155.642.642,0,0,0-.528-.26.646.646,0,0,0-.633.658.646.646,0,0,0,.06.259.646.646,0,0,0-.519-.25.648.648,0,0,0-.633.66.636.636,0,0,0,.072.278.649.649,0,0,0-.414-.144.645.645,0,0,0-.633.658.635.635,0,0,0,.087.3.648.648,0,0,0-.414-.144.646.646,0,0,0-.633.658.642.642,0,0,0,.163.413.65.65,0,0,0-.344-.093.645.645,0,0,0-.633.658.646.646,0,0,0,.19.444.625.625,0,0,0-.419-.148.645.645,0,0,0-.633.658.645.645,0,0,0,.294.53.632.632,0,0,0-.194-.031.648.648,0,0,0-.633.66.642.642,0,0,0,.311.537.641.641,0,0,0-.268-.053.646.646,0,0,0-.633.658.65.65,0,0,0,.39.581.617.617,0,0,0-.222-.038.645.645,0,0,0-.633.658.644.644,0,0,0,.4.581.647.647,0,0,0-.617.658.642.642,0,0,0,.362.563.644.644,0,0,0-.59.654.643.643,0,0,0,.456.6.646.646,0,0,0-.5.64.633.633,0,0,0,.145.391.645.645,0,0,0-.456.627.641.641,0,0,0,.186.439l-.013.015a.638.638,0,0,0-.316-.079.648.648,0,0,0-.633.66.624.624,0,0,0,.163.4l-.013.018a.631.631,0,0,0-.28-.064.633.633,0,0,0-.4.15,4.448,4.448,0,0,0-.572.064,18.874,18.874,0,0,1,1.813-2.308Zm33.833,5.369c-.27.23-.536.462-.8.7-1.412-1.42-3.133-1.994-3.866-1.281s-.193,2.491,1.226,3.946c-.166.188-.331.378-.493.568a8.606,8.606,0,0,1-2.019-3.275,2.39,2.39,0,0,1,.253-2.423,1.723,1.723,0,0,1,1.26-.446,4.072,4.072,0,0,1,1.162.192A8.626,8.626,0,0,1,253.9-2543.169Zm.3-6.687a1.525,1.525,0,0,1,.861-.241c1.274,0,3.039,1.2,4.378,3.079a34.416,34.416,0,0,0-4.623,3.094,8.6,8.6,0,0,1-1.338-3.6A2.4,2.4,0,0,1,254.2-2549.857Zm6.669-3.578a1.4,1.4,0,0,1,.543-.106,2.992,2.992,0,0,1,1.795.791,8.611,8.611,0,0,1,2.258,3.094q-.435.142-.864.293c-.793-1.853-2.194-3.03-3.143-2.63s-1.087,2.222-.316,4.083c-.271.132-.539.27-.806.406C259.3-2550.2,259.525-2552.873,260.867-2553.434Zm15.244,3a33.447,33.447,0,0,1,33.4,32.944h-.8a32.642,32.642,0,0,0-32.6-32.14,32.643,32.643,0,0,0-32.6,32.14h-.8A33.448,33.448,0,0,1,276.112-2550.431Zm-7.723-5.3a2.391,2.391,0,0,1,2.156,1.135,8.584,8.584,0,0,1,1.6,3.48,33.807,33.807,0,0,0-5.457,1.084C266.216-2552.88,266.963-2555.448,268.389-2555.733Zm7.723-.764c1.454,0,2.691,2.376,2.784,5.261q-.5-.04-1.014-.066h.108c0-2.036-.841-3.688-1.878-3.688s-1.877,1.652-1.877,3.688h.107q-.509.026-1.013.066C273.421-2554.121,274.657-2556.5,276.112-2556.5Zm5.566,1.9a2.655,2.655,0,0,1,1.895-1.162,1.317,1.317,0,0,1,.263.026c1.424.285,2.173,2.853,1.7,5.7a33.837,33.837,0,0,0-5.457-1.084,8.592,8.592,0,0,1,1.6-3.48Zm8.865.947a1.431,1.431,0,0,1,.539.1,2.4,2.4,0,0,1,1.168,2.138,8.628,8.628,0,0,1-.592,3.79c-.265-.135-.532-.267-.8-.4.76-1.855.621-3.666-.325-4.064s-2.352.78-3.145,2.637c-.289-.1-.583-.2-.877-.293C287.544-2552.039,289.236-2553.651,290.543-2553.651Zm6.621,3.554a1.523,1.523,0,0,1,.861.241,2.4,2.4,0,0,1,.722,2.328,8.619,8.619,0,0,1-1.338,3.6,34.511,34.511,0,0,0-4.622-3.094C294.125-2548.894,295.89-2550.1,297.164-2550.1Zm4.439,4.91a4.058,4.058,0,0,1,1.162-.193,1.724,1.724,0,0,1,1.261.446,2.391,2.391,0,0,1,.254,2.423,8.645,8.645,0,0,1-2.019,3.275c-.188-.221-.378-.437-.57-.654,1.418-1.458,1.968-3.224,1.226-3.947s-2.462-.139-3.878,1.29c-.234-.21-.47-.417-.711-.623a8.616,8.616,0,0,1,3.275-2.018Zm2.641-3.527a.457.457,0,0,0,.121-.309,14.1,14.1,0,0,1,8.068-12.608,11.6,11.6,0,0,0,3.3-2.253l1.436-1.437a1.4,1.4,0,0,1,.989-.409,1.4,1.4,0,0,1,.989.409l1.093,1.093a10.289,10.289,0,0,0,3.414,2.3,13.977,13.977,0,0,1,8.746,12.9.458.458,0,0,0,.124.311,19.328,19.328,0,0,1,1.824,2.3c-.13-.022-.258-.038-.382-.046a.645.645,0,0,0-.563-.336.647.647,0,0,0-.311.084.639.639,0,0,0,.174-.44.646.646,0,0,0-.645-.645.638.638,0,0,0-.406.146s0,0,0,0a.647.647,0,0,0,.261-.515.643.643,0,0,0-.468-.618.647.647,0,0,0,.137-.393.645.645,0,0,0-.51-.632.643.643,0,0,0,.446-.612.644.644,0,0,0-.6-.641.646.646,0,0,0,.351-.572.643.643,0,0,0-.629-.643.648.648,0,0,0,.387-.592.646.646,0,0,0-.647-.645.606.606,0,0,0-.221.042.648.648,0,0,0,.38-.587.646.646,0,0,0-.647-.645.641.641,0,0,0-.283.066h0a.64.64,0,0,0,.316-.552.646.646,0,0,0-.645-.647.625.625,0,0,0-.194.033.64.64,0,0,0,.285-.534.644.644,0,0,0-.645-.645.646.646,0,0,0-.417.155.645.645,0,0,0,.183-.448.646.646,0,0,0-.647-.645.645.645,0,0,0-.342.1.633.633,0,0,0,.157-.415.645.645,0,0,0-.647-.645.643.643,0,0,0-.411.15.624.624,0,0,0,.082-.307.646.646,0,0,0-.647-.645.641.641,0,0,0-.411.15.626.626,0,0,0,.066-.281.645.645,0,0,0-.645-.645.645.645,0,0,0-.515.258.63.63,0,0,0,.055-.258.646.646,0,0,0-.645-.647.643.643,0,0,0-.523.271.723.723,0,0,0,.02-.157.646.646,0,0,0-.645-.645.643.643,0,0,0-.57.347h0a.64.64,0,0,0,.055-.26.646.646,0,0,0-.647-.645.639.639,0,0,0-.512.258.673.673,0,0,0,.053-.258.645.645,0,0,0-.645-.647.639.639,0,0,0-.435.172.643.643,0,0,0,.119-.374.646.646,0,0,0-.645-.645.63.63,0,0,0-.42.159.646.646,0,0,0,.132-.389.647.647,0,0,0-.647-.647.644.644,0,0,0-.409.151.632.632,0,0,0,.051-.25.645.645,0,0,0-.647-.645.644.644,0,0,0-.645.645c0,.02,0,.038,0,.057a.617.617,0,0,0-.272-.057.647.647,0,0,0-.634.658.661.661,0,0,0,.141.386.639.639,0,0,0-.424-.152.647.647,0,0,0-.632.658.635.635,0,0,0,.126.371.644.644,0,0,0-.437-.164.646.646,0,0,0-.634.658.632.632,0,0,0,.06.258.643.643,0,0,0-.519-.25.646.646,0,0,0-.634.658.64.64,0,0,0,.091.311s0,0,0,0a.641.641,0,0,0-.6-.388.645.645,0,0,0-.634.658.607.607,0,0,0,.024.154.646.646,0,0,0-.53-.26.645.645,0,0,0-.632.658.6.6,0,0,0,.06.258.644.644,0,0,0-.519-.25.646.646,0,0,0-.634.658.626.626,0,0,0,.073.28.642.642,0,0,0-.415-.143.643.643,0,0,0-.632.658.627.627,0,0,0,.086.3.655.655,0,0,0-.415-.144.645.645,0,0,0-.632.658.628.628,0,0,0,.163.413.619.619,0,0,0-.345-.093.646.646,0,0,0-.634.658.649.649,0,0,0,.19.442.628.628,0,0,0-.417-.146.645.645,0,0,0-.634.658.652.652,0,0,0,.294.53.614.614,0,0,0-.192-.031.648.648,0,0,0-.634.658.642.642,0,0,0,.311.539.651.651,0,0,0-.269-.053.643.643,0,0,0-.632.658.641.641,0,0,0,.389.579.666.666,0,0,0-.221-.037.647.647,0,0,0-.634.658.641.641,0,0,0,.4.583.646.646,0,0,0-.618.656.649.649,0,0,0,.362.565.643.643,0,0,0-.59.654.646.646,0,0,0,.457.6.646.646,0,0,0-.5.64.621.621,0,0,0,.146.391.647.647,0,0,0-.457.627.654.654,0,0,0,.186.439l-.013.016a.631.631,0,0,0-.316-.08.647.647,0,0,0-.632.658.623.623,0,0,0,.163.407l-.013.017a.637.637,0,0,0-.28-.064.636.636,0,0,0-.543.327,4.063,4.063,0,0,0-.515.02,19.055,19.055,0,0,1,1.9-2.44Zm33.832,5.369c-.269.23-.537.462-.8.7-1.413-1.42-3.134-1.994-3.867-1.281s-.192,2.489,1.226,3.947c-.166.188-.331.375-.495.567a8.66,8.66,0,0,1-2.019-3.275,2.392,2.392,0,0,1,.254-2.423,1.723,1.723,0,0,1,1.261-.446,4.064,4.064,0,0,1,1.162.192,8.616,8.616,0,0,1,3.275,2.019Zm.3-6.687a1.522,1.522,0,0,1,.861-.241c1.274,0,3.039,1.2,4.377,3.079A34.534,34.534,0,0,0,339-2544.1a8.622,8.622,0,0,1-1.338-3.6,2.4,2.4,0,0,1,.722-2.328Zm6.67-3.578a1.387,1.387,0,0,1,.543-.106,2.992,2.992,0,0,1,1.793.791,8.6,8.6,0,0,1,2.259,3.094c-.292.093-.579.192-.866.294-.791-1.853-2.193-3.03-3.143-2.63s-1.087,2.222-.316,4.083c-.272.133-.539.267-.806.407-1.031-2.7-.808-5.371.534-5.932Zm15.243,3a33.449,33.449,0,0,1,33.408,33.121h-.8a32.642,32.642,0,0,0-32.6-32.317,32.642,32.642,0,0,0-32.6,32.317h-.8A33.448,33.448,0,0,1,360.292-2550.607Zm-7.723-5.3a2.4,2.4,0,0,1,2.158,1.133,8.62,8.62,0,0,1,1.6,3.48,34.1,34.1,0,0,0-5.457,1.087c-.473-2.847.276-5.415,1.7-5.7Zm7.723-.764c1.455,0,2.692,2.376,2.785,5.26-.338-.026-.676-.051-1.016-.068h.108c0-2.034-.839-3.686-1.877-3.686s-1.877,1.652-1.877,3.686h.11c-.34.017-.678.042-1.016.068C357.6-2554.3,358.839-2556.674,360.292-2556.674Zm5.568,1.9a2.657,2.657,0,0,1,1.895-1.16,1.3,1.3,0,0,1,.261.026c1.427.285,2.173,2.854,1.7,5.7a34.079,34.079,0,0,0-5.457-1.087A8.619,8.619,0,0,1,365.859-2554.777Zm8.865.949a1.421,1.421,0,0,1,.537.1,2.389,2.389,0,0,1,1.171,2.138,8.619,8.619,0,0,1-.594,3.788c-.263-.135-.53-.265-.8-.393.76-1.855.621-3.666-.325-4.063s-2.354.78-3.145,2.637c-.291-.1-.583-.2-.877-.294C371.725-2552.218,373.417-2553.827,374.724-2553.827Zm6.621,3.553a1.522,1.522,0,0,1,.861.241,2.4,2.4,0,0,1,.722,2.328,8.62,8.62,0,0,1-1.338,3.6,34.537,34.537,0,0,0-4.622-3.094C378.306-2549.07,380.071-2550.274,381.345-2550.274Zm4.439,4.909a4.072,4.072,0,0,1,1.162-.192,1.728,1.728,0,0,1,1.261.446,2.392,2.392,0,0,1,.252,2.423,8.606,8.606,0,0,1-2.019,3.275q-.282-.331-.57-.654c1.42-1.458,1.97-3.224,1.228-3.947s-2.465-.139-3.878,1.29c-.234-.212-.473-.417-.711-.623a8.62,8.62,0,0,1,3.275-2.019Zm2.244-3.35a.456.456,0,0,0,.121-.309,14.1,14.1,0,0,1,8.068-12.609,11.6,11.6,0,0,0,3.3-2.252l1.438-1.438a1.389,1.389,0,0,1,.987-.409,1.394,1.394,0,0,1,.989.409l1.093,1.093a10.285,10.285,0,0,0,3.414,2.3,13.977,13.977,0,0,1,8.746,12.9.469.469,0,0,0,.124.311,19.131,19.131,0,0,1,1.824,2.3c-.13-.022-.258-.038-.382-.046a.645.645,0,0,0-.563-.336.647.647,0,0,0-.311.084.638.638,0,0,0,.175-.44.646.646,0,0,0-.645-.645.643.643,0,0,0-.406.146,0,0,0,0,0,0,0,.647.647,0,0,0,.261-.515.643.643,0,0,0-.468-.618.646.646,0,0,0,.137-.393.645.645,0,0,0-.508-.632.644.644,0,0,0,.444-.612.644.644,0,0,0-.6-.641.646.646,0,0,0,.351-.572.643.643,0,0,0-.629-.643.648.648,0,0,0,.387-.592.646.646,0,0,0-.647-.645.617.617,0,0,0-.221.042.647.647,0,0,0,.38-.587.646.646,0,0,0-.647-.645.624.624,0,0,0-.28.066h0a.643.643,0,0,0,.318-.552.647.647,0,0,0-.647-.647.607.607,0,0,0-.192.033.645.645,0,0,0,.283-.534.644.644,0,0,0-.645-.645.64.64,0,0,0-.415.155.652.652,0,0,0,.181-.448.646.646,0,0,0-.647-.645.645.645,0,0,0-.342.1.633.633,0,0,0,.157-.415.645.645,0,0,0-.647-.645.644.644,0,0,0-.411.15.624.624,0,0,0,.082-.307.646.646,0,0,0-.645-.645.645.645,0,0,0-.413.15.626.626,0,0,0,.068-.281.646.646,0,0,0-.647-.645.645.645,0,0,0-.515.258.629.629,0,0,0,.055-.258.646.646,0,0,0-.645-.647.643.643,0,0,0-.523.271.723.723,0,0,0,.02-.157.646.646,0,0,0-.645-.645.643.643,0,0,0-.57.347h0a.641.641,0,0,0,.055-.26.646.646,0,0,0-.647-.645.639.639,0,0,0-.512.258.637.637,0,0,0,.055-.258.647.647,0,0,0-.647-.647.639.639,0,0,0-.435.172.643.643,0,0,0,.119-.374.646.646,0,0,0-.645-.645.63.63,0,0,0-.42.159.645.645,0,0,0,.132-.389.647.647,0,0,0-.647-.647.654.654,0,0,0-.409.15.632.632,0,0,0,.051-.25.644.644,0,0,0-.645-.645.645.645,0,0,0-.647.645.5.5,0,0,0,.007.057.634.634,0,0,0-.274-.057.643.643,0,0,0-.632.658.644.644,0,0,0,.139.386.633.633,0,0,0-.422-.152.648.648,0,0,0-.634.658.651.651,0,0,0,.126.371.644.644,0,0,0-.437-.164.647.647,0,0,0-.634.658.671.671,0,0,0,.06.258.644.644,0,0,0-.519-.25.648.648,0,0,0-.634.658.639.639,0,0,0,.09.311,0,0,0,0,1,0,0,.646.646,0,0,0-.605-.388.645.645,0,0,0-.634.658.605.605,0,0,0,.024.154.647.647,0,0,0-.53-.26.645.645,0,0,0-.632.658.635.635,0,0,0,.06.258.643.643,0,0,0-.519-.25.646.646,0,0,0-.634.658.629.629,0,0,0,.073.281.636.636,0,0,0-.415-.144.644.644,0,0,0-.632.658.651.651,0,0,0,.086.3.649.649,0,0,0-.413-.144.645.645,0,0,0-.634.658.639.639,0,0,0,.163.413.62.62,0,0,0-.345-.093.643.643,0,0,0-.632.658.637.637,0,0,0,.188.441.629.629,0,0,0-.417-.146.645.645,0,0,0-.634.658.652.652,0,0,0,.294.53.6.6,0,0,0-.192-.031.648.648,0,0,0-.634.658.642.642,0,0,0,.311.539.637.637,0,0,0-.269-.053.644.644,0,0,0-.632.658.643.643,0,0,0,.391.578.7.7,0,0,0-.223-.037.647.647,0,0,0-.634.658.644.644,0,0,0,.4.583.644.644,0,0,0-.616.656.647.647,0,0,0,.36.566.641.641,0,0,0-.587.653.641.641,0,0,0,.455.6.646.646,0,0,0-.5.64.622.622,0,0,0,.146.391.645.645,0,0,0-.455.627.634.634,0,0,0,.186.439l-.013.016a.636.636,0,0,0-.316-.08.648.648,0,0,0-.634.658.623.623,0,0,0,.163.407l-.013.017a.636.636,0,0,0-.28-.064.631.631,0,0,0-.4.15,4.834,4.834,0,0,0-.572.062,18.7,18.7,0,0,1,1.813-2.306Zm33.832,5.369c-.269.23-.537.461-.8.7-1.414-1.42-3.134-1.994-3.867-1.281s-.192,2.489,1.226,3.947c-.166.188-.331.375-.492.567a8.6,8.6,0,0,1-2.019-3.275,2.387,2.387,0,0,1,.252-2.423,1.723,1.723,0,0,1,1.261-.446,4.073,4.073,0,0,1,1.162.192,8.617,8.617,0,0,1,3.275,2.019Zm.3-6.687a1.522,1.522,0,0,1,.861-.241c1.274,0,3.039,1.2,4.377,3.079a34.541,34.541,0,0,0-4.622,3.094,8.62,8.62,0,0,1-1.338-3.6,2.4,2.4,0,0,1,.722-2.328Zm6.67-3.578a1.391,1.391,0,0,1,.543-.106,2.981,2.981,0,0,1,1.793.791,8.578,8.578,0,0,1,2.259,3.094c-.289.093-.579.192-.863.294-.793-1.853-2.2-3.03-3.143-2.631s-1.089,2.222-.318,4.083c-.269.133-.539.267-.806.407-1.031-2.7-.808-5.371.534-5.932Zm15.243,3a33.449,33.449,0,0,1,33.408,33.121h-.8a32.642,32.642,0,0,0-32.6-32.317,32.642,32.642,0,0,0-32.6,32.317h-.8a33.449,33.449,0,0,1,33.406-33.121Zm-7.721-5.3a2.4,2.4,0,0,1,2.155,1.133,8.621,8.621,0,0,1,1.6,3.48,34.08,34.08,0,0,0-5.457,1.086C434.181-2553.057,434.928-2555.625,436.355-2555.91Zm7.723-.764c1.453,0,2.69,2.376,2.783,5.26-.338-.026-.676-.051-1.016-.068h.11c0-2.034-.841-3.686-1.877-3.686s-1.877,1.652-1.877,3.686h.108c-.34.017-.678.042-1.016.068C441.386-2554.3,442.622-2556.674,444.078-2556.674Zm5.565,1.9a2.656,2.656,0,0,1,1.895-1.16,1.3,1.3,0,0,1,.261.026c1.427.285,2.173,2.854,1.7,5.7a34.08,34.08,0,0,0-5.457-1.086,8.621,8.621,0,0,1,1.6-3.48Zm8.865.949a1.44,1.44,0,0,1,.539.1,2.394,2.394,0,0,1,1.168,2.138,8.619,8.619,0,0,1-.594,3.788c-.263-.135-.53-.265-.8-.393.76-1.855.621-3.666-.325-4.064s-2.352.78-3.145,2.637c-.291-.1-.583-.2-.877-.294C455.509-2552.215,457.2-2553.827,458.508-2553.827Zm6.621,3.553a1.524,1.524,0,0,1,.861.241,2.4,2.4,0,0,1,.722,2.328,8.619,8.619,0,0,1-1.338,3.6,34.536,34.536,0,0,0-4.622-3.094c1.338-1.875,3.1-3.079,4.377-3.079Zm4.439,4.909a4.072,4.072,0,0,1,1.162-.192,1.727,1.727,0,0,1,1.261.446,2.391,2.391,0,0,1,.254,2.423,8.64,8.64,0,0,1-2.021,3.275c-.185-.221-.375-.437-.57-.653,1.42-1.458,1.97-3.225,1.228-3.947s-2.465-.139-3.878,1.29c-.234-.212-.473-.417-.711-.623a8.616,8.616,0,0,1,3.275-2.019Zm5.018,5.532a4.566,4.566,0,0,1,.484-.024,2.1,2.1,0,0,1,1.842.746c.808,1.21-.484,3.56-2.836,5.239a34.623,34.623,0,0,0-3.1-4.625,8.6,8.6,0,0,1,3.606-1.336Zm3.209,6.21c1.336,0,2.37.4,2.7,1.179a2.4,2.4,0,0,1-.685,2.339,8.594,8.594,0,0,1-3.094,2.257c-.082-.25-.168-.5-.256-.751,1.831-.833,2.97-2.257,2.551-3.2-.411-.921-2.18-1.031-3.989-.267-.148-.307-.3-.612-.459-.914A9.288,9.288,0,0,1,477.795-2533.622Zm.974,6.86c2.116,0,3.794.706,4.022,1.842a2.389,2.389,0,0,1-1.135,2.155,8.611,8.611,0,0,1-3.481,1.6,34.231,34.231,0,0,0-1.084-5.455A10.406,10.406,0,0,1,478.769-2526.762Zm4.753,9.275h-1.546c-.283-.892-1.791-1.579-3.622-1.588-.015-.3-.037-.605-.062-.906C480.984-2519.894,483.232-2518.812,483.521-2517.487Zm-8.467,0a.461.461,0,0,0-.23-.152,10.974,10.974,0,0,1-4.989-3.516,5.733,5.733,0,0,0-1-1,17.982,17.982,0,0,0,1.159-2.46,8.538,8.538,0,0,1,2.6-4.02.043.043,0,0,0,.011-.009.435.435,0,0,0,.035-.031c.011-.011.022-.02.031-.031l.026-.033.027-.04c.007-.011.011-.024.018-.038a.23.23,0,0,0,.018-.042.25.25,0,0,0,.011-.04.36.36,0,0,0,.011-.046c0-.013,0-.026,0-.038a.452.452,0,0,0,0-.055v-.011a.089.089,0,0,0,0-.024.415.415,0,0,0-.009-.053c0-.016-.011-.029-.015-.044l-.013-.035a.572.572,0,0,0-.038-.064s0,0,0-.007v0a.441.441,0,0,0-.362-.187h-.051a10.227,10.227,0,0,1-4.477-.961,19.246,19.246,0,0,0-2.692-.861,5.671,5.671,0,0,0-.015-1.294,10.973,10.973,0,0,1,1.042-6.016.455.455,0,0,0-.077-.546.459.459,0,0,0-.545-.079,10.955,10.955,0,0,1-6.016,1.042,5.714,5.714,0,0,0-1.418,0,19.892,19.892,0,0,0-.868-2.6,10.089,10.089,0,0,1-.992-4.656.458.458,0,0,0-.28-.464.461.461,0,0,0-.528.13,10.293,10.293,0,0,1-4.106,2.67,23.014,23.014,0,0,0-2.31,1.125,5.764,5.764,0,0,0-.967-.959,11,11,0,0,1-3.518-4.991.457.457,0,0,0-.442-.332.457.457,0,0,0-.44.332,11,11,0,0,1-3.518,4.991,5.706,5.706,0,0,0-.95.936,24.631,24.631,0,0,0-2.217-1.082,10.452,10.452,0,0,1-4.137-2.69.288.288,0,0,0-.024-.024.276.276,0,0,0-.038-.035.551.551,0,0,0-.046-.033l-.027-.015a.242.242,0,0,0-.057-.024.121.121,0,0,0-.024-.011.558.558,0,0,0-.062-.013.111.111,0,0,0-.026,0,.541.541,0,0,0-.06,0,.146.146,0,0,1-.031,0,0,0,0,0,0,0,0,.3.3,0,0,0-.064.011.594.594,0,0,0-.108.04h0c-.027.016-.051.033-.075.051a0,0,0,0,1,0,0,.152.152,0,0,0-.018.018.427.427,0,0,0-.042.044.3.3,0,0,0-.029.042c-.007.011-.015.02-.022.033l-.02.046c0,.011-.009.022-.013.036s-.009.035-.011.051a.231.231,0,0,0-.007.038.433.433,0,0,0,0,.075v.018a12.584,12.584,0,0,1-1.866,7.213c0,.009-.007.018-.011.026a5.837,5.837,0,0,0-1.4,0,10.969,10.969,0,0,1-6.014-1.042.462.462,0,0,0-.548.079.458.458,0,0,0-.077.546,11,11,0,0,1,1.042,6.016,5.782,5.782,0,0,0-.013,1.323c-.736.21-1.462.473-2.164.733a11.5,11.5,0,0,1-5.007,1.06.461.461,0,0,0-.464.278.462.462,0,0,0,.124.528,11.006,11.006,0,0,1,2.566,3.96,21.346,21.346,0,0,0,1.294,2.493,5.725,5.725,0,0,0-1.071,1.053,10.974,10.974,0,0,1-4.989,3.516.46.46,0,0,0-.23.152h-.786a31.722,31.722,0,0,1,31.683-31.4,31.723,31.723,0,0,1,31.685,31.4Zm-3.284,0a.761.761,0,0,0-.685-.431.76.76,0,0,0-.682.431h-.674a1.241,1.241,0,0,0-1.2-.91,1.243,1.243,0,0,0-1.2.91h-.623a1.878,1.878,0,0,0-1.555-1.52,18,18,0,0,0-.528-3.266,4.553,4.553,0,0,1,4.483,1.685,11.791,11.791,0,0,0,3.743,3.1Zm-9.141-9.806a5.739,5.739,0,0,0,2.312-3.1,19.151,19.151,0,0,1,2.544.819,14.126,14.126,0,0,0,3.655,1.007,11.84,11.84,0,0,0-2,3.6,17.3,17.3,0,0,1-1.084,2.313,5.781,5.781,0,0,0-3.71-.495A21.017,21.017,0,0,0,462.629-2527.292Zm-8.408-8.43a21.088,21.088,0,0,0-4.187-1.745,5.77,5.77,0,0,0-.523-3.732,22.137,22.137,0,0,1,2.173-1.058,13.252,13.252,0,0,0,3.62-2.083,13.251,13.251,0,0,0,1.058,3.894,19.492,19.492,0,0,1,.828,2.46,5.752,5.752,0,0,0-2.968,2.264Zm9.967,3.246a4.511,4.511,0,0,1-1.977,4.364,17.882,17.882,0,0,0-1.91-2.652,1.881,1.881,0,0,0-.192-2.427,1.88,1.88,0,0,0-2.427-.192,18.021,18.021,0,0,0-2.652-1.91,4.523,4.523,0,0,1,4.366-1.977,11.884,11.884,0,0,0,5.455-.66A11.88,11.88,0,0,0,464.188-2532.476Zm-23.5-9.733a11.894,11.894,0,0,0,3.39-4.326,11.942,11.942,0,0,0,3.39,4.326,4.515,4.515,0,0,1,1.689,4.483,18.027,18.027,0,0,0-3.227-.526,1.875,1.875,0,0,0-1.851-1.588,1.876,1.876,0,0,0-1.853,1.588,18.349,18.349,0,0,0-3.224.523A4.556,4.556,0,0,1,440.686-2542.208Zm22.335,24.722h-1.378a2.713,2.713,0,0,0-1.9-2.46,2.7,2.7,0,0,0,.892-2,2.71,2.71,0,0,0-2.37-2.684,2.683,2.683,0,0,0,.38-1.378,2.711,2.711,0,0,0-2.708-2.708,2.671,2.671,0,0,0-.93.17,2.723,2.723,0,0,0,.044-.486,2.711,2.711,0,0,0-2.708-2.708,2.706,2.706,0,0,0-1.215.292,2.71,2.71,0,0,0-2.672-2.288,2.7,2.7,0,0,0-1.932.813,2.712,2.712,0,0,0-2.478-1.621,2.713,2.713,0,0,0-2.476,1.612,2.7,2.7,0,0,0-1.921-.8,2.707,2.707,0,0,0-2.672,2.288,2.715,2.715,0,0,0-1.217-.292,2.711,2.711,0,0,0-2.708,2.708,2.682,2.682,0,0,0,.046.483,2.669,2.669,0,0,0-.932-.168,2.711,2.711,0,0,0-2.708,2.708,2.685,2.685,0,0,0,.382,1.378,2.71,2.71,0,0,0-2.37,2.684,2.685,2.685,0,0,0,.9,2.005,2.714,2.714,0,0,0-1.76,1.705,2.627,2.627,0,0,0-.135.753h-1.358a1.876,1.876,0,0,0-1.129-1.418,18.01,18.01,0,0,1,4.631-11.25,1.874,1.874,0,0,0,2.074-.393,1.876,1.876,0,0,0,.391-2.082,18.37,18.37,0,0,1,11.226-4.7,1.878,1.878,0,0,0,1.767,1.241,1.878,1.878,0,0,0,1.765-1.241,20.113,20.113,0,0,1,11.237,4.673,1.874,1.874,0,0,0,.373,2.115,1.88,1.88,0,0,0,2.113.378,20.123,20.123,0,0,1,4.645,11.248,1.878,1.878,0,0,0-1.19,1.424Zm-3.854,0a14.706,14.706,0,0,0-.122-1.658,1.793,1.793,0,0,1,1.678,1.658Zm-1.475-6.234a1.647,1.647,0,0,1,.236-.018,1.793,1.793,0,0,1,1.791,1.789,1.779,1.779,0,0,1-.892,1.539,14.989,14.989,0,0,0-1.135-3.31Zm-2.646-3.834a1.785,1.785,0,0,1,.894-.245,1.79,1.79,0,0,1,1.789,1.789,1.775,1.775,0,0,1-.565,1.3,15.168,15.168,0,0,0-2.118-2.842Zm-3.766-2.908a1.779,1.779,0,0,1,1.067-.36,1.793,1.793,0,0,1,1.791,1.789,1.749,1.749,0,0,1-.082.521,15.251,15.251,0,0,0-2.776-1.95Zm-4.307-1.55a1.78,1.78,0,0,1,1.486-.806,1.79,1.79,0,0,1,1.789,1.789c0,.02,0,.04,0,.06a14.967,14.967,0,0,0-3.273-1.042Zm-4.68-.172a1.791,1.791,0,0,1,1.756-1.442,1.787,1.787,0,0,1,1.747,1.436,14.769,14.769,0,0,0-1.72-.1A15.4,15.4,0,0,0,442.293-2532.187Zm-4.432,1.155a1.792,1.792,0,0,1,1.791-1.789,1.784,1.784,0,0,1,1.493.813,15.167,15.167,0,0,0-3.28,1.053C437.865-2530.979,437.861-2531,437.861-2531.031Zm-3.887,2a1.791,1.791,0,0,1,1.789-1.789,1.761,1.761,0,0,1,1.087.375,15.15,15.15,0,0,0-2.787,1.965A1.749,1.749,0,0,1,433.974-2529.035Zm21.451,11.548a1.755,1.755,0,0,0-1.208-1.387,1.744,1.744,0,0,0,.576-1.3,1.757,1.757,0,0,0-1.533-1.74,1.744,1.744,0,0,0,.245-.892,1.756,1.756,0,0,0-1.754-1.753,1.781,1.781,0,0,0-.6.11,1.627,1.627,0,0,0,.031-.314,1.755,1.755,0,0,0-1.754-1.753,1.729,1.729,0,0,0-.788.19,1.752,1.752,0,0,0-1.729-1.482,1.748,1.748,0,0,0-1.252.526,1.755,1.755,0,0,0-1.606-1.049,1.755,1.755,0,0,0-1.6,1.042,1.752,1.752,0,0,0-1.246-.519,1.752,1.752,0,0,0-1.729,1.482,1.73,1.73,0,0,0-.789-.19,1.755,1.755,0,0,0-1.754,1.753,1.825,1.825,0,0,0,.029.314,1.711,1.711,0,0,0-.6-.11,1.758,1.758,0,0,0-1.754,1.753,1.746,1.746,0,0,0,.247.892,1.759,1.759,0,0,0-1.535,1.74,1.739,1.739,0,0,0,.581,1.3,1.761,1.761,0,0,0-1.14,1.106,1.714,1.714,0,0,0-.066.28H429.9a14.194,14.194,0,0,1,14.172-13.889,14.191,14.191,0,0,1,14.172,13.889Zm-3.348,0a8.015,8.015,0,0,0-8-7.718,8.015,8.015,0,0,0-8,7.718H435.06a9.028,9.028,0,0,1,9.011-8.626,9.031,9.031,0,0,1,9.011,8.626Zm-1.935,0a6.082,6.082,0,0,0-6.067-5.782,6.076,6.076,0,0,0-6.062,5.782H437a7.1,7.1,0,0,1,7.08-6.8,7.1,7.1,0,0,1,7.083,6.8Zm-19.762-8.525a1.791,1.791,0,0,1,1.789-1.789,1.771,1.771,0,0,1,.923.26,15.206,15.206,0,0,0-2.114,2.849,1.771,1.771,0,0,1-.6-1.321Zm-1.1,5.6a1.774,1.774,0,0,1-.883-1.537,1.791,1.791,0,0,1,1.789-1.789,1.587,1.587,0,0,1,.276.027,15.035,15.035,0,0,0-1.038,2.9A2.914,2.914,0,0,0,429.276-2520.413Zm-.289,2.926h-1.592a1.606,1.606,0,0,1,.086-.452,1.816,1.816,0,0,1,1.186-1.14,1.8,1.8,0,0,1,.444-.084A14.989,14.989,0,0,0,428.987-2517.487ZM433.2-2535.3a21.054,21.054,0,0,0-2.7,1.93,1.879,1.879,0,0,0-2.463.168,1.874,1.874,0,0,0-.163,2.462,21.452,21.452,0,0,0-1.873,2.613,4.546,4.546,0,0,1-1.959-4.348,11.88,11.88,0,0,0-.663-5.455,11.888,11.888,0,0,0,5.457.66A4.527,4.527,0,0,1,433.2-2535.3Zm4.921-2.167a21.088,21.088,0,0,0-4.13,1.711,5.734,5.734,0,0,0-2.926-2.224,14.108,14.108,0,0,0,1.9-6.336,13.828,13.828,0,0,0,3.617,2.081c.691.3,1.4.625,2.08,1.007A5.767,5.767,0,0,0,438.119-2537.467ZM420.255-2522.7a20.8,20.8,0,0,1-1.248-2.392,15.007,15.007,0,0,0-1.994-3.454,15.287,15.287,0,0,0,4.26-1.124c.665-.245,1.347-.495,2.027-.691a5.75,5.75,0,0,0,2.246,3.025,21.006,21.006,0,0,0-1.736,4.17A5.767,5.767,0,0,0,420.255-2522.7Zm2.776,3.664a1.877,1.877,0,0,0-1.61,1.546H420.8a1.244,1.244,0,0,0-1.2-.927,1.24,1.24,0,0,0-1.2.927h-.658a.765.765,0,0,0-.694-.448.762.762,0,0,0-.693.448h-.981a11.785,11.785,0,0,0,3.743-3.1,4.511,4.511,0,0,1,4.452-1.694,21.045,21.045,0,0,0-.541,3.249Zm-16.533-3.732a2.39,2.39,0,0,1-1.135-2.156c.228-1.137,1.906-1.842,4.022-1.842a10.407,10.407,0,0,1,1.678.143,33.975,33.975,0,0,0-1.084,5.455A8.608,8.608,0,0,1,406.5-2522.765Zm3.3,3.779c-1.749.02-3.2.658-3.549,1.5h-1.612c.289-1.325,2.538-2.407,5.23-2.493C409.835-2519.651,409.811-2519.32,409.793-2518.986Zm1.449-20.124a2.382,2.382,0,0,1,2.326-.722,8.6,8.6,0,0,1,3.606,1.336,34.61,34.61,0,0,0-3.1,4.625c-2.352-1.678-3.644-4.028-2.836-5.239Zm.367,10.76c-.086.25-.168.5-.25.753-2.633-1.18-4.362-3.224-3.81-4.57a2.389,2.389,0,0,1,2.136-1.168,5.86,5.86,0,0,1,.632-.033,9.19,9.19,0,0,1,3.158.623q-.232.457-.451.921c-1.8-.753-3.558-.643-3.969.276-.42.939.722,2.363,2.553,3.2Zm-21.292-26.155a.148.148,0,0,0,.027.013h0A.148.148,0,0,1,390.316-2554.505Zm13.386,37.019h-3.034c-.2-1.554-2.023-2.816-4.536-3.253a8.527,8.527,0,0,0,2.323-1.316,3.226,3.226,0,0,0,1.451-3.043c-.336-1.694-2.553-2.692-5.347-2.573a8.59,8.59,0,0,0,2.175-1.853,3.229,3.229,0,0,0,.819-3.271c-.627-1.5-2.758-2.063-5.267-1.568,1.8-1.818,2.507-3.907,1.606-5.257a3.232,3.232,0,0,0-3.178-1.126,8.485,8.485,0,0,0-2.582.716,8.522,8.522,0,0,0,1.206-2.392,3.232,3.232,0,0,0-.481-3.337,2.229,2.229,0,0,0-.543-.4,17.64,17.64,0,0,1,1.575-1.811.443.443,0,0,0,.135-.347c-.009-.205-.015-.413-.015-.623a12.216,12.216,0,0,1,7-11.011,13.433,13.433,0,0,0,3.827-2.622l1.111-1.111.771.769a12.151,12.151,0,0,0,4.028,2.708,12.113,12.113,0,0,1,7.586,11.268c0,.21,0,.417-.015.623a.459.459,0,0,0,.135.347,17.3,17.3,0,0,1,1.583,1.822,2.292,2.292,0,0,0-.521.388,3.232,3.232,0,0,0-.484,3.337,8.594,8.594,0,0,0,1.208,2.392,8.484,8.484,0,0,0-2.582-.716,3.228,3.228,0,0,0-3.178,1.126c-.958,1.436-.1,3.708,1.963,5.6a8.681,8.681,0,0,0-2.849-.23,3.234,3.234,0,0,0-2.893,1.734c-.616,1.5.492,3.41,2.617,4.834-2.557.016-4.536.99-4.852,2.582a3.226,3.226,0,0,0,1.451,3.043,8.525,8.525,0,0,0,2.323,1.316C405.725-2520.3,403.905-2519.041,403.7-2517.487Zm-9.311-3.677a34.237,34.237,0,0,0-1.084-5.455,10.407,10.407,0,0,1,1.678-.143c2.114,0,3.794.707,4.022,1.842a2.394,2.394,0,0,1-1.135,2.156A8.612,8.612,0,0,1,394.391-2521.164Zm3.8,3.677c-.283-.892-1.793-1.579-3.622-1.588-.018-.3-.038-.605-.062-.906,2.692.086,4.94,1.169,5.23,2.493Zm-7.9-16.385a34.556,34.556,0,0,0-3.094-4.625,8.59,8.59,0,0,1,3.607-1.336,4.616,4.616,0,0,1,.481-.024,2.1,2.1,0,0,1,1.844.746C393.936-2537.9,392.644-2535.55,390.29-2533.871Zm4.934,2.078c-.413-.921-2.18-1.031-3.989-.267-.148-.307-.3-.612-.459-.914a9.276,9.276,0,0,1,3.233-.647c1.338,0,2.372.4,2.7,1.179a2.392,2.392,0,0,1-.682,2.339,8.592,8.592,0,0,1-3.094,2.257c-.082-.251-.168-.5-.256-.75C394.5-2529.432,395.643-2530.854,395.224-2531.793Zm-3.955,14.306a.453.453,0,0,0-.227-.152,10.974,10.974,0,0,1-4.989-3.516,5.736,5.736,0,0,0-1-1,18.221,18.221,0,0,0,1.159-2.46,8.539,8.539,0,0,1,2.6-4.02.016.016,0,0,0,.009-.009.239.239,0,0,0,.04-.033.316.316,0,0,0,.029-.029c.009-.011.018-.022.026-.035a.346.346,0,0,0,.024-.036.323.323,0,0,0,.02-.04.3.3,0,0,0,.018-.04.3.3,0,0,0,.011-.044.243.243,0,0,0,.011-.044.237.237,0,0,1,0-.04.406.406,0,0,0,0-.051v-.013a.094.094,0,0,0,0-.024.432.432,0,0,0-.009-.053.3.3,0,0,0-.015-.042.289.289,0,0,0-.015-.04.339.339,0,0,0-.029-.049c0-.007-.007-.013-.011-.02l-.007-.007c-.013-.017-.029-.035-.044-.053s-.009-.009-.015-.013a.428.428,0,0,0-.06-.046.027.027,0,0,1-.009-.007.4.4,0,0,0-.071-.033.016.016,0,0,0-.011,0,.3.3,0,0,0-.062-.018.1.1,0,0,0-.026,0,.3.3,0,0,0-.046,0,.427.427,0,0,0-.053,0H388.5a10.208,10.208,0,0,1-4.477-.961,19.374,19.374,0,0,0-2.694-.861,5.793,5.793,0,0,0-.013-1.294,10.973,10.973,0,0,1,1.042-6.016.458.458,0,0,0-.077-.545.462.462,0,0,0-.548-.08,10.964,10.964,0,0,1-6.014,1.042,5.744,5.744,0,0,0-1.418,0,20.475,20.475,0,0,0-.868-2.6,10.08,10.08,0,0,1-.992-4.653.459.459,0,0,0-.28-.464.461.461,0,0,0-.528.13,10.312,10.312,0,0,1-4.106,2.67,22.741,22.741,0,0,0-2.31,1.125,5.7,5.7,0,0,0-.97-.959,11.006,11.006,0,0,1-3.516-4.991.457.457,0,0,0-.442-.331.456.456,0,0,0-.44.331,11,11,0,0,1-3.518,4.991,5.7,5.7,0,0,0-.95.937,23.951,23.951,0,0,0-2.217-1.08,10.471,10.471,0,0,1-4.13-2.686.46.46,0,0,0-.318-.17h-.007c-.027,0-.051,0-.077,0h0c-.031,0-.06.011-.091.018,0,0-.009.007-.015.007-.022.009-.044.018-.066.029a.612.612,0,0,0-.075.051,0,0,0,0,0,0,0,.206.206,0,0,0-.022.022l-.04.04c-.009.013-.018.027-.027.042s-.015.022-.022.033a.254.254,0,0,0-.018.044.133.133,0,0,0-.015.038c0,.015-.007.031-.011.046a.272.272,0,0,0-.007.042.292.292,0,0,0,0,.062c0,.009,0,.018,0,.027a12.577,12.577,0,0,1-1.864,7.217.137.137,0,0,0-.013.026,5.794,5.794,0,0,0-1.4,0,10.974,10.974,0,0,1-6.016-1.042.459.459,0,0,0-.546.079.455.455,0,0,0-.077.546,11,11,0,0,1,1.042,6.016,5.787,5.787,0,0,0-.013,1.323c-.735.21-1.462.473-2.167.733a11.485,11.485,0,0,1-5,1.06.462.462,0,0,0-.464.278.462.462,0,0,0,.124.528,10.972,10.972,0,0,1,2.564,3.96,21.751,21.751,0,0,0,1.3,2.493,5.708,5.708,0,0,0-1.071,1.053,10.975,10.975,0,0,1-4.991,3.516.463.463,0,0,0-.227.152h-.786a31.722,31.722,0,0,1,31.683-31.4,31.723,31.723,0,0,1,31.685,31.4Zm-3.282,0a.763.763,0,0,0-.685-.43.758.758,0,0,0-.682.43h-.674a1.241,1.241,0,0,0-1.2-.91,1.243,1.243,0,0,0-1.2.91h-.623a1.877,1.877,0,0,0-1.555-1.519,18,18,0,0,0-.528-3.266,4.553,4.553,0,0,1,4.483,1.685,11.786,11.786,0,0,0,3.743,3.1Zm-9.141-9.806a5.738,5.738,0,0,0,2.312-3.1,19.122,19.122,0,0,1,2.544.819,14.135,14.135,0,0,0,3.655,1.007,11.838,11.838,0,0,0-2,3.6,17.316,17.316,0,0,1-1.084,2.313,5.779,5.779,0,0,0-3.71-.495A21.029,21.029,0,0,0,378.845-2527.292Zm-8.41-8.43a21.028,21.028,0,0,0-4.185-1.745,5.761,5.761,0,0,0-.526-3.733,22.506,22.506,0,0,1,2.175-1.058,13.252,13.252,0,0,0,3.62-2.082,13.249,13.249,0,0,0,1.058,3.894,19.731,19.731,0,0,1,.828,2.46A5.772,5.772,0,0,0,370.435-2535.722Zm9.969,3.247a4.512,4.512,0,0,1-1.977,4.364,18.184,18.184,0,0,0-1.91-2.655,1.876,1.876,0,0,0-.194-2.425,1.878,1.878,0,0,0-2.425-.192,18.085,18.085,0,0,0-2.648-1.908,4.55,4.55,0,0,1,4.36-1.979,11.923,11.923,0,0,0,5.457-.66A11.881,11.881,0,0,0,380.4-2532.476Zm-23.5-9.733a11.9,11.9,0,0,0,3.39-4.326,11.947,11.947,0,0,0,3.39,4.326,4.514,4.514,0,0,1,1.69,4.483,18.125,18.125,0,0,0-3.227-.526,1.876,1.876,0,0,0-1.853-1.588,1.875,1.875,0,0,0-1.851,1.588,18.049,18.049,0,0,0-3.227.526,4.51,4.51,0,0,1,1.687-4.483Zm22.335,24.722h-1.378a2.712,2.712,0,0,0-1.9-2.46,2.7,2.7,0,0,0,.892-2,2.71,2.71,0,0,0-2.37-2.683,2.7,2.7,0,0,0,.38-1.378,2.711,2.711,0,0,0-2.708-2.708,2.671,2.671,0,0,0-.93.17,2.942,2.942,0,0,0,.044-.486,2.711,2.711,0,0,0-2.708-2.708,2.7,2.7,0,0,0-1.215.292,2.711,2.711,0,0,0-2.672-2.288,2.7,2.7,0,0,0-1.932.813,2.713,2.713,0,0,0-2.48-1.621,2.712,2.712,0,0,0-2.473,1.612,2.7,2.7,0,0,0-1.924-.8,2.707,2.707,0,0,0-2.67,2.288,2.712,2.712,0,0,0-1.217-.292,2.711,2.711,0,0,0-2.708,2.708,2.679,2.679,0,0,0,.046.484,2.673,2.673,0,0,0-.932-.168,2.711,2.711,0,0,0-2.708,2.708,2.685,2.685,0,0,0,.382,1.378,2.71,2.71,0,0,0-2.37,2.683,2.692,2.692,0,0,0,.894,2.005,2.71,2.71,0,0,0-1.758,1.7,2.624,2.624,0,0,0-.135.753h-1.358a1.876,1.876,0,0,0-1.128-1.418,17.549,17.549,0,0,1,4.631-11.25,1.874,1.874,0,0,0,2.074-.393,1.88,1.88,0,0,0,.391-2.083,18.624,18.624,0,0,1,11.226-4.7,1.878,1.878,0,0,0,1.765,1.241,1.876,1.876,0,0,0,1.765-1.241,20.117,20.117,0,0,1,11.239,4.673,1.874,1.874,0,0,0,.373,2.116,1.877,1.877,0,0,0,2.111.378,20.11,20.11,0,0,1,4.647,11.248,1.878,1.878,0,0,0-1.19,1.424Zm-3.854,0a15.222,15.222,0,0,0-.121-1.658,1.793,1.793,0,0,1,1.678,1.658Zm-1.475-6.234a1.649,1.649,0,0,1,.236-.018,1.793,1.793,0,0,1,1.791,1.789,1.779,1.779,0,0,1-.892,1.539,14.987,14.987,0,0,0-1.135-3.311Zm-2.646-3.834a1.774,1.774,0,0,1,.894-.245,1.79,1.79,0,0,1,1.789,1.789,1.775,1.775,0,0,1-.565,1.3A15.177,15.177,0,0,0,371.261-2527.555Zm-3.765-2.909a1.775,1.775,0,0,1,1.067-.36,1.791,1.791,0,0,1,1.789,1.789,1.762,1.762,0,0,1-.079.521A15.249,15.249,0,0,0,367.5-2530.464Zm-4.307-1.55a1.78,1.78,0,0,1,1.486-.806,1.79,1.79,0,0,1,1.789,1.789.536.536,0,0,1,0,.06A14.911,14.911,0,0,0,363.189-2532.014Zm-4.68-.172a1.789,1.789,0,0,1,1.754-1.442,1.788,1.788,0,0,1,1.749,1.436,14.771,14.771,0,0,0-1.72-.1A15.347,15.347,0,0,0,358.509-2532.186Zm-4.432,1.155a1.791,1.791,0,0,1,1.789-1.789,1.785,1.785,0,0,1,1.5.813,15.1,15.1,0,0,0-3.28,1.053C354.081-2530.978,354.077-2531,354.077-2531.031Zm-3.887,2a1.791,1.791,0,0,1,1.789-1.789,1.764,1.764,0,0,1,1.087.375,15.12,15.12,0,0,0-2.787,1.966A1.753,1.753,0,0,1,350.19-2529.035Zm21.451,11.548a1.759,1.759,0,0,0-1.208-1.387,1.744,1.744,0,0,0,.576-1.3,1.757,1.757,0,0,0-1.533-1.74,1.744,1.744,0,0,0,.245-.892,1.756,1.756,0,0,0-1.754-1.753,1.781,1.781,0,0,0-.6.11,1.623,1.623,0,0,0,.031-.313,1.756,1.756,0,0,0-1.754-1.754,1.723,1.723,0,0,0-.788.19,1.752,1.752,0,0,0-1.729-1.482,1.748,1.748,0,0,0-1.252.526,1.756,1.756,0,0,0-1.606-1.049,1.752,1.752,0,0,0-1.6,1.042,1.753,1.753,0,0,0-1.246-.519,1.756,1.756,0,0,0-1.731,1.482,1.713,1.713,0,0,0-.786-.19,1.755,1.755,0,0,0-1.754,1.754,1.818,1.818,0,0,0,.029.313,1.711,1.711,0,0,0-.6-.11,1.756,1.756,0,0,0-1.754,1.753,1.746,1.746,0,0,0,.247.892,1.759,1.759,0,0,0-1.535,1.74,1.739,1.739,0,0,0,.581,1.3,1.762,1.762,0,0,0-1.14,1.107,1.724,1.724,0,0,0-.066.28H346.12a14.193,14.193,0,0,1,14.172-13.889,14.19,14.19,0,0,1,14.172,13.889Zm-3.348,0a8.015,8.015,0,0,0-8-7.719,8.015,8.015,0,0,0-8,7.719h-1.016a9.028,9.028,0,0,1,9.011-8.626,9.028,9.028,0,0,1,9.008,8.626Zm-1.937,0a6.078,6.078,0,0,0-6.065-5.782,6.076,6.076,0,0,0-6.062,5.782h-1.018a7.1,7.1,0,0,1,7.08-6.8,7.1,7.1,0,0,1,7.083,6.8Zm-19.759-8.525a1.79,1.79,0,0,1,1.789-1.789,1.769,1.769,0,0,1,.923.261,15.105,15.105,0,0,0-2.114,2.849A1.77,1.77,0,0,1,346.6-2526.011Zm-1.1,5.6a1.774,1.774,0,0,1-.883-1.537,1.791,1.791,0,0,1,1.789-1.789,1.607,1.607,0,0,1,.276.027,15.079,15.079,0,0,0-1.038,2.893A3.087,3.087,0,0,0,345.493-2520.413Zm-.289,2.927h-1.592a1.689,1.689,0,0,1,.084-.453,1.824,1.824,0,0,1,1.188-1.14,1.8,1.8,0,0,1,.444-.084A14.471,14.471,0,0,0,345.2-2517.487Zm4.209-17.814a21.6,21.6,0,0,0-2.7,1.93,1.874,1.874,0,0,0-2.46.168,1.871,1.871,0,0,0-.163,2.462,21.016,21.016,0,0,0-1.873,2.615,4.511,4.511,0,0,1-1.961-4.351,11.855,11.855,0,0,0-.66-5.455,11.884,11.884,0,0,0,5.455.66A4.518,4.518,0,0,1,349.413-2535.3Zm4.923-2.167a21.077,21.077,0,0,0-4.13,1.712,5.786,5.786,0,0,0-2.926-2.224,14.079,14.079,0,0,0,1.895-6.336,13.879,13.879,0,0,0,3.62,2.081c.691.3,1.4.625,2.08,1.007A5.765,5.765,0,0,0,354.335-2537.467Zm-17.865,14.773a20.562,20.562,0,0,1-1.248-2.4,15.035,15.035,0,0,0-1.994-3.452,15.344,15.344,0,0,0,4.26-1.122c.663-.247,1.347-.5,2.027-.693a5.74,5.74,0,0,0,2.246,3.025,20.991,20.991,0,0,0-1.736,4.17,5.774,5.774,0,0,0-3.556.468Zm2.776,3.661a1.875,1.875,0,0,0-1.606,1.546h-.627a1.237,1.237,0,0,0-1.195-.927,1.24,1.24,0,0,0-1.2.927h-.658a.766.766,0,0,0-.693-.448.763.763,0,0,0-.694.448h-.981a11.818,11.818,0,0,0,3.743-3.1,4.507,4.507,0,0,1,4.452-1.694,21.042,21.042,0,0,0-.541,3.249Zm-16.533-3.732a2.389,2.389,0,0,1-1.135-2.156c.227-1.137,1.906-1.842,4.022-1.842a10.407,10.407,0,0,1,1.678.143,33.967,33.967,0,0,0-1.084,5.455A8.615,8.615,0,0,1,322.714-2522.765Zm3.3,3.779c-1.749.02-3.2.658-3.549,1.5h-1.612c.289-1.325,2.538-2.407,5.23-2.493C326.051-2519.651,326.027-2519.319,326.009-2518.986Zm1.449-20.124a2.379,2.379,0,0,1,2.326-.722,8.61,8.61,0,0,1,3.607,1.336,34.4,34.4,0,0,0-3.1,4.625c-2.352-1.678-3.644-4.028-2.836-5.239Zm.367,10.76c-.086.25-.168.5-.25.753-2.632-1.18-4.362-3.224-3.81-4.569a2.389,2.389,0,0,1,2.136-1.168,5.925,5.925,0,0,1,.632-.033,9.19,9.19,0,0,1,3.158.623q-.232.457-.451.921c-1.8-.753-3.558-.643-3.969.276-.42.939.722,2.363,2.553,3.2Zm-21.292-26.155a.135.135,0,0,0,.026.013h0c-.007,0-.015-.007-.024-.013Zm13.386,37.019h-3.465c-.314-1.473-2.085-2.655-4.5-3.076a8.483,8.483,0,0,0,2.326-1.316,3.235,3.235,0,0,0,1.451-3.043c-.338-1.694-2.553-2.69-5.349-2.573a8.69,8.69,0,0,0,2.178-1.851,3.238,3.238,0,0,0,.817-3.273c-.625-1.5-2.758-2.061-5.267-1.568,1.8-1.818,2.507-3.907,1.606-5.256a3.229,3.229,0,0,0-3.178-1.126,8.478,8.478,0,0,0-2.582.716,8.6,8.6,0,0,0,1.208-2.392,3.232,3.232,0,0,0-.484-3.337,2.236,2.236,0,0,0-.358-.289,17.3,17.3,0,0,1,1.787-2.1.45.45,0,0,0,.135-.347c-.009-.205-.015-.413-.015-.623a12.216,12.216,0,0,1,7-11.012,13.438,13.438,0,0,0,3.827-2.622l1.111-1.111.771.768a12.158,12.158,0,0,0,4.026,2.708,12.112,12.112,0,0,1,7.588,11.268c0,.21,0,.417-.015.623a.45.45,0,0,0,.135.347,17.569,17.569,0,0,1,1.583,1.822,2.292,2.292,0,0,0-.521.388,3.232,3.232,0,0,0-.484,3.337,8.594,8.594,0,0,0,1.208,2.392,8.5,8.5,0,0,0-2.582-.716,3.226,3.226,0,0,0-3.178,1.126c-.958,1.436-.1,3.708,1.963,5.6a8.675,8.675,0,0,0-2.849-.229,3.231,3.231,0,0,0-2.893,1.734c-.616,1.5.492,3.41,2.617,4.834-2.557.016-4.536.99-4.854,2.582a3.235,3.235,0,0,0,1.451,3.043,8.581,8.581,0,0,0,2.326,1.316c-2.513.437-4.335,1.7-4.536,3.253Zm-5.983,0c-.413-.8-1.84-1.4-3.547-1.411-.015-.3-.038-.605-.062-.906,2.571.082,4.735,1.073,5.177,2.317Zm-7.825-16.208a34.706,34.706,0,0,0-3.094-4.625,8.611,8.611,0,0,1,3.6-1.336,4.564,4.564,0,0,1,.484-.024,2.1,2.1,0,0,1,1.842.747C309.755-2537.723,308.463-2535.373,306.111-2533.695Zm4.934,2.078c-.413-.921-2.182-1.031-3.991-.267-.148-.307-.3-.612-.459-.912a9.244,9.244,0,0,1,3.235-.649c1.336,0,2.37.4,2.7,1.182a2.391,2.391,0,0,1-.685,2.336,8.594,8.594,0,0,1-3.094,2.257c-.082-.25-.168-.5-.256-.749C310.322-2529.253,311.464-2530.678,311.044-2531.616Zm-1.919,5.175a10.358,10.358,0,0,1,1.681-.144c2.114,0,3.792.707,4.02,1.842a2.389,2.389,0,0,1-1.135,2.156,8.608,8.608,0,0,1-3.481,1.6A33.729,33.729,0,0,0,309.125-2526.442Zm-2.343,8.955a11.028,11.028,0,0,1-4.912-3.492,5.817,5.817,0,0,0-1-1,18.327,18.327,0,0,0,1.159-2.46,8.519,8.519,0,0,1,2.6-4.02l.011-.007a.507.507,0,0,0,.038-.035.388.388,0,0,0,.029-.029c.009-.011.018-.022.027-.036l.027-.035c.007-.013.011-.026.018-.04a.319.319,0,0,0,.018-.04.169.169,0,0,0,.011-.042.328.328,0,0,0,.011-.046.235.235,0,0,0,0-.04.4.4,0,0,0,0-.051s0-.009,0-.013a.1.1,0,0,0,0-.025.432.432,0,0,0-.009-.053.3.3,0,0,0-.015-.042.316.316,0,0,0-.015-.04c-.009-.017-.02-.035-.031-.053a.055.055,0,0,0-.009-.015s0,0,0,0a.354.354,0,0,0-.053-.062l0,0a.435.435,0,0,0-.3-.119h-.051a10.187,10.187,0,0,1-4.477-.961,19.4,19.4,0,0,0-2.692-.861,5.672,5.672,0,0,0-.015-1.294,11,11,0,0,1,1.042-6.016.455.455,0,0,0-.077-.545.455.455,0,0,0-.546-.077,10.991,10.991,0,0,1-6.016,1.04,5.821,5.821,0,0,0-1.418,0,20.028,20.028,0,0,0-.868-2.6,10.047,10.047,0,0,1-.989-4.654.463.463,0,0,0-.283-.464.462.462,0,0,0-.528.13,10.268,10.268,0,0,1-4.1,2.67,23.339,23.339,0,0,0-2.312,1.124,5.777,5.777,0,0,0-.967-.958,11,11,0,0,1-3.518-4.991.457.457,0,0,0-.44-.331.459.459,0,0,0-.441.331,10.989,10.989,0,0,1-3.516,4.991,5.706,5.706,0,0,0-.951.937,23.931,23.931,0,0,0-2.217-1.08,10.456,10.456,0,0,1-4.135-2.692.465.465,0,0,0-.2-.139.032.032,0,0,1-.013,0,.557.557,0,0,0-.06-.013.121.121,0,0,0-.029,0,.284.284,0,0,0-.061,0,.116.116,0,0,0-.028,0h0a.415.415,0,0,0-.089.018.241.241,0,0,0-.036.013.362.362,0,0,0-.047.022.452.452,0,0,0-.075.049s0,0,0,0-.014.015-.021.022-.028.027-.04.04-.017.027-.026.04a.3.3,0,0,0-.023.035c-.007.013-.012.029-.018.042a.4.4,0,0,0-.016.042c0,.013-.006.029-.009.042s-.007.029-.008.044a.489.489,0,0,0,0,.062c0,.009,0,.018,0,.026a12.57,12.57,0,0,1-1.866,7.218c-.005.009-.007.017-.012.026a5.8,5.8,0,0,0-1.4,0,11,11,0,0,1-6.015-1.04.458.458,0,0,0-.547.077.459.459,0,0,0-.076.548,10.909,10.909,0,0,1,1.042,6.013,5.785,5.785,0,0,0-.011,1.323c-.736.21-1.463.475-2.167.736a11.518,11.518,0,0,1-5,1.058.46.46,0,0,0-.464.278.461.461,0,0,0,.124.528,11.009,11.009,0,0,1,2.565,3.96,21.376,21.376,0,0,0,1.3,2.493,5.739,5.739,0,0,0-1.071,1.053,11.032,11.032,0,0,1-4.911,3.491h-1.092a31.723,31.723,0,0,1,31.682-31.221,31.721,31.721,0,0,1,31.682,31.221Zm-3.1,0a.759.759,0,0,0-.565-.254.753.753,0,0,0-.561.254H301.7a1.236,1.236,0,0,0-1.129-.733,1.236,1.236,0,0,0-1.126.733H298.7a1.867,1.867,0,0,0-1.506-1.343,18.224,18.224,0,0,0-.526-3.269,4.512,4.512,0,0,1,4.483,1.687,11.712,11.712,0,0,0,3.425,2.924Zm-9.024-9.627a5.75,5.75,0,0,0,2.315-3.1,18.833,18.833,0,0,1,2.544.817,14.135,14.135,0,0,0,3.655,1.007,11.844,11.844,0,0,0-2,3.6,17.3,17.3,0,0,1-1.084,2.312,5.788,5.788,0,0,0-3.712-.495,21,21,0,0,0-1.718-4.141Zm-8.408-8.432a20.891,20.891,0,0,0-4.185-1.742,5.774,5.774,0,0,0-.523-3.735,23.09,23.09,0,0,1,2.173-1.058,13.266,13.266,0,0,0,3.62-2.083,13.225,13.225,0,0,0,1.058,3.893,19.4,19.4,0,0,1,.828,2.46,5.793,5.793,0,0,0-2.97,2.264Zm9.971,3.247a4.517,4.517,0,0,1-1.979,4.364,17.912,17.912,0,0,0-1.91-2.653,1.877,1.877,0,0,0-.192-2.425,1.879,1.879,0,0,0-2.427-.195,18.187,18.187,0,0,0-2.65-1.91,4.52,4.52,0,0,1,4.364-1.977,11.855,11.855,0,0,0,5.455-.66,11.854,11.854,0,0,0-.66,5.455Zm-23.5-9.733a11.9,11.9,0,0,0,3.39-4.327,11.908,11.908,0,0,0,3.391,4.327,4.512,4.512,0,0,1,1.687,4.483,18.073,18.073,0,0,0-3.227-.526,1.876,1.876,0,0,0-1.852-1.588,1.876,1.876,0,0,0-1.852,1.588,18.385,18.385,0,0,0-3.223.523,4.551,4.551,0,0,1,1.685-4.481Zm22.382,24.545h-1.44a2.714,2.714,0,0,0-1.884-2.281,2.706,2.706,0,0,0,.892-2,2.71,2.71,0,0,0-2.37-2.686,2.683,2.683,0,0,0,.38-1.378,2.711,2.711,0,0,0-2.708-2.708,2.666,2.666,0,0,0-.93.17,2.68,2.68,0,0,0,.046-.484,2.711,2.711,0,0,0-2.71-2.708,2.7,2.7,0,0,0-1.215.29,2.71,2.71,0,0,0-2.672-2.288,2.7,2.7,0,0,0-1.932.815,2.711,2.711,0,0,0-2.479-1.623,2.711,2.711,0,0,0-2.474,1.612,2.7,2.7,0,0,0-1.923-.8,2.709,2.709,0,0,0-2.672,2.288,2.7,2.7,0,0,0-1.216-.29,2.711,2.711,0,0,0-2.708,2.708,2.722,2.722,0,0,0,.046.482,2.7,2.7,0,0,0-.93-.168,2.711,2.711,0,0,0-2.708,2.708,2.688,2.688,0,0,0,.381,1.378,2.71,2.71,0,0,0-2.369,2.686,2.688,2.688,0,0,0,.9,2,2.708,2.708,0,0,0-1.759,1.707,2.479,2.479,0,0,0-.122.574h-1.417a1.884,1.884,0,0,0-1.083-1.241,17.193,17.193,0,0,1,3.531-9.835c.07-.1.146-.2.225-.311l.042-.055c.239-.323.514-.674.834-1.049a1.876,1.876,0,0,0,2.074-.393,1.877,1.877,0,0,0,.39-2.083,18.748,18.748,0,0,1,11.227-4.7,1.874,1.874,0,0,0,1.765,1.241,1.875,1.875,0,0,0,1.766-1.241,20.1,20.1,0,0,1,11.237,4.675,1.876,1.876,0,0,0,.375,2.116,1.876,1.876,0,0,0,2.109.375,20.13,20.13,0,0,1,4.644,11.25,1.873,1.873,0,0,0-1.14,1.245Zm-3.907,0a14.222,14.222,0,0,0-.117-1.48,1.789,1.789,0,0,1,1.656,1.48Zm-1.471-6.056a1.717,1.717,0,0,1,.238-.02,1.793,1.793,0,0,1,1.789,1.791,1.775,1.775,0,0,1-.892,1.537A14.939,14.939,0,0,0,289.726-2523.542Zm-2.646-3.836a1.782,1.782,0,0,1,.894-.245,1.792,1.792,0,0,1,1.791,1.789,1.777,1.777,0,0,1-.568,1.3,15.176,15.176,0,0,0-2.118-2.843Zm-3.766-2.908a1.779,1.779,0,0,1,1.067-.36,1.794,1.794,0,0,1,1.791,1.791,1.749,1.749,0,0,1-.082.519,15.271,15.271,0,0,0-2.776-1.95Zm-4.307-1.551a1.78,1.78,0,0,1,1.486-.806,1.791,1.791,0,0,1,1.789,1.789c0,.02,0,.04,0,.06A14.968,14.968,0,0,0,279.008-2531.837Zm-4.68-.172a1.794,1.794,0,0,1,1.755-1.442,1.787,1.787,0,0,1,1.748,1.435,14.817,14.817,0,0,0-1.719-.1A15.359,15.359,0,0,0,274.328-2532.01Zm-4.431,1.155a1.792,1.792,0,0,1,1.789-1.789,1.782,1.782,0,0,1,1.493.813,14.983,14.983,0,0,0-3.278,1.056c0-.027,0-.053,0-.08Zm-3.888,2a1.793,1.793,0,0,1,1.79-1.791,1.766,1.766,0,0,1,1.087.378,15.146,15.146,0,0,0-2.788,1.963A1.768,1.768,0,0,1,266.009-2528.856Zm21.407,11.369a1.76,1.76,0,0,0-1.164-1.21,1.744,1.744,0,0,0,.576-1.3,1.754,1.754,0,0,0-1.533-1.738,1.755,1.755,0,0,0,.245-.892,1.755,1.755,0,0,0-1.754-1.754,1.768,1.768,0,0,0-.6.109,1.628,1.628,0,0,0,.031-.314,1.757,1.757,0,0,0-1.754-1.754,1.761,1.761,0,0,0-.788.19,1.752,1.752,0,0,0-1.729-1.482,1.752,1.752,0,0,0-1.252.526,1.755,1.755,0,0,0-1.6-1.049,1.756,1.756,0,0,0-1.6,1.044,1.744,1.744,0,0,0-1.245-.521,1.754,1.754,0,0,0-1.73,1.482,1.749,1.749,0,0,0-.787-.19,1.757,1.757,0,0,0-1.754,1.753,1.739,1.739,0,0,0,.03.314,1.711,1.711,0,0,0-.6-.109,1.756,1.756,0,0,0-1.754,1.754,1.745,1.745,0,0,0,.247.892,1.755,1.755,0,0,0-1.534,1.738,1.735,1.735,0,0,0,.58,1.3,1.759,1.759,0,0,0-1.139,1.107c-.012.033-.019.068-.029.1h-2.818a14.191,14.191,0,0,1,14.164-13.712,14.193,14.193,0,0,1,14.168,13.712Zm-3.311,0a8.017,8.017,0,0,0-7.993-7.542,8.017,8.017,0,0,0-7.993,7.542h-1.013a9.031,9.031,0,0,1,9-8.45,9.031,9.031,0,0,1,9,8.45Zm-1.941,0a6.078,6.078,0,0,0-6.052-5.6,6.077,6.077,0,0,0-6.052,5.6h-1.021a7.1,7.1,0,0,1,7.072-6.623,7.1,7.1,0,0,1,7.073,6.623Zm-19.748-8.348a1.791,1.791,0,0,1,1.79-1.789,1.75,1.75,0,0,1,.922.263,15.155,15.155,0,0,0-2.112,2.849A1.769,1.769,0,0,1,262.416-2525.834Zm-1.1,5.6a1.772,1.772,0,0,1-.885-1.535,1.793,1.793,0,0,1,1.79-1.791,1.507,1.507,0,0,1,.283.029,14.983,14.983,0,0,0-1.029,2.856A2.753,2.753,0,0,0,261.312-2520.236Zm-.283,2.75h-1.581a1.643,1.643,0,0,1,.066-.276,1.812,1.812,0,0,1,1.188-1.137,1.751,1.751,0,0,1,.447-.086c-.064.492-.1.994-.12,1.5Zm4.2-17.637a21.531,21.531,0,0,0-2.7,1.93,1.878,1.878,0,0,0-2.461.168,1.874,1.874,0,0,0-.164,2.462,21.351,21.351,0,0,0-1.871,2.613,4.545,4.545,0,0,1-1.961-4.348,11.883,11.883,0,0,0-.661-5.455,11.856,11.856,0,0,0,5.456.661A4.523,4.523,0,0,1,265.233-2535.123Zm4.922-2.167a21.072,21.072,0,0,0-4.13,1.711,5.766,5.766,0,0,0-2.927-2.224,14.094,14.094,0,0,0,1.9-6.336,13.83,13.83,0,0,0,3.619,2.08c.69.3,1.4.625,2.08,1.007a5.758,5.758,0,0,0-.538,3.761Zm-17.865,14.773a20.683,20.683,0,0,1-1.248-2.4,15.013,15.013,0,0,0-1.995-3.452,15.332,15.332,0,0,0,4.26-1.122c.664-.247,1.348-.5,2.028-.693a5.733,5.733,0,0,0,2.246,3.026,21.013,21.013,0,0,0-1.736,4.17,5.776,5.776,0,0,0-3.556.468Zm2.777,3.664a1.871,1.871,0,0,0-1.572,1.367h-.716a1.243,1.243,0,0,0-1.141-.751,1.244,1.244,0,0,0-1.142.751h-.833a.761.761,0,0,0-.578-.271.761.761,0,0,0-.578.271h-.773a11.713,11.713,0,0,0,3.421-2.924,4.511,4.511,0,0,1,4.452-1.694A21.013,21.013,0,0,0,255.067-2518.853Zm-13.053-2.134a8.608,8.608,0,0,1-3.481-1.6,2.391,2.391,0,0,1-1.135-2.156c.227-1.135,1.906-1.842,4.021-1.842a10.409,10.409,0,0,1,1.679.143,34.081,34.081,0,0,0-1.084,5.455Zm-.184,2.177c-1.625.018-2.994.57-3.459,1.323h-1.651c.442-1.243,2.606-2.235,5.177-2.317C241.87-2519.472,241.846-2519.14,241.829-2518.809Zm1.447-20.124a2.387,2.387,0,0,1,2.326-.722,8.624,8.624,0,0,1,3.605,1.336,34.7,34.7,0,0,0-3.094,4.625C243.761-2535.373,242.468-2537.723,243.276-2538.933Zm.367,10.76c-.086.25-.169.5-.249.753-2.634-1.179-4.362-3.224-3.811-4.569a2.392,2.392,0,0,1,2.137-1.168,5.841,5.841,0,0,1,.631-.031,9.142,9.142,0,0,1,3.159.623c-.155.3-.3.609-.451.921-1.8-.755-3.558-.645-3.969.274-.42.938.722,2.363,2.554,3.2Zm-21.291-26.153a.13.13,0,0,0,.025.011s0,0,0,0A.133.133,0,0,0,222.353-2554.326Zm13.419,36.84h-3.1c-.313-1.473-2.085-2.654-4.5-3.076a8.474,8.474,0,0,0,2.324-1.316,3.231,3.231,0,0,0,1.451-3.043c-.337-1.694-2.553-2.69-5.348-2.573a8.672,8.672,0,0,0,2.176-1.851,3.236,3.236,0,0,0,.819-3.273c-.627-1.5-2.759-2.061-5.268-1.568,1.8-1.818,2.507-3.906,1.606-5.256a3.232,3.232,0,0,0-3.179-1.126,8.493,8.493,0,0,0-2.581.716,8.55,8.55,0,0,0,1.207-2.392,3.231,3.231,0,0,0-.483-3.337,2.3,2.3,0,0,0-.543-.4,17.269,17.269,0,0,1,1.576-1.809.46.46,0,0,0,.134-.349c-.01-.206-.015-.413-.015-.621a12.214,12.214,0,0,1,7-11.011,13.475,13.475,0,0,0,3.828-2.622l1.112-1.113.769.771a12.176,12.176,0,0,0,4.028,2.705,12.118,12.118,0,0,1,7.588,11.27c0,.208-.005.415-.015.621a.46.46,0,0,0,.134.349,16.936,16.936,0,0,1,1.582,1.822,2.245,2.245,0,0,0-.52.386,3.23,3.23,0,0,0-.483,3.337,8.549,8.549,0,0,0,1.207,2.392,8.481,8.481,0,0,0-2.581-.715,3.228,3.228,0,0,0-3.179,1.126c-.958,1.436-.1,3.708,1.964,5.6a8.733,8.733,0,0,0-2.849-.23,3.235,3.235,0,0,0-2.893,1.736c-.615,1.5.493,3.408,2.617,4.832-2.557.016-4.535.99-4.853,2.582a3.23,3.23,0,0,0,1.451,3.043,8.479,8.479,0,0,0,2.324,1.316c-2.417.422-4.189,1.6-4.5,3.076Zm-9.35-3.5a34.086,34.086,0,0,0-1.085-5.453,10.217,10.217,0,0,1,1.685-.146c2.114,0,3.794.707,4.021,1.842a2.39,2.39,0,0,1-1.134,2.155A8.567,8.567,0,0,1,226.421-2520.987Zm3.731,3.5c-.414-.8-1.843-1.4-3.552-1.411v.015c-.017-.307-.037-.616-.061-.921,2.572.082,4.737,1.073,5.179,2.316Zm-7.829-16.206a34.543,34.543,0,0,0-3.093-4.625,8.6,8.6,0,0,1,3.607-1.338,4.55,4.55,0,0,1,.483-.024,2.1,2.1,0,0,1,1.843.747C225.971-2537.723,224.678-2535.371,222.323-2533.693Zm4.936,2.076c-.413-.924-2.183-1.031-3.995-.265-.148-.307-.3-.612-.457-.914a9.26,9.26,0,0,1,3.237-.65c1.337,0,2.371.4,2.7,1.182a2.39,2.39,0,0,1-.684,2.337,8.57,8.57,0,0,1-3.1,2.259q-.124-.377-.255-.75C226.537-2529.251,227.679-2530.678,227.259-2531.616ZM223-2517.487a11.031,11.031,0,0,1-4.911-3.491,5.785,5.785,0,0,0-1-1,18.08,18.08,0,0,0,1.16-2.46,8.519,8.519,0,0,1,2.6-4.02l.009-.007a.417.417,0,0,0,.038-.035.282.282,0,0,0,.029-.029.321.321,0,0,0,.027-.035c.009-.011.018-.024.025-.035s.013-.026.019-.04.013-.026.018-.04.008-.029.011-.042.007-.031.01-.047,0-.026,0-.04a.382.382,0,0,0,0-.051s0-.009,0-.013,0-.015,0-.024a.455.455,0,0,0-.01-.053c0-.013-.009-.029-.014-.042s-.01-.026-.016-.04-.019-.035-.031-.053-.006-.011-.009-.016l0,0a.6.6,0,0,0-.053-.062s0,0-.005,0a.435.435,0,0,0-.3-.119h-.05a10.193,10.193,0,0,1-4.478-.961,19.375,19.375,0,0,0-2.692-.861,5.811,5.811,0,0,0-.014-1.294,10.981,10.981,0,0,1,1.042-6.016.457.457,0,0,0-.078-.545.457.457,0,0,0-.547-.078,10.973,10.973,0,0,1-6.014,1.04,5.821,5.821,0,0,0-1.418,0,20,20,0,0,0-.869-2.6,10.057,10.057,0,0,1-.99-4.653.461.461,0,0,0-.282-.464.46.46,0,0,0-.527.13,10.281,10.281,0,0,1-4.1,2.67,23.091,23.091,0,0,0-2.311,1.124,5.813,5.813,0,0,0-.969-.958,10.992,10.992,0,0,1-3.516-4.991.459.459,0,0,0-.441-.331.459.459,0,0,0-.441.331,11,11,0,0,1-3.516,4.991,5.7,5.7,0,0,0-.952.937,23.867,23.867,0,0,0-2.217-1.08,10.461,10.461,0,0,1-4.135-2.693.439.439,0,0,0-.2-.136l-.014-.007a.493.493,0,0,0-.06-.013c-.01,0-.02,0-.03,0a.318.318,0,0,0-.061,0,.13.13,0,0,0-.028,0h0a.418.418,0,0,0-.089.018l-.04.015-.044.018a.721.721,0,0,0-.075.051s0,0,0,0-.014.016-.021.022l-.04.04c-.01.013-.017.027-.026.04a.259.259,0,0,0-.023.035c-.007.013-.012.029-.018.042a.373.373,0,0,0-.016.042c0,.013-.006.029-.009.042s-.007.029-.008.044a.485.485,0,0,0,0,.062c0,.009,0,.018,0,.026a12.57,12.57,0,0,1-1.866,7.217c0,.009-.008.018-.012.027a5.8,5.8,0,0,0-1.4,0,11,11,0,0,1-6.015-1.04.457.457,0,0,0-.547.077.459.459,0,0,0-.077.548,10.909,10.909,0,0,1,1.042,6.013,5.8,5.8,0,0,0-.012,1.323c-.736.21-1.462.475-2.167.736a11.52,11.52,0,0,1-5,1.058.46.46,0,0,0-.464.278.46.46,0,0,0,.124.528,11.015,11.015,0,0,1,2.565,3.96,21.453,21.453,0,0,0,1.3,2.493,5.732,5.732,0,0,0-1.071,1.053,11.031,11.031,0,0,1-4.911,3.492h-1.092a31.723,31.723,0,0,1,31.682-31.221,31.721,31.721,0,0,1,31.678,31.221Zm-3.1,0a.753.753,0,0,0-.562-.254.761.761,0,0,0-.565.254h-.859a1.238,1.238,0,0,0-1.129-.733,1.238,1.238,0,0,0-1.128.733h-.739a1.87,1.87,0,0,0-1.51-1.343,18.094,18.094,0,0,0-.526-3.269,4.513,4.513,0,0,1,4.484,1.688,11.7,11.7,0,0,0,3.424,2.924Zm-9.02-9.627a5.763,5.763,0,0,0,2.314-3.1,18.846,18.846,0,0,1,2.543.817,14.134,14.134,0,0,0,3.656,1.007,11.849,11.849,0,0,0-2,3.6,17.372,17.372,0,0,1-1.084,2.312,5.788,5.788,0,0,0-3.713-.494A20.961,20.961,0,0,0,210.878-2527.114Zm-8.407-8.432a21.008,21.008,0,0,0-4.187-1.745,5.761,5.761,0,0,0-.523-3.732,22.886,22.886,0,0,1,2.174-1.058,13.282,13.282,0,0,0,3.621-2.083,13.206,13.206,0,0,0,1.057,3.894,19.386,19.386,0,0,1,.828,2.46A5.784,5.784,0,0,0,202.471-2535.545Zm9.969,3.246a4.514,4.514,0,0,1-1.977,4.364,18.136,18.136,0,0,0-1.912-2.652,1.875,1.875,0,0,0-.193-2.425,1.876,1.876,0,0,0-2.426-.194,18.263,18.263,0,0,0-2.652-1.91,4.518,4.518,0,0,1,4.364-1.977,11.855,11.855,0,0,0,5.456-.66A11.888,11.888,0,0,0,212.44-2532.3Zm-23.5-9.733a11.9,11.9,0,0,0,3.39-4.326,11.9,11.9,0,0,0,3.39,4.326,4.515,4.515,0,0,1,1.688,4.483,18.092,18.092,0,0,0-3.226-.526,1.876,1.876,0,0,0-1.852-1.588,1.876,1.876,0,0,0-1.853,1.588,18.4,18.4,0,0,0-3.223.523A4.55,4.55,0,0,1,188.937-2542.032Zm22.379,24.545h-1.445a2.706,2.706,0,0,0-1.877-2.281,2.7,2.7,0,0,0,.892-2,2.71,2.71,0,0,0-2.369-2.686,2.685,2.685,0,0,0,.381-1.378,2.711,2.711,0,0,0-2.708-2.708,2.677,2.677,0,0,0-.931.17,2.684,2.684,0,0,0,.046-.484,2.711,2.711,0,0,0-2.708-2.708,2.71,2.71,0,0,0-1.216.289,2.709,2.709,0,0,0-2.672-2.288,2.7,2.7,0,0,0-1.932.815,2.712,2.712,0,0,0-2.479-1.623,2.712,2.712,0,0,0-2.474,1.612,2.7,2.7,0,0,0-1.923-.8,2.709,2.709,0,0,0-2.672,2.288,2.709,2.709,0,0,0-1.216-.289,2.711,2.711,0,0,0-2.708,2.708,2.694,2.694,0,0,0,.045.481,2.706,2.706,0,0,0-.931-.168,2.711,2.711,0,0,0-2.708,2.708,2.685,2.685,0,0,0,.381,1.378,2.71,2.71,0,0,0-2.369,2.686,2.688,2.688,0,0,0,.9,2,2.709,2.709,0,0,0-1.759,1.707,2.526,2.526,0,0,0-.124.574h-1.412a1.873,1.873,0,0,0-1.086-1.241,17.665,17.665,0,0,1,4.631-11.25,1.874,1.874,0,0,0,2.074-.393,1.877,1.877,0,0,0,.39-2.083,18.973,18.973,0,0,1,11.227-4.695,1.874,1.874,0,0,0,1.765,1.241,1.874,1.874,0,0,0,1.765-1.241,20.1,20.1,0,0,1,11.237,4.675,1.878,1.878,0,0,0,.375,2.116,1.879,1.879,0,0,0,2.111.375,20.123,20.123,0,0,1,4.644,11.248A1.876,1.876,0,0,0,211.316-2517.487Zm-3.906,0q-.023-.749-.117-1.482a1.787,1.787,0,0,1,1.652,1.482Zm-1.473-6.055a1.733,1.733,0,0,1,.242-.02,1.793,1.793,0,0,1,1.79,1.791,1.776,1.776,0,0,1-.892,1.537A14.981,14.981,0,0,0,205.937-2523.542Zm-2.641-3.836a1.78,1.78,0,0,1,.895-.245,1.791,1.791,0,0,1,1.79,1.789,1.778,1.778,0,0,1-.568,1.3A15.166,15.166,0,0,0,203.3-2527.379Zm-3.767-2.906a1.767,1.767,0,0,1,1.069-.362,1.793,1.793,0,0,1,1.79,1.791,1.72,1.72,0,0,1-.081.519A15.266,15.266,0,0,0,199.529-2530.285Zm-4.305-1.552a1.779,1.779,0,0,1,1.486-.806,1.792,1.792,0,0,1,1.789,1.789c0,.02,0,.04,0,.059A14.95,14.95,0,0,0,195.224-2531.837Zm-4.68-.172a1.791,1.791,0,0,1,1.755-1.442,1.787,1.787,0,0,1,1.748,1.436,14.755,14.755,0,0,0-1.719-.1,15.306,15.306,0,0,0-1.784.108Zm-4.432,1.155a1.792,1.792,0,0,1,1.789-1.789,1.782,1.782,0,0,1,1.493.813,15,15,0,0,0-3.278,1.056C186.116-2530.8,186.113-2530.828,186.113-2530.854Zm-3.888,2a1.793,1.793,0,0,1,1.79-1.791,1.762,1.762,0,0,1,1.086.375,15.152,15.152,0,0,0-2.787,1.965A1.768,1.768,0,0,1,182.225-2528.856Zm21.406,11.369a1.756,1.756,0,0,0-1.163-1.21,1.744,1.744,0,0,0,.578-1.3,1.755,1.755,0,0,0-1.534-1.738,1.746,1.746,0,0,0,.247-.892,1.755,1.755,0,0,0-1.754-1.754,1.77,1.77,0,0,0-.6.108,1.735,1.735,0,0,0,.03-.314,1.757,1.757,0,0,0-1.754-1.753,1.75,1.75,0,0,0-.787.19,1.753,1.753,0,0,0-1.73-1.482,1.748,1.748,0,0,0-1.251.526,1.757,1.757,0,0,0-1.605-1.049,1.756,1.756,0,0,0-1.6,1.045,1.742,1.742,0,0,0-1.245-.521,1.754,1.754,0,0,0-1.731,1.482,1.749,1.749,0,0,0-.787-.19,1.757,1.757,0,0,0-1.754,1.753,1.754,1.754,0,0,0,.03.314,1.7,1.7,0,0,0-.6-.108,1.755,1.755,0,0,0-1.754,1.754,1.746,1.746,0,0,0,.247.892,1.755,1.755,0,0,0-1.534,1.738,1.735,1.735,0,0,0,.58,1.3,1.759,1.759,0,0,0-1.139,1.106c-.012.033-.02.068-.029.1H178.16a14.192,14.192,0,0,1,14.168-13.712,14.191,14.191,0,0,1,14.165,13.712Zm-3.309,0a8.017,8.017,0,0,0-7.993-7.542,8.017,8.017,0,0,0-7.994,7.542h-1.013a9.031,9.031,0,0,1,9-8.45,9.03,9.03,0,0,1,9,8.45Zm-1.942,0a6.077,6.077,0,0,0-6.052-5.6,6.077,6.077,0,0,0-6.052,5.6h-1.021a7.1,7.1,0,0,1,7.073-6.623,7.1,7.1,0,0,1,7.073,6.623Zm-19.748-8.348a1.791,1.791,0,0,1,1.79-1.789,1.748,1.748,0,0,1,.922.263,15.13,15.13,0,0,0-2.114,2.847,1.77,1.77,0,0,1-.6-1.321Zm-1.1,5.6a1.772,1.772,0,0,1-.885-1.535,1.793,1.793,0,0,1,1.79-1.791,1.664,1.664,0,0,1,.277.026,14.958,14.958,0,0,0-1.038,2.9,2.71,2.71,0,0,0-.144.4Zm-.287,2.749h-1.576a1.6,1.6,0,0,1,.066-.276,1.81,1.81,0,0,1,1.188-1.138,1.717,1.717,0,0,1,.443-.086C177.3-2518.494,177.257-2517.992,177.242-2517.487Zm4.207-17.637a21.555,21.555,0,0,0-2.7,1.93,1.877,1.877,0,0,0-2.461.168,1.874,1.874,0,0,0-.164,2.462,21.334,21.334,0,0,0-1.871,2.613,4.546,4.546,0,0,1-1.961-4.349,11.885,11.885,0,0,0-.661-5.455,11.856,11.856,0,0,0,5.456.66,4.524,4.524,0,0,1,4.36,1.97Zm4.922-2.167a21.057,21.057,0,0,0-4.13,1.711,5.766,5.766,0,0,0-2.927-2.224,14.1,14.1,0,0,0,1.9-6.336,13.826,13.826,0,0,0,3.619,2.08c.69.3,1.4.625,2.08,1.007A5.756,5.756,0,0,0,186.371-2537.29Zm-17.865,14.772a20.678,20.678,0,0,1-1.248-2.4,15.018,15.018,0,0,0-1.994-3.452,15.34,15.34,0,0,0,4.26-1.122c.665-.247,1.348-.5,2.028-.693a5.733,5.733,0,0,0,2.246,3.025,21,21,0,0,0-1.735,4.17A5.776,5.776,0,0,0,168.506-2522.518Zm2.777,3.664a1.872,1.872,0,0,0-1.572,1.367H169a1.243,1.243,0,0,0-1.142-.75,1.243,1.243,0,0,0-1.141.75h-.833a.762.762,0,0,0-.578-.271.762.762,0,0,0-.579.271h-.773a11.723,11.723,0,0,0,3.421-2.924,4.511,4.511,0,0,1,4.452-1.694,21.052,21.052,0,0,0-.539,3.251Zm-13.053-2.134a8.61,8.61,0,0,1-3.481-1.6,2.39,2.39,0,0,1-1.134-2.156c.227-1.135,1.906-1.842,4.02-1.842a10.356,10.356,0,0,1,1.679.144A34.064,34.064,0,0,0,158.229-2520.987Zm-.184,2.178c-1.625.018-2.995.57-3.459,1.323h-1.651c.441-1.243,2.606-2.235,5.177-2.316C158.085-2519.472,158.062-2519.141,158.045-2518.809Zm1.447-20.124a2.388,2.388,0,0,1,2.326-.722,8.615,8.615,0,0,1,3.605,1.336,34.661,34.661,0,0,0-3.095,4.625c-2.353-1.678-3.645-4.029-2.837-5.239Zm.368,10.76q-.129.374-.249.753c-2.634-1.179-4.362-3.224-3.811-4.57a2.393,2.393,0,0,1,2.137-1.168,5.9,5.9,0,0,1,.631-.031,9.152,9.152,0,0,1,3.158.623c-.155.3-.3.61-.451.921-1.8-.755-3.559-.645-3.97.274-.42.938.722,2.363,2.554,3.2Zm-21.292-26.153a.117.117,0,0,0,.025.011v0A.12.12,0,0,0,138.568-2554.326Zm13.419,36.84h-3.13c-.309-1.477-2.082-2.661-4.5-3.083a8.539,8.539,0,0,0,2.324-1.316,3.231,3.231,0,0,0,1.451-3.043c-.337-1.694-2.553-2.692-5.348-2.573a8.628,8.628,0,0,0,2.176-1.853,3.231,3.231,0,0,0,.819-3.271c-.627-1.5-2.759-2.063-5.268-1.568,1.8-1.818,2.507-3.907,1.607-5.256a3.233,3.233,0,0,0-3.179-1.126,8.482,8.482,0,0,0-2.581.715,8.549,8.549,0,0,0,1.207-2.392,3.231,3.231,0,0,0-.483-3.337,2.243,2.243,0,0,0-.518-.386,17.3,17.3,0,0,1,1.58-1.815.46.46,0,0,0,.134-.349c-.01-.205-.015-.413-.015-.621a12.214,12.214,0,0,1,7-11.011,13.478,13.478,0,0,0,3.828-2.622l1.112-1.113.769.771a12.183,12.183,0,0,0,4.028,2.705,12.117,12.117,0,0,1,7.588,11.27c0,.208-.005.416-.015.621a.459.459,0,0,0,.134.349,16.962,16.962,0,0,1,1.582,1.822,2.24,2.24,0,0,0-.521.386,3.23,3.23,0,0,0-.483,3.337,8.55,8.55,0,0,0,1.207,2.392,8.485,8.485,0,0,0-2.581-.716,3.229,3.229,0,0,0-3.179,1.126c-.958,1.436-.1,3.708,1.964,5.6a8.732,8.732,0,0,0-2.849-.23,3.235,3.235,0,0,0-2.893,1.736c-.615,1.5.493,3.408,2.617,4.832-2.557.015-4.536.99-4.853,2.582a3.231,3.231,0,0,0,1.451,3.043,8.486,8.486,0,0,0,2.324,1.316c-2.417.422-4.189,1.6-4.5,3.076Zm-5.642,0c-.409-.808-1.841-1.409-3.553-1.418-.017-.3-.037-.6-.061-.906,2.576.082,4.744,1.076,5.179,2.323Zm-7.832-16.214a34.543,34.543,0,0,0-3.095-4.625,8.625,8.625,0,0,1,3.606-1.338c.168-.016.329-.024.483-.024a2.1,2.1,0,0,1,1.843.749C142.158-2537.73,140.866-2535.38,138.513-2533.7Zm4.933,2.078c-.413-.921-2.18-1.031-3.99-.267-.148-.307-.3-.612-.459-.914a9.293,9.293,0,0,1,3.235-.647c1.337,0,2.371.4,2.7,1.179a2.391,2.391,0,0,1-.684,2.339,8.582,8.582,0,0,1-3.094,2.257c-.082-.252-.167-.5-.256-.751C142.726-2529.262,143.866-2530.684,143.446-2531.623Zm-1.918,5.174a10.408,10.408,0,0,1,1.679-.143c2.114,0,3.794.7,4.021,1.842a2.39,2.39,0,0,1-1.135,2.156,8.611,8.611,0,0,1-3.481,1.6A34.059,34.059,0,0,0,141.529-2526.449Zm-2.323,8.962a11.035,11.035,0,0,1-4.932-3.5,5.8,5.8,0,0,0-1-1,18.209,18.209,0,0,0,1.16-2.46,8.518,8.518,0,0,1,2.6-4.02.028.028,0,0,0,.009-.009.2.2,0,0,0,.038-.033.256.256,0,0,0,.029-.029.3.3,0,0,0,.027-.035c.009-.011.018-.024.025-.035s.013-.026.019-.04a.317.317,0,0,0,.018-.042.363.363,0,0,0,.011-.042.328.328,0,0,0,.01-.044c0-.013,0-.026,0-.04a.436.436,0,0,0,0-.051s0-.009,0-.013,0-.018-.005-.027-.005-.033-.009-.051-.009-.029-.015-.044-.009-.024-.014-.036a.459.459,0,0,0-.033-.057l-.008-.013s0,0,0,0a.54.54,0,0,0-.053-.062s0,0-.005,0a.442.442,0,0,0-.224-.112l-.016,0a.2.2,0,0,0-.052,0,.323.323,0,0,0-.049,0h-.01a10.191,10.191,0,0,1-4.478-.961,19.058,19.058,0,0,0-2.692-.861,5.8,5.8,0,0,0-.014-1.294,10.984,10.984,0,0,1,1.042-6.016.458.458,0,0,0-.078-.545.457.457,0,0,0-.547-.08,10.986,10.986,0,0,1-6.015,1.042,5.741,5.741,0,0,0-1.418,0,20.1,20.1,0,0,0-.869-2.6,10.059,10.059,0,0,1-.99-4.653.46.46,0,0,0-.282-.464.459.459,0,0,0-.527.13,10.283,10.283,0,0,1-4.1,2.67,22.7,22.7,0,0,0-2.311,1.124,5.718,5.718,0,0,0-.969-.959,10.99,10.99,0,0,1-3.516-4.991.459.459,0,0,0-.441-.331.459.459,0,0,0-.441.331,10.99,10.99,0,0,1-3.516,4.991,5.774,5.774,0,0,0-.951.934,24.554,24.554,0,0,0-2.216-1.078,10.481,10.481,0,0,1-4.136-2.692l-.027-.026c-.012-.011-.023-.024-.036-.035l-.039-.026-.036-.022c-.012-.007-.025-.011-.038-.017s-.029-.013-.045-.018l-.038-.007a.184.184,0,0,0-.05-.009.517.517,0,0,0-.058,0,.131.131,0,0,1-.029,0h0a.461.461,0,0,0-.176.055.656.656,0,0,0-.072.048s0,0,0,0a.156.156,0,0,0-.021.022c-.014.013-.028.027-.04.04s-.017.027-.026.04a.311.311,0,0,0-.023.036c-.007.013-.012.029-.018.042a.307.307,0,0,0-.016.042.331.331,0,0,0-.009.044.345.345,0,0,0-.008.042.448.448,0,0,0,0,.062c0,.009,0,.018,0,.026a12.569,12.569,0,0,1-1.866,7.218c0,.009-.008.018-.012.026a5.789,5.789,0,0,0-1.4,0,10.984,10.984,0,0,1-6.014-1.042.462.462,0,0,0-.547.08.456.456,0,0,0-.076.545,10.927,10.927,0,0,1,1.042,6.016,5.789,5.789,0,0,0-.011,1.323c-.736.208-1.462.473-2.167.733a11.5,11.5,0,0,1-5.005,1.06.463.463,0,0,0-.464.278.46.46,0,0,0,.124.528,10.992,10.992,0,0,1,2.565,3.96,21.581,21.581,0,0,0,1.3,2.493,5.733,5.733,0,0,0-1.071,1.053,11.033,11.033,0,0,1-4.932,3.5H76.832a31.723,31.723,0,0,1,31.682-31.228,31.723,31.723,0,0,1,31.682,31.228Zm-3.115,0a.75.75,0,0,0-.567-.261.762.762,0,0,0-.573.261H134.1a1.23,1.23,0,0,0-1.126-.74,1.231,1.231,0,0,0-1.127.74H131.1a1.867,1.867,0,0,0-1.509-1.349,18.191,18.191,0,0,0-.525-3.271,4.518,4.518,0,0,1,4.483,1.69,11.747,11.747,0,0,0,3.434,2.93Zm-9.027-9.633a5.758,5.758,0,0,0,2.315-3.1,18.764,18.764,0,0,1,2.543.817,14.232,14.232,0,0,0,3.656,1.007,11.85,11.85,0,0,0-2,3.6,17.383,17.383,0,0,1-1.084,2.313,5.792,5.792,0,0,0-3.714-.495A20.977,20.977,0,0,0,127.065-2527.12Zm-8.407-8.432a21.018,21.018,0,0,0-4.186-1.745,5.764,5.764,0,0,0-.523-3.733,22.475,22.475,0,0,1,2.174-1.058,13.274,13.274,0,0,0,3.621-2.083,13.206,13.206,0,0,0,1.057,3.894,19.381,19.381,0,0,1,.828,2.46A5.784,5.784,0,0,0,118.658-2535.552Zm9.97,3.246a4.518,4.518,0,0,1-1.977,4.364,18.18,18.18,0,0,0-1.912-2.655,1.876,1.876,0,0,0-.193-2.425,1.878,1.878,0,0,0-2.425-.192,18.208,18.208,0,0,0-2.652-1.91,4.516,4.516,0,0,1,4.364-1.977,11.913,11.913,0,0,0,5.456-.66A11.888,11.888,0,0,0,128.628-2532.306Zm-23.5-9.735a11.874,11.874,0,0,0,3.39-4.324,11.876,11.876,0,0,0,3.39,4.324,4.518,4.518,0,0,1,1.688,4.486,18.049,18.049,0,0,0-3.226-.525,1.876,1.876,0,0,0-1.852-1.588,1.876,1.876,0,0,0-1.852,1.588,18.049,18.049,0,0,0-3.226.525A4.52,4.52,0,0,1,105.125-2542.041Zm22.373,24.554h-1.43a2.716,2.716,0,0,0-1.885-2.29,2.7,2.7,0,0,0,.892-2,2.71,2.71,0,0,0-2.369-2.684,2.687,2.687,0,0,0,.381-1.378,2.711,2.711,0,0,0-2.708-2.708,2.681,2.681,0,0,0-.931.17,2.74,2.74,0,0,0,.046-.486,2.711,2.711,0,0,0-2.708-2.708,2.709,2.709,0,0,0-1.216.292,2.709,2.709,0,0,0-2.672-2.288,2.7,2.7,0,0,0-1.932.813,2.713,2.713,0,0,0-2.479-1.621,2.711,2.711,0,0,0-2.474,1.612,2.7,2.7,0,0,0-1.923-.8,2.709,2.709,0,0,0-2.672,2.288,2.709,2.709,0,0,0-1.216-.292,2.711,2.711,0,0,0-2.708,2.708,2.716,2.716,0,0,0,.045.483,2.666,2.666,0,0,0-.931-.168,2.711,2.711,0,0,0-2.708,2.708,2.687,2.687,0,0,0,.381,1.378,2.71,2.71,0,0,0-2.369,2.684,2.688,2.688,0,0,0,.9,2.005,2.71,2.71,0,0,0-1.759,1.705,2.607,2.607,0,0,0-.125.583h-1.4a1.879,1.879,0,0,0-1.092-1.248,18.7,18.7,0,0,1,4.631-11.25,1.875,1.875,0,0,0,2.074-.393,1.876,1.876,0,0,0,.39-2.082,17.9,17.9,0,0,1,6.566-3.724,20.014,20.014,0,0,1,4.661-.972,1.877,1.877,0,0,0,1.765,1.241,1.877,1.877,0,0,0,1.765-1.241,20.115,20.115,0,0,1,11.237,4.673,1.876,1.876,0,0,0,.374,2.116,1.877,1.877,0,0,0,2.111.378,20.112,20.112,0,0,1,4.645,11.248,1.883,1.883,0,0,0-1.15,1.254Zm-3.9,0c-.015-.5-.055-1-.118-1.488a1.791,1.791,0,0,1,1.657,1.488Zm-1.472-6.064a1.709,1.709,0,0,1,.237-.018,1.792,1.792,0,0,1,1.789,1.789,1.781,1.781,0,0,1-.891,1.54A15,15,0,0,0,122.129-2523.551Zm-2.645-3.834a1.754,1.754,0,0,1,.894-.245,1.791,1.791,0,0,1,1.789,1.789,1.779,1.779,0,0,1-.566,1.3A15.233,15.233,0,0,0,119.484-2527.385Zm-3.766-2.908a1.778,1.778,0,0,1,1.067-.36,1.792,1.792,0,0,1,1.79,1.789,1.735,1.735,0,0,1-.081.521A15.18,15.18,0,0,0,115.718-2530.294Zm-4.306-1.55a1.779,1.779,0,0,1,1.486-.806,1.791,1.791,0,0,1,1.79,1.789c0,.02,0,.04,0,.059a14.94,14.94,0,0,0-3.272-1.042Zm-4.68-.173a1.792,1.792,0,0,1,1.755-1.442,1.788,1.788,0,0,1,1.748,1.433,15.262,15.262,0,0,0-1.719-.1,15.415,15.415,0,0,0-1.784.108Zm-4.432,1.155a1.791,1.791,0,0,1,1.79-1.789,1.782,1.782,0,0,1,1.493.813,15.13,15.13,0,0,0-3.278,1.053C102.3-2530.808,102.3-2530.835,102.3-2530.861Zm-3.888,2a1.792,1.792,0,0,1,1.79-1.789,1.76,1.76,0,0,1,1.086.375,15.163,15.163,0,0,0-2.787,1.965A1.769,1.769,0,0,1,98.412-2528.865Zm21.409,11.378a1.758,1.758,0,0,0-1.166-1.217,1.744,1.744,0,0,0,.577-1.3,1.753,1.753,0,0,0-1.534-1.738,1.748,1.748,0,0,0,.247-.895,1.757,1.757,0,0,0-1.754-1.753,1.784,1.784,0,0,0-.6.11,1.736,1.736,0,0,0,.03-.313,1.755,1.755,0,0,0-1.754-1.754,1.721,1.721,0,0,0-.787.19,1.754,1.754,0,0,0-1.73-1.482,1.747,1.747,0,0,0-1.251.526,1.757,1.757,0,0,0-1.605-1.049,1.754,1.754,0,0,0-1.6,1.042,1.751,1.751,0,0,0-1.245-.519,1.754,1.754,0,0,0-1.73,1.482,1.721,1.721,0,0,0-.787-.19,1.755,1.755,0,0,0-1.754,1.754,1.737,1.737,0,0,0,.03.313,1.712,1.712,0,0,0-.6-.11,1.757,1.757,0,0,0-1.754,1.753,1.748,1.748,0,0,0,.247.895A1.753,1.753,0,0,0,97.757-2520a1.739,1.739,0,0,0,.58,1.3A1.758,1.758,0,0,0,97.2-2517.6c-.013.035-.021.073-.031.11h-2.82a14.193,14.193,0,0,1,14.168-13.719,14.193,14.193,0,0,1,14.168,13.719Zm-3.312,0a8.017,8.017,0,0,0-7.994-7.549,8.018,8.018,0,0,0-7.994,7.549H99.509a9.029,9.029,0,0,1,9-8.456,9.025,9.025,0,0,1,8.994,8.456Zm-1.942,0a6.078,6.078,0,0,0-6.052-5.612,6.078,6.078,0,0,0-6.052,5.612h-1.021a7.1,7.1,0,0,1,7.073-6.63,7.1,7.1,0,0,1,7.073,6.63Zm-19.748-8.355a1.791,1.791,0,0,1,1.789-1.789,1.766,1.766,0,0,1,.922.261,15.233,15.233,0,0,0-2.114,2.849A1.77,1.77,0,0,1,94.819-2525.841Zm-.96,5.192a2.856,2.856,0,0,0-.144.406,1.772,1.772,0,0,1-.885-1.537,1.792,1.792,0,0,1,1.789-1.789,1.64,1.64,0,0,1,.277.026A14.978,14.978,0,0,0,93.859-2520.649Zm-.43,3.163H91.849a1.646,1.646,0,0,1,.068-.282,1.819,1.819,0,0,1,1.188-1.14,1.779,1.779,0,0,1,.443-.084c-.065.495-.105,1-.12,1.506Zm4.207-17.644a21.284,21.284,0,0,0-2.7,1.93,1.875,1.875,0,0,0-2.461.168,1.874,1.874,0,0,0-.164,2.463,21.381,21.381,0,0,0-1.873,2.615,4.509,4.509,0,0,1-1.959-4.351,11.881,11.881,0,0,0-.661-5.455,11.883,11.883,0,0,0,5.456.66A4.52,4.52,0,0,1,97.636-2535.13Zm4.922-2.167a21.078,21.078,0,0,0-4.13,1.711,5.785,5.785,0,0,0-2.927-2.226,14.074,14.074,0,0,0,1.9-6.334,13.841,13.841,0,0,0,3.619,2.08c.69.3,1.4.625,2.08,1.007A5.758,5.758,0,0,0,102.558-2537.3Zm-17.865,14.773a20.711,20.711,0,0,1-1.248-2.4,15,15,0,0,0-1.994-3.452,15.269,15.269,0,0,0,4.26-1.124c.664-.246,1.348-.5,2.028-.691a5.741,5.741,0,0,0,2.246,3.025,21.011,21.011,0,0,0-1.736,4.17,5.754,5.754,0,0,0-3.555.468Zm2.777,3.662a1.877,1.877,0,0,0-1.574,1.376h-.711a1.242,1.242,0,0,0-1.145-.758,1.234,1.234,0,0,0-1.136.758h-.833a.756.756,0,0,0-.583-.278.757.757,0,0,0-.587.278H80.12a11.725,11.725,0,0,0,3.438-2.93,4.507,4.507,0,0,1,4.452-1.694A21.017,21.017,0,0,0,87.47-2518.862Zm-12.825,2.295h83.743c.023,0,.046.006.07.006s.047,0,.07-.006h1.582c.023,0,.046.006.07.006s.047,0,.07-.006h31.683l.113.006h4.734l.07-.006h45.323c.023,0,.046.006.07.006s.047,0,.07-.006h26.181c.023,0,.046.006.07.006s.047,0,.07-.006h1.8c.023,0,.046.006.07.006h11.225c.024,0,.046,0,.068-.006h1.8c.022,0,.046.006.071.006s.046,0,.068-.006h26.182c.022,0,.046.006.071.006s.046,0,.068-.006H486.024v-.919h-1.573c-.2-1.555-2.023-2.816-4.536-3.253a8.581,8.581,0,0,0,2.326-1.316,3.236,3.236,0,0,0,1.451-3.043c-.338-1.694-2.553-2.692-5.349-2.573a8.593,8.593,0,0,0,2.175-1.853,3.23,3.23,0,0,0,.819-3.271c-.625-1.5-2.758-2.063-5.267-1.568,1.8-1.818,2.507-3.907,1.606-5.256a3.23,3.23,0,0,0-3.178-1.126,8.491,8.491,0,0,0-2.582.716,8.591,8.591,0,0,0,1.208-2.392,3.232,3.232,0,0,0-.484-3.337,2.3,2.3,0,0,0-.66-.459,17.2,17.2,0,0,1,1.537-1.76.454.454,0,0,0,.132-.349c-.009-.206-.013-.413-.013-.621a12.112,12.112,0,0,1,7.586-11.268,12.165,12.165,0,0,0,4.028-2.708l.771-.768,0,0v-1.628l-.026,0a.646.646,0,0,0-.645.647.629.629,0,0,0,.051.25.642.642,0,0,0-.409-.15.647.647,0,0,0-.647.647.638.638,0,0,0,.132.386.641.641,0,0,0-.42-.159.646.646,0,0,0-.645.647.642.642,0,0,0,.119.373.64.64,0,0,0-.435-.172.646.646,0,0,0-.647.645.631.631,0,0,0,.055.258.645.645,0,0,0-.515-.258.646.646,0,0,0-.645.647.649.649,0,0,0,.055.261h0a.643.643,0,0,0-.57-.347.646.646,0,0,0-.645.645.7.7,0,0,0,.02.155.647.647,0,0,0-.523-.269.646.646,0,0,0-.645.647.638.638,0,0,0,.055.259.645.645,0,0,0-.515-.259.645.645,0,0,0-.647.645.636.636,0,0,0,.068.281.644.644,0,0,0-.413-.153.646.646,0,0,0-.645.647.635.635,0,0,0,.082.307.647.647,0,0,0-.411-.152.647.647,0,0,0-.647.647.642.642,0,0,0,.155.415.635.635,0,0,0-.34-.1.645.645,0,0,0-.647.645.644.644,0,0,0,.181.447.641.641,0,0,0-.415-.155.646.646,0,0,0-.645.647.649.649,0,0,0,.283.534.626.626,0,0,0-.192-.033.646.646,0,0,0-.647.645.65.65,0,0,0,.316.554h0a.623.623,0,0,0-.28-.069.646.646,0,0,0-.647.647.644.644,0,0,0,.38.585.671.671,0,0,0-.221-.04.646.646,0,0,0-.647.645.642.642,0,0,0,.386.589.646.646,0,0,0-.629.645.645.645,0,0,0,.351.572.643.643,0,0,0-.6.641.646.646,0,0,0,.444.612.645.645,0,0,0-.508.63.649.649,0,0,0,.137.4.643.643,0,0,0-.468.616.64.64,0,0,0,.261.514s0,0,0,.007a.645.645,0,0,0-.406-.148.646.646,0,0,0-.645.647.634.634,0,0,0,.174.438.648.648,0,0,0-.311-.082.643.643,0,0,0-.579.364c-.13.018-.263.038-.4.066a19.03,19.03,0,0,1,1.855-2.354.46.46,0,0,0,.124-.31,13.976,13.976,0,0,1,8.746-12.9,10.326,10.326,0,0,0,3.414-2.3l1.093-1.093a1.39,1.39,0,0,1,.989-.409h0v-.918h0a2.3,2.3,0,0,0-1.639.678l-1.093,1.094a9.441,9.441,0,0,1-3.11,2.1,14.89,14.89,0,0,0-9.318,13.571,20.059,20.059,0,0,0-2.438,3.309,9.222,9.222,0,0,0-1.513.875,8.565,8.565,0,0,0,.716-2.582,3.236,3.236,0,0,0-1.126-3.18c-1.436-.958-3.708-.1-5.6,1.963a8.733,8.733,0,0,0,.23-2.849,3.239,3.239,0,0,0-1.736-2.893c-1.5-.614-3.408.495-4.834,2.617-.013-2.557-.989-4.534-2.58-4.852a3.233,3.233,0,0,0-3.046,1.451,8.532,8.532,0,0,0-1.316,2.323c-.464-2.668-1.853-4.556-3.54-4.556s-3.079,1.888-3.542,4.556a8.533,8.533,0,0,0-1.316-2.323,3.231,3.231,0,0,0-3.046-1.451c-1.692.338-2.69,2.553-2.573,5.349a8.683,8.683,0,0,0-1.851-2.177,3.238,3.238,0,0,0-3.273-.82c-1.5.627-2.061,2.759-1.568,5.27-1.818-1.8-3.907-2.507-5.256-1.608a3.236,3.236,0,0,0-1.126,3.18,8.569,8.569,0,0,0,.716,2.582,9.12,9.12,0,0,0-1.769-.985,20.015,20.015,0,0,0-2.367-3.189,14.893,14.893,0,0,0-9.318-13.571,9.4,9.4,0,0,1-3.11-2.1l-1.093-1.093a2.3,2.3,0,0,0-1.639-.678,2.3,2.3,0,0,0-1.639.678l-1.436,1.438a10.77,10.77,0,0,1-3.046,2.072,15.017,15.017,0,0,0-8.593,13.255,19.994,19.994,0,0,0-2.359,3.2,9.109,9.109,0,0,0-1.747.976,8.571,8.571,0,0,0,.716-2.582,3.241,3.241,0,0,0-1.126-3.18c-1.438-.958-3.708-.1-5.6,1.963a8.663,8.663,0,0,0,.227-2.849,3.233,3.233,0,0,0-1.734-2.893c-1.5-.614-3.408.495-4.834,2.617-.013-2.557-.989-4.534-2.58-4.852a3.233,3.233,0,0,0-3.046,1.451,8.533,8.533,0,0,0-1.316,2.323c-.464-2.668-1.855-4.556-3.542-4.556s-3.076,1.889-3.54,4.556a8.535,8.535,0,0,0-1.316-2.323,3.233,3.233,0,0,0-3.046-1.451c-1.692.338-2.69,2.553-2.573,5.349a8.686,8.686,0,0,0-1.851-2.177,3.239,3.239,0,0,0-3.273-.82c-1.5.627-2.061,2.759-1.568,5.27-1.818-1.8-3.907-2.507-5.256-1.608a3.236,3.236,0,0,0-1.126,3.18,8.572,8.572,0,0,0,.716,2.582,9.148,9.148,0,0,0-1.769-.985,20.05,20.05,0,0,0-2.367-3.189A14.893,14.893,0,0,0,324-2562.781a9.383,9.383,0,0,1-3.11-2.1l-1.093-1.093a2.3,2.3,0,0,0-1.639-.678,2.3,2.3,0,0,0-1.639.678l-1.436,1.438a10.769,10.769,0,0,1-3.046,2.072,15.017,15.017,0,0,0-8.593,13.255,19.89,19.89,0,0,0-2.379,3.229,8.809,8.809,0,0,0-2.125,1.119,8.567,8.567,0,0,0,.716-2.582,3.236,3.236,0,0,0-1.126-3.18c-1.436-.958-3.708-.095-5.6,1.963a8.725,8.725,0,0,0,.23-2.849,3.231,3.231,0,0,0-1.736-2.891c-1.5-.616-3.408.492-4.832,2.615-.015-2.558-.992-4.534-2.582-4.852a3.235,3.235,0,0,0-3.046,1.451,8.5,8.5,0,0,0-1.314,2.323c-.466-2.665-1.855-4.554-3.543-4.554s-3.078,1.888-3.542,4.554a8.557,8.557,0,0,0-1.316-2.323,3.233,3.233,0,0,0-3.045-1.451c-1.693.338-2.69,2.553-2.572,5.349a8.663,8.663,0,0,0-1.852-2.177,3.242,3.242,0,0,0-3.272-.82c-1.5.627-2.061,2.761-1.567,5.269-1.818-1.8-3.908-2.506-5.257-1.608a3.235,3.235,0,0,0-1.127,3.18,8.551,8.551,0,0,0,.716,2.582,9.149,9.149,0,0,0-1.77-.985,20.085,20.085,0,0,0-2.367-3.189,14.9,14.9,0,0,0-9.318-13.572,9.415,9.415,0,0,1-3.109-2.1l-1.094-1.094a2.3,2.3,0,0,0-1.639-.68,2.3,2.3,0,0,0-1.638.68l-1.436,1.436a10.764,10.764,0,0,1-3.045,2.072,15.016,15.016,0,0,0-8.594,13.256,19.911,19.911,0,0,0-2.359,3.2,9.174,9.174,0,0,0-1.748.976,8.55,8.55,0,0,0,.716-2.582,3.236,3.236,0,0,0-1.127-3.18c-1.436-.958-3.708-.094-5.6,1.964a8.649,8.649,0,0,0,.229-2.849,3.229,3.229,0,0,0-1.734-2.891c-1.5-.616-3.409.492-4.834,2.615-.014-2.558-.99-4.534-2.581-4.852a3.232,3.232,0,0,0-3.045,1.451,8.549,8.549,0,0,0-1.316,2.323c-.464-2.665-1.854-4.554-3.542-4.554s-3.078,1.889-3.542,4.554a8.546,8.546,0,0,0-1.316-2.323,3.232,3.232,0,0,0-3.045-1.451c-1.692.338-2.69,2.553-2.572,5.349a8.662,8.662,0,0,0-1.852-2.177,3.241,3.241,0,0,0-3.272-.82c-1.5.627-2.061,2.76-1.568,5.269-1.818-1.8-3.908-2.506-5.257-1.608a3.236,3.236,0,0,0-1.127,3.18,8.551,8.551,0,0,0,.716,2.582,9.137,9.137,0,0,0-1.77-.985,20.083,20.083,0,0,0-2.367-3.189,14.9,14.9,0,0,0-9.318-13.572,9.417,9.417,0,0,1-3.11-2.1l-1.093-1.094a2.3,2.3,0,0,0-1.639-.68,2.3,2.3,0,0,0-1.638.68l-1.436,1.436a10.758,10.758,0,0,1-3.045,2.072,15.016,15.016,0,0,0-8.593,13.256,20,20,0,0,0-2.344,3.169,9.2,9.2,0,0,0-1.792.994,8.513,8.513,0,0,0,.716-2.58,3.235,3.235,0,0,0-1.127-3.18c-1.436-.958-3.708-.1-5.6,1.964a8.643,8.643,0,0,0,.229-2.849,3.236,3.236,0,0,0-1.734-2.893c-1.5-.614-3.409.494-4.834,2.617-.014-2.557-.99-4.534-2.581-4.852a3.232,3.232,0,0,0-3.045,1.451,8.51,8.51,0,0,0-1.316,2.323c-.464-2.668-1.855-4.556-3.542-4.556s-3.078,1.888-3.542,4.556a8.516,8.516,0,0,0-1.316-2.323,3.233,3.233,0,0,0-3.045-1.451c-1.692.338-2.69,2.553-2.572,5.349a8.668,8.668,0,0,0-1.852-2.177,3.238,3.238,0,0,0-3.272-.82c-1.5.627-2.061,2.761-1.567,5.27-1.818-1.8-3.907-2.507-5.257-1.608a3.236,3.236,0,0,0-1.127,3.18,8.52,8.52,0,0,0,.716,2.58,9.1,9.1,0,0,0-1.85-1.016,20.133,20.133,0,0,0-2.36-3.176,14.889,14.889,0,0,0-9.318-13.571,9.4,9.4,0,0,1-3.109-2.1l-1.094-1.093a2.3,2.3,0,0,0-1.638-.678h0v.919h0a1.393,1.393,0,0,1,.989.409l1.094,1.093a10.318,10.318,0,0,0,3.413,2.3,13.979,13.979,0,0,1,8.747,12.9.458.458,0,0,0,.122.309,19.287,19.287,0,0,1,1.83,2.314c-.129-.02-.255-.033-.379-.042a.646.646,0,0,0-.571-.349.624.624,0,0,0-.311.084.645.645,0,0,0,.175-.439.646.646,0,0,0-.646-.647.642.642,0,0,0-.405.148l0-.006a.64.64,0,0,0,.259-.512.643.643,0,0,0-.468-.619.642.642,0,0,0,.137-.4.644.644,0,0,0-.509-.63.645.645,0,0,0,.445-.612.644.644,0,0,0-.6-.641.645.645,0,0,0,.351-.572.647.647,0,0,0-.629-.645.642.642,0,0,0,.385-.589.646.646,0,0,0-.646-.645.62.62,0,0,0-.222.042.646.646,0,0,0,.379-.587.645.645,0,0,0-.646-.645.635.635,0,0,0-.282.066h0a.644.644,0,0,0,.316-.552.646.646,0,0,0-.646-.647.627.627,0,0,0-.193.033.642.642,0,0,0,.284-.534.647.647,0,0,0-.646-.647.645.645,0,0,0-.416.157.646.646,0,0,0,.181-.448.646.646,0,0,0-.646-.645.645.645,0,0,0-.342.1.639.639,0,0,0,.155-.415.646.646,0,0,0-.646-.647.643.643,0,0,0-.411.153.635.635,0,0,0,.081-.307.646.646,0,0,0-.646-.645.64.64,0,0,0-.411.15.633.633,0,0,0,.067-.281.646.646,0,0,0-.646-.645.64.64,0,0,0-.514.258.65.65,0,0,0,.055-.258.646.646,0,0,0-.646-.647.647.647,0,0,0-.523.27.625.625,0,0,0,.021-.155.646.646,0,0,0-.646-.645.643.643,0,0,0-.57.347h0a.643.643,0,0,0,.055-.261.644.644,0,0,0-.646-.645.64.64,0,0,0-.514.259.649.649,0,0,0,.055-.259.646.646,0,0,0-.646-.647.641.641,0,0,0-.436.173.645.645,0,0,0,.12-.374.646.646,0,0,0-.646-.645.632.632,0,0,0-.42.159.641.641,0,0,0,.133-.388.646.646,0,0,0-.646-.647.636.636,0,0,0-.409.15.642.642,0,0,0,.05-.25.647.647,0,0,0-.646-.647.1.1,0,0,0-.025,0v1.625l0,0,.769.769a12.192,12.192,0,0,0,4.028,2.708A12.112,12.112,0,0,1,78.7-2548.79c0,.21-.005.415-.015.623a.455.455,0,0,0,.135.347,17.248,17.248,0,0,1,1.614,1.866,2.243,2.243,0,0,0-.479.364,3.231,3.231,0,0,0-.483,3.337,8.549,8.549,0,0,0,1.207,2.392,8.482,8.482,0,0,0-2.581-.715,3.229,3.229,0,0,0-3.179,1.126c-.958,1.436-.1,3.708,1.964,5.6a8.673,8.673,0,0,0-2.849-.229,3.233,3.233,0,0,0-2.893,1.734c-.615,1.5.493,3.41,2.617,4.834-2.557.013-4.535.99-4.853,2.582a3.23,3.23,0,0,0,1.451,3.043,8.543,8.543,0,0,0,2.324,1.316c-2.421.422-4.195,1.605-4.5,3.083H66.289v.919h8.356" transform="translate(-66.289 2566.658)" fill="#3c2415"/></g></g></svg>