<svg xmlns="http://www.w3.org/2000/svg" width="21.262" height="136.78" viewBox="0 0 21.262 136.78"><g transform="translate(0 136.78) rotate(-90)"><path d="M135.8.3h-.006a.992.992,0,0,1-1.961,0H133.8a.991.991,0,0,1-1.96,0h-.019a.992.992,0,0,1-1.961,0h-.026a.992.992,0,0,1-1.961,0h-.025a.992.992,0,0,1-1.961,0h-.026a.991.991,0,0,1-1.96,0H123.9a.992.992,0,0,1-1.961,0h-.026a.991.991,0,0,1-1.96,0h-.019a.992.992,0,0,1-1.961,0h-.026a.992.992,0,0,1-1.961,0h-.03a.992.992,0,0,1-1.961,0h-.026a.991.991,0,0,1-1.96,0H112a.992.992,0,0,1-1.961,0h-.026a.991.991,0,0,1-1.96,0h-.019a.991.991,0,0,1-1.96,0h-.026a.992.992,0,0,1-1.961,0h-.025A.992.992,0,0,1,102.1.3h-.026a.992.992,0,0,1-1.961,0h-.005a.992.992,0,0,1-1.961,0h-.026a.991.991,0,0,1-1.96,0h-.019a.991.991,0,0,1-1.96,0h-.025a.992.992,0,0,1-1.961,0h-.026a.992.992,0,0,1-1.961,0H90.2a.992.992,0,0,1-1.961,0h-.026a.991.991,0,0,1-1.96,0h-.019a.991.991,0,0,1-1.96,0h-.026a.992.992,0,0,1-1.961,0h-.03A.992.992,0,0,1,80.3.3h-.026A.992.992,0,0,1,78.31.3H78.3a.992.992,0,0,1-1.961,0h-.026a.991.991,0,0,1-1.96,0h-.019a.991.991,0,0,1-1.96,0h-.026A.992.992,0,0,1,70.39.3h-.025A.992.992,0,0,1,68.4.3h-.026a.992.992,0,0,1-1.961,0h-.006a.992.992,0,0,1-1.961,0h-.026a.991.991,0,0,1-1.961,0h-.019a.992.992,0,0,1-1.961,0h-.026A.992.992,0,0,1,58.5.3h-.029a.992.992,0,0,1-1.961,0h-.026A.992.992,0,0,1,54.52.3h-.006a.992.992,0,0,1-1.961,0h-.026a.992.992,0,0,1-1.961,0h-.019a.992.992,0,0,1-1.961,0h-.026A.992.992,0,0,1,46.6.3h-.025a.992.992,0,0,1-1.961,0h-.026a.992.992,0,0,1-1.961,0h-.006A.992.992,0,0,1,40.66.3h-.026a.992.992,0,0,1-1.961,0h-.019a.992.992,0,0,1-1.961,0h-.026a.992.992,0,0,1-1.961,0h-.029a.992.992,0,0,1-1.961,0H32.69A.992.992,0,0,1,30.73.3h-.006a.992.992,0,0,1-1.961,0h-.026a.992.992,0,0,1-1.961,0h-.019A.992.992,0,0,1,24.8.3h-.026A.992.992,0,0,1,22.81.3h-.025a.992.992,0,0,1-1.961,0H20.8a.992.992,0,0,1-1.961,0h-.006A.992.992,0,0,1,16.87.3h-.026a.992.992,0,0,1-1.961,0h-.019A.991.991,0,0,1,12.9.3h-.026a.992.992,0,0,1-1.961,0h-.029A.992.992,0,0,1,8.926.3H8.9A.992.992,0,0,1,6.939.3H6.934A.992.992,0,0,1,4.973.3H4.947A.992.992,0,0,1,2.986.3H2.967A.992.992,0,0,1,1.007.3H.981A.993.993,0,0,1,0,1.143V0H136.78V1.142h0A.992.992,0,0,1,135.8.3" transform="translate(0 0)" fill="#3c2415"/><path d="M0,.993V0A.992.992,0,0,1,.981.847h.025a.991.991,0,0,1,1.962,0h.018a.991.991,0,0,1,1.962,0h.025a.992.992,0,0,1,1.962,0h0A.992.992,0,0,1,8.9.847h.025a.992.992,0,0,1,1.962,0h.028a.992.992,0,0,1,1.962,0H12.9a.991.991,0,0,1,1.962,0h.018a.991.991,0,0,1,1.962,0h.025a.992.992,0,0,1,1.962,0h0a.992.992,0,0,1,1.962,0h.025a.992.992,0,0,1,1.962,0h.024a.992.992,0,0,1,1.962,0H24.8a.991.991,0,0,1,1.962,0h.018a.991.991,0,0,1,1.962,0h.025a.992.992,0,0,1,1.962,0h0a.992.992,0,0,1,1.962,0h.025a.992.992,0,0,1,1.962,0h.028a.992.992,0,0,1,1.962,0h.025a.991.991,0,0,1,1.962,0h.018a.991.991,0,0,1,1.962,0h.025a.992.992,0,0,1,1.962,0h0a.992.992,0,0,1,1.962,0h.025a.992.992,0,0,1,1.962,0H46.6a.992.992,0,0,1,1.962,0h.025a.991.991,0,0,1,1.962,0h.018a.991.991,0,0,1,1.962,0h.025a.992.992,0,0,1,1.962,0h0a.992.992,0,0,1,1.962,0h.025a.992.992,0,0,1,1.962,0H58.5a.992.992,0,0,1,1.962,0h.025a.991.991,0,0,1,1.962,0h.018a.991.991,0,0,1,1.962,0h.025a.992.992,0,0,1,1.962,0h0a.992.992,0,0,1,1.962,0H68.4a.992.992,0,0,1,1.963,0h.024a.992.992,0,0,1,1.963,0h.024a.992.992,0,0,1,1.962,0h.018a.992.992,0,0,1,1.962,0h.024a.992.992,0,0,1,1.963,0h0a.992.992,0,0,1,1.962,0H80.3a.992.992,0,0,1,1.963,0h.028a.992.992,0,0,1,1.963,0h.024a.992.992,0,0,1,1.962,0h.018a.992.992,0,0,1,1.962,0h.024a.992.992,0,0,1,1.963,0h0a.992.992,0,0,1,1.962,0h.024a.992.992,0,0,1,1.963,0h.024a.992.992,0,0,1,1.962,0h.018a.992.992,0,0,1,1.962,0h.024a.992.992,0,0,1,1.963,0h0a.992.992,0,0,1,1.963,0h.024a.992.992,0,0,1,1.963,0h.024a.992.992,0,0,1,1.963,0h.024a.992.992,0,0,1,1.962,0h.018a.992.992,0,0,1,1.962,0h.025a.992.992,0,0,1,1.962,0h0a.992.992,0,0,1,1.962,0h.024a.992.992,0,0,1,1.963,0h.028a.992.992,0,0,1,1.963,0h.024a.992.992,0,0,1,1.962,0h.018a.992.992,0,0,1,1.962,0h.025a.992.992,0,0,1,1.962,0h0a.992.992,0,0,1,1.962,0h.024a.992.992,0,0,1,1.963,0h.024a.992.992,0,0,1,1.963,0h.024a.992.992,0,0,1,1.962,0h.018a.992.992,0,0,1,1.962,0h.025a.992.992,0,0,1,1.962,0h0A.992.992,0,0,1,136.777,0h0V1.146H0V.993" transform="translate(0 2.595)" fill="#3c2415"/><path d="M1.514,1.966a.779.779,0,0,0-.37.7c.074.371.621.6,1.31.6A3.375,3.375,0,0,0,3,3.222a11.1,11.1,0,0,1-.353-1.778A2.807,2.807,0,0,0,1.514,1.966ZM2.588.735A1.376,1.376,0,0,1,1.462.3H.922c.142.407.849.73,1.688.757C2.6.952,2.594.843,2.588.735Zm-.732,4.3a.78.78,0,0,0,.7.381,1.922,1.922,0,0,0,.206.011,3,3,0,0,0,1.029-.2c-.051-.1-.1-.2-.147-.3-.587.246-1.16.209-1.294-.09s.235-.77.832-1.042c-.028-.081-.055-.163-.081-.245C2.24,3.925,1.677,4.592,1.857,5.03Zm1.2,2.263a.779.779,0,0,0,.758.236,2.81,2.81,0,0,0,1.175-.436A11.254,11.254,0,0,1,3.985,5.586C3.218,6.132,2.8,6.9,3.06,7.293ZM4.581,8.458a.779.779,0,0,0,.082.79.561.561,0,0,0,.411.145,1.322,1.322,0,0,0,.379-.063,2.809,2.809,0,0,0,1.067-.658c-.088-.075-.175-.15-.26-.228-.46.463-1.021.65-1.26.417s-.063-.811.4-1.286c-.054-.061-.108-.122-.161-.185A2.807,2.807,0,0,0,4.581,8.458Zm2.038,2.394a.5.5,0,0,0,.281.078,2.123,2.123,0,0,0,1.427-1A11.231,11.231,0,0,1,6.82,8.919a2.806,2.806,0,0,0-.436,1.175A.78.78,0,0,0,6.619,10.852Zm2.173,1.166a.455.455,0,0,0,.177.034.975.975,0,0,0,.585-.258,2.8,2.8,0,0,0,.736-1.008c-.094-.03-.188-.063-.282-.1-.258.6-.715.987-1.024.857s-.354-.724-.1-1.331c-.088-.043-.176-.087-.263-.132C8.282,10.964,8.355,11.835,8.792,12.018Zm4.968-.979A10.9,10.9,0,0,0,24.646.3h-.262A10.625,10.625,0,0,1,3.136.3H2.875A10.9,10.9,0,0,0,13.76,11.039Zm-2.517,1.728a.781.781,0,0,0,.7-.369,2.8,2.8,0,0,0,.521-1.134,11.07,11.07,0,0,1-1.778-.354C10.535,11.837,10.779,12.675,11.244,12.767Zm2.517.249c.474,0,.877-.774.907-1.714-.11.009-.22.017-.33.022h.035c0,.663-.274,1.2-.612,1.2s-.612-.538-.612-1.2h.035c-.111-.006-.221-.014-.33-.022C12.883,12.242,13.286,13.016,13.76,13.016Zm1.814-.618a.865.865,0,0,0,.617.378.423.423,0,0,0,.085-.009c.464-.092.708-.93.554-1.858a11.069,11.069,0,0,1-1.778.354A2.8,2.8,0,0,0,15.574,12.4Zm2.889-.309a.461.461,0,0,0,.175-.033.781.781,0,0,0,.381-.7,2.8,2.8,0,0,0-.193-1.234c-.086.043-.173.086-.26.128.248.6.2,1.195-.106,1.324s-.767-.254-1.025-.859c-.095.033-.19.066-.285.1C17.486,11.564,18.037,12.089,18.463,12.089Zm2.158-1.158a.5.5,0,0,0,.281-.078.78.78,0,0,0,.235-.759A2.806,2.806,0,0,0,20.7,8.919a11.233,11.233,0,0,1-1.507,1.008A2.123,2.123,0,0,0,20.621,10.931Zm1.446-1.6a1.322,1.322,0,0,0,.379.063.561.561,0,0,0,.411-.145.779.779,0,0,0,.083-.79,2.807,2.807,0,0,0-.658-1.067c-.061.072-.123.143-.186.213.462.475.641,1.051.4,1.286s-.8.045-1.263-.42c-.076.069-.154.136-.232.2A2.81,2.81,0,0,0,22.067,9.331Zm.741,1.09a.149.149,0,0,1,.04.1,4.593,4.593,0,0,0,2.629,4.109,3.787,3.787,0,0,1,1.077.734l.468.468a.455.455,0,0,0,.644,0l.356-.356a3.363,3.363,0,0,1,1.112-.749,4.554,4.554,0,0,0,2.85-4.205.149.149,0,0,1,.04-.1,6.3,6.3,0,0,0,.594-.751c-.042.007-.084.012-.125.015a.206.206,0,0,1-.285.082.21.21,0,0,1-.286.306h0a.209.209,0,0,1-.068.369.208.208,0,0,1,.045.128.21.21,0,0,1-.166.206.209.209,0,0,1-.051.408.209.209,0,0,1-.091.4.21.21,0,0,1-.085.4.2.2,0,0,1-.072-.014.21.21,0,1,1-.179.38h0a.21.21,0,0,1-.107.39.224.224,0,0,1-.063-.01.21.21,0,1,1-.253.334.21.21,0,0,1-.263.324.209.209,0,0,1-.294.3.207.207,0,0,1,.026.1.21.21,0,0,1-.21.21.206.206,0,0,1-.134-.05.209.209,0,0,1-.189.3.209.209,0,0,1-.167-.084.207.207,0,0,1,.018.084.21.21,0,0,1-.381.122.208.208,0,0,1-.2.261.209.209,0,0,1-.186-.114h0a.21.21,0,0,1-.36.211.21.21,0,0,1-.193.3.209.209,0,0,1-.142-.056.21.21,0,0,1-.308.28.209.209,0,0,1-.3.288.213.213,0,0,1,.016.082.21.21,0,0,1-.421,0c0-.006,0-.012,0-.019a.2.2,0,0,1-.089.019.21.21,0,0,1-.161-.34.207.207,0,0,1-.138.049.21.21,0,0,1-.206-.215.207.207,0,0,1,.041-.12.21.21,0,0,1-.33-.245.21.21,0,0,1-.346-.235h0a.21.21,0,0,1-.4-.138.21.21,0,0,1-.359-.214.21.21,0,0,1-.375-.134.208.208,0,0,1,.024-.091.209.209,0,0,1-.341-.168.207.207,0,0,1,.028-.1.209.209,0,0,1-.341-.168.209.209,0,0,1,.053-.135.21.21,0,0,1-.256-.329.2.2,0,0,1-.136.048.211.211,0,0,1-.11-.387.206.206,0,0,1-.063.01.21.21,0,0,1-.105-.39.21.21,0,0,1-.294-.2.212.212,0,0,1,.127-.189.2.2,0,0,1-.072.012.21.21,0,0,1-.077-.4.21.21,0,0,1-.083-.4.209.209,0,0,1-.043-.409.21.21,0,0,1-.162-.209.206.206,0,0,1,.047-.127.209.209,0,0,1-.088-.348l0-.005a.208.208,0,0,1-.1.026.211.211,0,0,1-.206-.215.2.2,0,0,1,.053-.132l0-.006a.2.2,0,0,1-.091.021.207.207,0,0,1-.127-.047,1.583,1.583,0,0,1-.186-.018,6.18,6.18,0,0,0,.588.747Zm11.025-1.75c-.088-.075-.175-.15-.26-.228-.46.463-1.021.65-1.26.417s-.063-.812.4-1.286c-.054-.061-.108-.123-.161-.185a2.8,2.8,0,0,0-.658,1.067.779.779,0,0,0,.082.789.562.562,0,0,0,.411.145,1.326,1.326,0,0,0,.379-.063A2.81,2.81,0,0,0,33.833,8.671Zm.1,2.179a.5.5,0,0,0,.281.078,2.122,2.122,0,0,0,1.427-1,11.216,11.216,0,0,1-1.507-1.008,2.806,2.806,0,0,0-.436,1.175A.781.781,0,0,0,33.931,10.85ZM36.1,12.016a.455.455,0,0,0,.177.035.975.975,0,0,0,.585-.258,2.807,2.807,0,0,0,.736-1.008q-.142-.046-.282-.1c-.258.6-.715.987-1.024.857s-.354-.724-.1-1.331c-.088-.043-.176-.088-.263-.132C35.595,10.962,35.667,11.833,36.1,12.016Zm4.968-.979A10.9,10.9,0,0,0,51.957.3h-.262A10.624,10.624,0,0,1,30.449.3h-.262A10.9,10.9,0,0,0,41.073,11.037Zm-2.517,1.728a.779.779,0,0,0,.7-.37,2.8,2.8,0,0,0,.521-1.134A11.006,11.006,0,0,1,38,10.908c-.154.928.09,1.765.554,1.857Zm2.517.249c.474,0,.877-.774.907-1.714q-.165.013-.331.022h.035c0,.664-.274,1.2-.612,1.2s-.612-.538-.612-1.2H40.5q-.166-.009-.33-.022C40.2,12.24,40.6,13.014,41.073,13.014Zm1.814-.619a.864.864,0,0,0,.617.378.423.423,0,0,0,.085-.009c.464-.093.708-.93.554-1.857a11.076,11.076,0,0,1-1.778.353A2.8,2.8,0,0,0,42.887,12.4Zm2.889-.309a.463.463,0,0,0,.175-.033.78.78,0,0,0,.381-.7,2.806,2.806,0,0,0-.193-1.235c-.086.044-.173.087-.26.129.248.6.2,1.195-.106,1.324s-.767-.254-1.025-.859c-.095.033-.19.065-.286.1C44.8,11.561,45.349,12.087,45.775,12.087Zm2.158-1.158a.5.5,0,0,0,.281-.078.78.78,0,0,0,.235-.759,2.806,2.806,0,0,0-.436-1.175,11.237,11.237,0,0,1-1.506,1.008,2.122,2.122,0,0,0,1.427,1Zm1.446-1.6a1.327,1.327,0,0,0,.379.063.562.562,0,0,0,.411-.145.779.779,0,0,0,.082-.789,2.811,2.811,0,0,0-.658-1.068c-.061.072-.123.143-.186.213.463.475.642,1.051.4,1.287s-.8.045-1.264-.42q-.115.1-.232.2a2.806,2.806,0,0,0,1.068.659Zm.731,1.092a.149.149,0,0,1,.04.1A4.593,4.593,0,0,0,52.78,14.63a3.784,3.784,0,0,1,1.077.734l.468.468a.455.455,0,0,0,.644,0l.356-.356a3.362,3.362,0,0,1,1.112-.749,4.554,4.554,0,0,0,2.85-4.205.149.149,0,0,1,.04-.1,6.29,6.29,0,0,0,.594-.751c-.042.007-.084.012-.125.015a.206.206,0,0,1-.285.082.21.21,0,0,1-.286.306h0a.209.209,0,0,1-.068.369.207.207,0,0,1,.045.128.21.21,0,0,1-.166.206.209.209,0,0,1-.051.408.209.209,0,0,1-.091.4.21.21,0,0,1-.085.4.2.2,0,0,1-.072-.014.21.21,0,1,1-.179.38h0a.21.21,0,0,1-.108.39.225.225,0,0,1-.063-.01.21.21,0,1,1-.253.334.21.21,0,0,1-.263.324.209.209,0,0,1-.294.3.207.207,0,0,1,.026.1.21.21,0,0,1-.21.21.206.206,0,0,1-.134-.05.209.209,0,0,1-.189.3.209.209,0,0,1-.167-.084.21.21,0,0,1-.363.207.214.214,0,0,1,.007.05.21.21,0,0,1-.4.1h0a.21.21,0,0,1-.36.211.21.21,0,0,1-.193.3.209.209,0,0,1-.142-.056.21.21,0,0,1-.308.28.209.209,0,0,1-.3.288.213.213,0,0,1,.016.082.21.21,0,0,1-.421,0c0-.007,0-.012,0-.019a.205.205,0,0,1-.089.019.21.21,0,0,1-.161-.34.207.207,0,0,1-.138.049.21.21,0,0,1-.206-.215.207.207,0,0,1,.041-.12.21.21,0,0,1-.33-.245.21.21,0,0,1-.346-.235h0a.21.21,0,0,1-.4-.088.217.217,0,0,1,.008-.05.21.21,0,0,1-.359-.214.21.21,0,0,1-.375-.134.207.207,0,0,1,.024-.091.209.209,0,0,1-.341-.168.207.207,0,0,1,.028-.1.209.209,0,0,1-.288-.3.21.21,0,0,1-.256-.329.2.2,0,0,1-.136.048.211.211,0,0,1-.11-.387.206.206,0,0,1-.063.01.21.21,0,0,1-.105-.39.21.21,0,0,1-.294-.2.212.212,0,0,1,.127-.189.2.2,0,0,1-.072.012.21.21,0,0,1-.077-.4.21.21,0,0,1-.083-.4.209.209,0,0,1-.043-.409.211.211,0,0,1-.162-.209.206.206,0,0,1,.047-.127.209.209,0,0,1-.088-.348l0-.005a.208.208,0,0,1-.1.026.211.211,0,0,1-.206-.215.2.2,0,0,1,.053-.132l0-.006a.2.2,0,0,1-.221-.028,1.449,1.449,0,0,1-.186-.021,6.15,6.15,0,0,0,.591.752Zm11.025-1.75c-.088-.075-.175-.15-.26-.228-.46.463-1.021.65-1.26.417s-.063-.812.4-1.286c-.054-.061-.108-.123-.161-.185A2.8,2.8,0,0,0,59.2,8.456a.779.779,0,0,0,.082.789.561.561,0,0,0,.411.145,1.327,1.327,0,0,0,.379-.063A2.811,2.811,0,0,0,61.136,8.671Zm.1,2.179a.5.5,0,0,0,.281.078,2.123,2.123,0,0,0,1.427-1,11.216,11.216,0,0,1-1.507-1.008A2.8,2.8,0,0,0,61,10.091.78.78,0,0,0,61.234,10.85Zm2.173,1.166a.455.455,0,0,0,.177.035.975.975,0,0,0,.585-.258,2.806,2.806,0,0,0,.736-1.008q-.142-.046-.282-.1c-.258.6-.715.987-1.024.857s-.354-.724-.1-1.331c-.088-.043-.176-.088-.263-.132C62.9,10.962,62.97,11.833,63.408,12.016Zm4.968-.979A10.9,10.9,0,0,0,79.261.3H79A10.625,10.625,0,0,1,57.752.3H57.49A10.9,10.9,0,0,0,68.376,11.037Zm-2.517,1.728a.779.779,0,0,0,.7-.37,2.8,2.8,0,0,0,.521-1.134,11.017,11.017,0,0,1-1.778-.353C65.151,11.835,65.394,12.672,65.859,12.765Zm2.517.249c.474,0,.877-.774.907-1.714q-.164.013-.33.022h.035c0,.664-.274,1.2-.612,1.2s-.612-.538-.612-1.2H67.8q-.166-.009-.33-.022C67.5,12.24,67.9,13.014,68.376,13.014Zm1.814-.619a.865.865,0,0,0,.617.379.429.429,0,0,0,.086-.009c.464-.093.708-.93.554-1.857a11.027,11.027,0,0,1-1.778.353,2.8,2.8,0,0,0,.521,1.134Zm2.889-.309a.466.466,0,0,0,.176-.033.781.781,0,0,0,.381-.7,2.812,2.812,0,0,0-.193-1.235c-.086.044-.173.087-.261.129.248.6.2,1.195-.106,1.324s-.766-.254-1.025-.859c-.094.033-.19.065-.286.1C72.1,11.561,72.652,12.087,73.078,12.087Zm2.158-1.158a.5.5,0,0,0,.281-.078.781.781,0,0,0,.235-.759,2.808,2.808,0,0,0-.436-1.175A11.246,11.246,0,0,1,73.81,9.925,2.122,2.122,0,0,0,75.236,10.928Zm1.447-1.6a1.323,1.323,0,0,0,.379.063.562.562,0,0,0,.411-.145.779.779,0,0,0,.083-.789A2.817,2.817,0,0,0,76.9,7.389c-.061.072-.123.143-.186.213.462.475.641,1.051.4,1.286s-.8.045-1.264-.42c-.076.068-.153.136-.232.2a2.808,2.808,0,0,0,1.067.658Zm.861,1.149a.149.149,0,0,1,.04.1,4.593,4.593,0,0,0,2.629,4.109,3.779,3.779,0,0,1,1.077.734l.468.468a.457.457,0,0,0,.645,0l.356-.356a3.353,3.353,0,0,1,1.113-.749,4.555,4.555,0,0,0,2.85-4.205.149.149,0,0,1,.04-.1,6.3,6.3,0,0,0,.594-.751c-.042.007-.084.012-.124.015a.207.207,0,0,1-.285.082A.208.208,0,0,1,87,9.968a.21.21,0,0,1-.21.21.208.208,0,0,1-.132-.047h0a.209.209,0,0,1-.068.369.209.209,0,0,1-.122.334.209.209,0,0,1-.051.408.209.209,0,0,1-.091.4.21.21,0,0,1-.085.4.2.2,0,0,1-.072-.014.21.21,0,1,1-.179.38h0a.21.21,0,0,1-.107.391.2.2,0,0,1-.063-.011.21.21,0,1,1-.253.334.21.21,0,0,1-.263.324.206.206,0,0,1,.051.135.21.21,0,0,1-.345.161.2.2,0,0,1,.027.1.21.21,0,0,1-.345.161.2.2,0,0,1,.022.091.21.21,0,0,1-.378.126.205.205,0,0,1,.018.084.21.21,0,0,1-.381.122.235.235,0,0,1,.007.051.21.21,0,0,1-.4.1h0a.208.208,0,0,1,.018.085.211.211,0,0,1-.211.21.208.208,0,0,1-.167-.084.219.219,0,0,1,.017.084.209.209,0,0,1-.352.155.21.21,0,0,1-.171.332.205.205,0,0,1-.137-.052.21.21,0,0,1-.3.289.206.206,0,0,1,.017.081.211.211,0,0,1-.421,0c0-.006,0-.012,0-.019a.2.2,0,0,1-.089.019.211.211,0,0,1-.207-.214.215.215,0,0,1,.046-.126.208.208,0,0,1-.138.05.211.211,0,0,1-.206-.214.207.207,0,0,1,.041-.121.209.209,0,0,1-.349-.161A.206.206,0,0,1,81,14.8a.209.209,0,0,1-.346-.235h0a.21.21,0,0,1-.4-.088.2.2,0,0,1,.008-.05.21.21,0,0,1-.379-.13.2.2,0,0,1,.019-.084.21.21,0,0,1-.376-.133.2.2,0,0,1,.024-.091.209.209,0,0,1-.341-.168.2.2,0,0,1,.028-.1.213.213,0,0,1-.135.047.21.21,0,0,1-.206-.215.2.2,0,0,1,.053-.135.2.2,0,0,1-.112.03.21.21,0,0,1-.145-.358.2.2,0,0,1-.136.047.21.21,0,0,1-.207-.214.212.212,0,0,1,.1-.173.2.2,0,0,1-.063.01.21.21,0,0,1-.105-.39.212.212,0,0,1-.088.017.21.21,0,0,1-.079-.4A.217.217,0,0,1,78.03,12a.21.21,0,0,1-.077-.4.21.21,0,0,1-.083-.4.209.209,0,0,1-.043-.409.21.21,0,0,1-.162-.209.2.2,0,0,1,.048-.127.211.211,0,0,1-.149-.2.213.213,0,0,1,.06-.143l0-.005a.206.206,0,0,1-.1.026.211.211,0,0,1-.206-.214.2.2,0,0,1,.053-.133l0-.006a.2.2,0,0,1-.268-.086,1.324,1.324,0,0,1-.168-.007,6.209,6.209,0,0,0,.62.8Zm11.025-1.75c-.088-.075-.175-.15-.26-.228-.461.463-1.021.65-1.26.417s-.063-.811.4-1.286c-.054-.061-.108-.122-.161-.185a2.822,2.822,0,0,0-.658,1.067.779.779,0,0,0,.083.79.562.562,0,0,0,.411.145,1.324,1.324,0,0,0,.379-.063,2.808,2.808,0,0,0,1.067-.658Zm.1,2.179a.5.5,0,0,0,.281.078,2.122,2.122,0,0,0,1.426-1,11.254,11.254,0,0,1-1.506-1.008,2.81,2.81,0,0,0-.436,1.175.78.78,0,0,0,.235.759Zm2.173,1.166a.452.452,0,0,0,.177.035.975.975,0,0,0,.584-.258,2.8,2.8,0,0,0,.736-1.008c-.1-.03-.189-.063-.282-.1-.258.6-.715.987-1.024.857s-.354-.724-.1-1.331c-.089-.043-.176-.087-.263-.133-.336.879-.263,1.75.174,1.933Zm4.967-.979A10.9,10.9,0,0,0,106.694.3h-.262A10.625,10.625,0,0,1,85.183.3h-.262A10.9,10.9,0,0,0,95.808,11.095Zm-2.517,1.728a.781.781,0,0,0,.7-.369,2.809,2.809,0,0,0,.521-1.134,11.114,11.114,0,0,1-1.778-.354c-.154.928.09,1.765.554,1.858Zm2.517.249c.474,0,.877-.774.908-1.714-.11.009-.22.017-.331.022h.035c0,.663-.273,1.2-.612,1.2s-.612-.538-.612-1.2h.036c-.111-.006-.221-.014-.331-.022C94.931,12.3,95.334,13.072,95.808,13.072Zm1.814-.618a.866.866,0,0,0,.617.378.422.422,0,0,0,.085-.009c.465-.093.708-.93.555-1.858a11.106,11.106,0,0,1-1.778.354A2.809,2.809,0,0,0,97.622,12.453Zm2.889-.309a.463.463,0,0,0,.175-.033.779.779,0,0,0,.381-.7,2.809,2.809,0,0,0-.194-1.234c-.086.044-.173.086-.26.128.248.6.2,1.195-.106,1.324s-.767-.254-1.025-.859c-.095.033-.19.065-.286.1C99.533,11.619,100.085,12.144,100.511,12.144Zm2.158-1.158a.5.5,0,0,0,.281-.078.781.781,0,0,0,.235-.759,2.809,2.809,0,0,0-.436-1.175,11.256,11.256,0,0,1-1.506,1.008A2.122,2.122,0,0,0,102.668,10.986Zm1.447-1.6a1.327,1.327,0,0,0,.379.063A.563.563,0,0,0,104.9,9.3a.78.78,0,0,0,.082-.79,2.8,2.8,0,0,0-.658-1.067q-.092.108-.186.213c.463.475.642,1.051.4,1.286s-.8.045-1.264-.42c-.076.069-.154.136-.232.2a2.809,2.809,0,0,0,1.067.658Zm.731,1.092a.149.149,0,0,1,.04.1,4.594,4.594,0,0,0,2.629,4.109,3.781,3.781,0,0,1,1.077.734l.469.469a.456.456,0,0,0,.644,0l.356-.356a3.352,3.352,0,0,1,1.113-.749,4.555,4.555,0,0,0,2.85-4.205.153.153,0,0,1,.04-.1,6.233,6.233,0,0,0,.594-.751c-.042.007-.084.012-.125.015a.207.207,0,0,1-.285.082.208.208,0,0,1,.057.143.21.21,0,0,1-.343.163h0a.209.209,0,0,1-.068.369.209.209,0,0,1-.121.334.209.209,0,0,1-.052.408.209.209,0,0,1-.091.4.21.21,0,0,1-.085.4.2.2,0,0,1-.072-.014.21.21,0,0,1-.087.4.2.2,0,0,1-.091-.021h0a.21.21,0,0,1-.107.391.2.2,0,0,1-.063-.011.21.21,0,1,1-.253.334.21.21,0,0,1-.263.324.206.206,0,0,1,.051.135.21.21,0,0,1-.345.161.2.2,0,0,1,.027.1A.21.21,0,0,1,112,14a.2.2,0,0,1,.022.091.21.21,0,0,1-.379.126.2.2,0,0,1,.018.084.21.21,0,0,1-.381.122.236.236,0,0,1,.006.051.21.21,0,0,1-.4.1h0a.21.21,0,0,1-.36.211.207.207,0,0,1,.018.084.211.211,0,0,1-.211.211.208.208,0,0,1-.142-.056.21.21,0,0,1-.171.332.205.205,0,0,1-.137-.052.21.21,0,0,1-.168.338.213.213,0,0,1-.133-.049.206.206,0,0,1,.017.081.21.21,0,0,1-.421,0,.166.166,0,0,1,0-.019.207.207,0,0,1-.089.019.21.21,0,0,1-.16-.34.206.206,0,0,1-.137.05.21.21,0,0,1-.166-.335.209.209,0,0,1-.349-.161.219.219,0,0,1,.019-.084.209.209,0,0,1-.346-.235h0a.211.211,0,0,1-.4-.088.2.2,0,0,1,.008-.05.21.21,0,0,1-.379-.13.207.207,0,0,1,.019-.084.21.21,0,0,1-.376-.133.205.205,0,0,1,.024-.091.207.207,0,0,1-.135.047.209.209,0,0,1-.178-.314.209.209,0,0,1-.341-.168.208.208,0,0,1,.053-.135.2.2,0,0,1-.112.03.21.21,0,0,1-.206-.215.207.207,0,0,1,.061-.144.2.2,0,0,1-.136.047.21.21,0,0,1-.207-.214.212.212,0,0,1,.1-.173.2.2,0,0,1-.063.01.21.21,0,0,1-.105-.39.208.208,0,0,1-.088.017.21.21,0,0,1-.078-.4.227.227,0,0,1-.073.012.21.21,0,0,1-.077-.4.21.21,0,0,1-.083-.4.209.209,0,0,1-.043-.409.21.21,0,0,1-.162-.209.2.2,0,0,1,.047-.127.21.21,0,0,1-.148-.2.207.207,0,0,1,.06-.143l0-.005a.207.207,0,0,1-.1.026.211.211,0,0,1-.207-.214.2.2,0,0,1,.053-.133l0-.006a.2.2,0,0,1-.221-.028,1.575,1.575,0,0,1-.186-.02,6.093,6.093,0,0,0,.591.751Zm11.025-1.75c-.088-.075-.175-.15-.26-.228-.461.463-1.021.65-1.26.417s-.063-.811.4-1.286c-.054-.061-.108-.122-.16-.185a2.8,2.8,0,0,0-.658,1.067.778.778,0,0,0,.082.79.561.561,0,0,0,.411.145,1.327,1.327,0,0,0,.379-.063,2.808,2.808,0,0,0,1.067-.658Zm.1,2.179a.5.5,0,0,0,.281.078,2.122,2.122,0,0,0,1.426-1,11.256,11.256,0,0,1-1.506-1.008,2.809,2.809,0,0,0-.436,1.175.781.781,0,0,0,.235.759Zm2.173,1.166a.453.453,0,0,0,.177.035.972.972,0,0,0,.584-.258,2.8,2.8,0,0,0,.736-1.008c-.094-.03-.189-.063-.281-.1-.258.6-.715.987-1.024.857s-.355-.724-.1-1.331c-.088-.043-.176-.087-.263-.133-.336.879-.263,1.75.174,1.933Zm4.967-.979A10.9,10.9,0,0,0,134,.3h-.262a10.625,10.625,0,0,1-21.249,0h-.262A10.9,10.9,0,0,0,123.11,11.095Zm-2.516,1.728a.781.781,0,0,0,.7-.369,2.809,2.809,0,0,0,.521-1.134,11.106,11.106,0,0,1-1.778-.354C119.886,11.893,120.129,12.73,120.594,12.823Zm2.517.249c.474,0,.877-.774.907-1.714-.11.009-.22.017-.331.022h.036c0,.663-.274,1.2-.612,1.2s-.612-.538-.612-1.2h.035c-.111-.006-.221-.014-.331-.022C122.234,12.3,122.637,13.072,123.111,13.072Zm1.814-.618a.866.866,0,0,0,.617.378.423.423,0,0,0,.085-.009c.465-.093.708-.93.555-1.858a11.106,11.106,0,0,1-1.778.354,2.809,2.809,0,0,0,.521,1.134Zm2.889-.309a.469.469,0,0,0,.176-.033.78.78,0,0,0,.381-.7,2.809,2.809,0,0,0-.194-1.234c-.086.044-.173.086-.26.128.248.6.2,1.195-.106,1.324s-.766-.254-1.025-.859c-.095.033-.19.065-.286.1C126.836,11.619,127.388,12.144,127.814,12.144Zm2.158-1.158a.5.5,0,0,0,.281-.078.781.781,0,0,0,.235-.759,2.809,2.809,0,0,0-.436-1.175,11.254,11.254,0,0,1-1.506,1.008,2.122,2.122,0,0,0,1.426,1Zm1.447-1.6a1.327,1.327,0,0,0,.379.063.563.563,0,0,0,.411-.145.779.779,0,0,0,.083-.79,2.816,2.816,0,0,0-.659-1.067c-.06.072-.122.142-.186.213.463.475.642,1.051.4,1.286s-.8.045-1.264-.42c-.076.069-.154.136-.232.2a2.808,2.808,0,0,0,1.067.658Zm1.635-1.8a1.488,1.488,0,0,0,.158.008.684.684,0,0,0,.6-.243c.263-.394-.158-1.16-.924-1.707a11.282,11.282,0,0,1-1.009,1.507,2.8,2.8,0,0,0,1.175.435ZM134.1,5.56c.435,0,.772-.131.879-.384a.782.782,0,0,0-.223-.762,2.8,2.8,0,0,0-1.008-.735c-.027.081-.055.163-.083.245.6.271.968.736.831,1.041s-.71.336-1.3.087c-.048.1-.1.2-.15.3A3.027,3.027,0,0,0,134.1,5.56Zm.317-2.235c.689,0,1.236-.23,1.311-.6a.779.779,0,0,0-.37-.7,2.806,2.806,0,0,0-1.134-.522,11.154,11.154,0,0,1-.353,1.778A3.391,3.391,0,0,0,134.416,3.324ZM135.965.3h-.5c-.092.291-.584.515-1.18.517-.005.1-.012.2-.02.3C135.138,1.086,135.871.733,135.965.3Zm-2.759,0a.15.15,0,0,1-.075.05A3.576,3.576,0,0,0,131.5,1.5a1.868,1.868,0,0,1-.327.327,5.858,5.858,0,0,1,.378.8,2.782,2.782,0,0,0,.848,1.31l0,0,.012.01.01.01.009.011.009.013s0,.008.006.012a.074.074,0,0,1,.006.014.082.082,0,0,1,0,.013.116.116,0,0,1,0,.015s0,.009,0,.012a.146.146,0,0,1,0,.018v0a.029.029,0,0,1,0,.008.135.135,0,0,1,0,.017c0,.005,0,.009-.005.014l0,.011a.187.187,0,0,1-.012.021v0h0a.144.144,0,0,1-.118.061H132.3a3.333,3.333,0,0,0-1.459.313,6.272,6.272,0,0,1-.877.281,1.849,1.849,0,0,1-.005.422,3.576,3.576,0,0,0,.34,1.96.15.15,0,0,1-.2.2,3.57,3.57,0,0,0-1.96-.34,1.862,1.862,0,0,1-.462,0,6.483,6.483,0,0,1-.283.846,3.288,3.288,0,0,0-.323,1.517.149.149,0,0,1-.263.109,3.354,3.354,0,0,0-1.338-.87,7.5,7.5,0,0,1-.753-.366,1.878,1.878,0,0,1-.315.312,3.585,3.585,0,0,0-1.146,1.626.149.149,0,0,1-.287,0,3.585,3.585,0,0,0-1.146-1.626,1.859,1.859,0,0,1-.309-.305,8.026,8.026,0,0,1-.723.353,3.406,3.406,0,0,0-1.348.877l-.008.008a.091.091,0,0,1-.012.012l-.015.011-.009.005a.079.079,0,0,1-.019.008l-.008,0-.02,0h-.039a.1.1,0,0,1-.021,0,.193.193,0,0,1-.035-.013h0l-.024-.017h0l-.006-.006a.139.139,0,0,1-.014-.014L119.2,9.5l-.007-.011-.006-.015,0-.012c0-.006,0-.012,0-.016a.076.076,0,0,1,0-.012.14.14,0,0,1,0-.024v0h0a4.1,4.1,0,0,0-.608-2.351l0-.009a1.9,1.9,0,0,1-.456,0,3.575,3.575,0,0,0-1.96.34.15.15,0,0,1-.2-.2,3.583,3.583,0,0,0,.34-1.96,1.883,1.883,0,0,1,0-.431c-.24-.068-.476-.154-.705-.239a3.749,3.749,0,0,0-1.632-.345.15.15,0,0,1-.111-.263,3.587,3.587,0,0,0,.836-1.29,6.955,6.955,0,0,1,.422-.813,1.865,1.865,0,0,1-.349-.343A3.576,3.576,0,0,0,113.117.351a.15.15,0,0,1-.075-.05h-.256a10.325,10.325,0,0,0,20.65,0Zm-1.07,0a.247.247,0,0,1-.445,0h-.22a.4.4,0,0,1-.78,0h-.2a.612.612,0,0,1-.507.5,5.866,5.866,0,0,1-.172,1.064,1.484,1.484,0,0,0,1.461-.549A3.843,3.843,0,0,1,132.489.3Zm-2.979,3.2a1.87,1.87,0,0,1,.754,1.009,6.241,6.241,0,0,0,.829-.267,4.6,4.6,0,0,1,1.191-.328,3.858,3.858,0,0,1-.651-1.172,5.636,5.636,0,0,0-.353-.754,1.884,1.884,0,0,1-1.209.161A6.849,6.849,0,0,1,129.157,3.5Zm-2.74,2.747a6.872,6.872,0,0,1-1.365.569,1.88,1.88,0,0,1-.171,1.216,7.214,7.214,0,0,0,.708.345,4.319,4.319,0,0,1,1.18.679,4.318,4.318,0,0,1,.345-1.269,6.351,6.351,0,0,0,.27-.8,1.874,1.874,0,0,1-.967-.738Zm3.248-1.058a1.47,1.47,0,0,0-.644-1.422,5.827,5.827,0,0,1-.623.864.611.611,0,0,1-.854.854,5.872,5.872,0,0,1-.864.623,1.474,1.474,0,0,0,1.423.644,3.873,3.873,0,0,1,1.778.215A3.871,3.871,0,0,1,129.665,5.186Zm-7.659,3.172a3.876,3.876,0,0,1,1.1,1.41,3.892,3.892,0,0,1,1.1-1.41,1.471,1.471,0,0,0,.551-1.461,5.874,5.874,0,0,1-1.051.171.611.611,0,0,1-1.207,0,5.979,5.979,0,0,1-1.051-.171A1.485,1.485,0,0,0,122.006,8.358ZM129.284.3h-.449a.884.884,0,0,1-.618.8.88.88,0,0,1-.481,1.527.874.874,0,0,1,.124.449.883.883,0,0,1-.882.882.87.87,0,0,1-.3-.055.881.881,0,0,1-1.264.946.881.881,0,0,1-1.5.481.882.882,0,0,1-1.614,0,.881.881,0,0,1-1.5-.484.881.881,0,0,1-1.279-.787.874.874,0,0,1,.015-.158.87.87,0,0,1-.3.055.88.88,0,0,1-.758-1.331.88.88,0,0,1-.48-1.528.884.884,0,0,1-.574-.556A.856.856,0,0,1,117.375.3h-.443a.611.611,0,0,1-.368.462,5.869,5.869,0,0,0,1.509,3.666.611.611,0,0,1,.8.807,5.986,5.986,0,0,0,3.658,1.53.612.612,0,0,1,1.151,0,6.554,6.554,0,0,0,3.662-1.523.611.611,0,0,1,.81-.813A6.558,6.558,0,0,0,129.672.766.612.612,0,0,1,129.284.3Zm-1.256,0a4.791,4.791,0,0,1-.04.54.584.584,0,0,0,.547-.54Zm-.481,2.032a.537.537,0,0,0,.077.006.581.581,0,0,0,.293-1.085,4.885,4.885,0,0,1-.37,1.079Zm-.862,1.249a.581.581,0,0,0,.69-.926,4.943,4.943,0,0,1-.69.926Zm-1.227.948a.581.581,0,0,0,.931-.466.57.57,0,0,0-.027-.17,4.97,4.97,0,0,1-.9.636Zm-1.4.505a.581.581,0,0,0,1.067-.32c0-.006,0-.013,0-.019a4.877,4.877,0,0,1-1.067.34Zm-1.525.056a.582.582,0,0,0,1.141,0,4.813,4.813,0,0,1-.561.033A5.018,5.018,0,0,1,122.53,5.092Zm-1.444-.376a.582.582,0,0,0,1.07.318,4.942,4.942,0,0,1-1.069-.343C121.087,4.7,121.085,4.707,121.085,4.715Zm-1.267-.651a.584.584,0,0,0,.583.583.574.574,0,0,0,.354-.122,4.937,4.937,0,0,1-.908-.64A.57.57,0,0,0,119.819,4.065ZM126.809.3a.572.572,0,0,1-.394.452.571.571,0,0,1-.312.99.571.571,0,0,1-.492.862.58.58,0,0,1-.2-.036.53.53,0,0,1,.01.1.572.572,0,0,1-.571.571.563.563,0,0,1-.257-.062.571.571,0,0,1-.972.312.571.571,0,0,1-1.045,0,.571.571,0,0,1-.969-.314.564.564,0,0,1-.257.062.572.572,0,0,1-.571-.571.6.6,0,0,1,.009-.1.557.557,0,0,1-.2.036.57.57,0,0,1-.491-.862.573.573,0,0,1-.5-.567.567.567,0,0,1,.189-.422.574.574,0,0,1-.371-.361A.558.558,0,0,1,119.4.3h-.909a4.619,4.619,0,0,0,9.237,0Zm-1.091,0A2.609,2.609,0,0,1,120.5.3h-.331a2.939,2.939,0,0,0,5.873,0Zm-.63,0a1.979,1.979,0,0,1-3.953,0H120.8a2.31,2.31,0,0,0,4.615,0Zm-6.44,2.778a.584.584,0,0,0,.583.583.577.577,0,0,0,.3-.085,4.956,4.956,0,0,1-.689-.928.577.577,0,0,0-.2.43Zm-.36-1.824a.582.582,0,0,0,.3,1.084.517.517,0,0,0,.09-.009,4.9,4.9,0,0,1-.338-.943A.949.949,0,0,1,118.288,1.255ZM118.194.3h-.519a.524.524,0,0,0,.028.147.592.592,0,0,0,.386.371.587.587,0,0,0,.145.027A4.885,4.885,0,0,1,118.194.3Zm1.372,5.8a6.861,6.861,0,0,1-.879-.629.611.611,0,0,1-.856-.857,6.991,6.991,0,0,1-.61-.851,1.481,1.481,0,0,0-.638,1.417,3.871,3.871,0,0,1-.216,1.778,3.874,3.874,0,0,1,1.778-.215A1.475,1.475,0,0,0,119.566,6.107Zm1.6.706a6.872,6.872,0,0,1-1.346-.558,1.868,1.868,0,0,1-.954.725,4.6,4.6,0,0,1,.618,2.065,4.506,4.506,0,0,1,1.179-.678c.225-.1.456-.2.678-.328A1.879,1.879,0,0,1,121.169,6.813ZM115.348,2a6.778,6.778,0,0,0-.407.78,4.89,4.89,0,0,1-.65,1.126,4.982,4.982,0,0,1,1.388.366c.217.08.439.161.661.225a1.874,1.874,0,0,1,.732-.986,6.846,6.846,0,0,1-.566-1.359A1.879,1.879,0,0,1,115.348,2Zm.9-1.194a.612.612,0,0,1-.525-.5h-.2a.4.4,0,0,1-.783,0h-.214a.248.248,0,0,1-.452,0h-.32a3.841,3.841,0,0,1,1.22,1.01,1.47,1.47,0,0,0,1.451.552,6.856,6.856,0,0,1-.176-1.059Zm-5.388,1.216a.779.779,0,0,0-.37.7c.074.371.621.6,1.311.6a3.392,3.392,0,0,0,.547-.047A11.073,11.073,0,0,1,112,1.5,2.805,2.805,0,0,0,110.865,2.022ZM111.939.79A1.279,1.279,0,0,1,110.782.3h-.525c.094.432.827.784,1.7.813C111.952,1.007,111.944.9,111.939.79Zm.472,6.558a.776.776,0,0,0,.758.235,2.8,2.8,0,0,0,1.175-.435,11.279,11.279,0,0,1-1.009-1.507c-.766.547-1.187,1.313-.924,1.707Zm.119-3.506c-.028-.081-.055-.163-.081-.245-.858.384-1.421,1.051-1.241,1.489a.779.779,0,0,0,.7.381,1.91,1.91,0,0,0,.206.011,3,3,0,0,0,1.029-.2q-.076-.149-.147-.3c-.587.246-1.159.209-1.293-.09s.235-.77.832-1.042Zm-6.939,8.523.009,0h0ZM109.954.3h-.989c-.066.507-.659.918-1.478,1.06a2.779,2.779,0,0,1,.757.429,1.051,1.051,0,0,1,.473.992c-.109.552-.832.877-1.742.838a2.8,2.8,0,0,1,.709.6,1.052,1.052,0,0,1,.267,1.066c-.2.488-.9.672-1.716.511.586.592.817,1.273.523,1.713a1.053,1.053,0,0,1-1.036.367,2.765,2.765,0,0,1-.841-.233,2.777,2.777,0,0,1,.393.78,1.053,1.053,0,0,1-.157,1.087.726.726,0,0,1-.177.13,5.748,5.748,0,0,0,.513.59.144.144,0,0,1,.044.113c0,.067-.005.135-.005.2a3.981,3.981,0,0,0,2.281,3.588,4.378,4.378,0,0,1,1.247.854l.362.362.251-.25a3.96,3.96,0,0,1,1.313-.882,3.947,3.947,0,0,0,2.472-3.672c0-.068,0-.136-.005-.2a.15.15,0,0,1,.044-.113,5.636,5.636,0,0,0,.516-.594.747.747,0,0,1-.17-.127,1.053,1.053,0,0,1-.158-1.087,2.8,2.8,0,0,1,.394-.78,2.765,2.765,0,0,1-.841.233,1.052,1.052,0,0,1-1.036-.367c-.312-.468-.032-1.208.64-1.825a2.829,2.829,0,0,1-.928.075,1.054,1.054,0,0,1-.943-.565c-.2-.489.16-1.111.853-1.575-.833-.005-1.478-.322-1.581-.841a1.051,1.051,0,0,1,.473-.992,2.778,2.778,0,0,1,.757-.429C110.613,1.219,110.02.808,109.954.3ZM106.92,1.5a11.157,11.157,0,0,1-.353,1.778,3.391,3.391,0,0,0,.547.047c.689,0,1.236-.23,1.311-.6a.78.78,0,0,0-.37-.7A2.806,2.806,0,0,0,106.92,1.5ZM108.158.3c-.092.291-.584.515-1.18.517-.006.1-.012.2-.02.3.877-.028,1.61-.381,1.7-.813Zm-2.575,5.339a11.262,11.262,0,0,1-1.008,1.507,2.8,2.8,0,0,0,1.175.435,1.5,1.5,0,0,0,.157.008.685.685,0,0,0,.6-.243C106.771,6.954,106.35,6.188,105.583,5.641Zm1.608-.677c-.135.3-.71.336-1.3.087-.048.1-.1.2-.15.3a3.023,3.023,0,0,0,1.054.211c.436,0,.773-.131.879-.384a.779.779,0,0,0-.222-.762,2.8,2.8,0,0,0-1.008-.735c-.027.082-.055.163-.083.245C106.956,4.194,107.328,4.658,107.191,4.964ZM105.9.3a.148.148,0,0,1-.074.05A3.576,3.576,0,0,0,104.2,1.5a1.869,1.869,0,0,1-.327.327,5.936,5.936,0,0,1,.378.8,2.783,2.783,0,0,0,.848,1.31l0,0,.013.011.009.009.009.011.008.012a.1.1,0,0,1,.007.013.085.085,0,0,1,.009.027.08.08,0,0,1,0,.014.077.077,0,0,0,0,.013.133.133,0,0,1,0,.017v0a.03.03,0,0,1,0,.008.142.142,0,0,1,0,.017.1.1,0,0,1-.005.014.1.1,0,0,1-.005.013.11.11,0,0,1-.009.016l0,.006,0,0-.014.017-.005,0a.139.139,0,0,1-.019.015l0,0a.129.129,0,0,1-.023.011h0a.1.1,0,0,1-.02.006h-.009l-.015,0H105a3.326,3.326,0,0,0-1.459.313,6.313,6.313,0,0,1-.878.281,1.888,1.888,0,0,1,0,.422,3.576,3.576,0,0,0,.34,1.96.15.15,0,0,1-.2.2,3.573,3.573,0,0,0-1.96-.34,1.872,1.872,0,0,1-.462,0,6.673,6.673,0,0,1-.283.846,3.285,3.285,0,0,0-.323,1.516.149.149,0,0,1-.263.109,3.36,3.36,0,0,0-1.338-.87,7.411,7.411,0,0,1-.753-.366,1.858,1.858,0,0,1-.316.313,3.586,3.586,0,0,0-1.146,1.627.149.149,0,0,1-.287,0,3.585,3.585,0,0,0-1.146-1.627,1.858,1.858,0,0,1-.309-.305,7.8,7.8,0,0,1-.723.352,3.412,3.412,0,0,0-1.346.875.15.15,0,0,1-.1.055h-.028l-.029-.006-.005,0-.022-.009-.024-.017h0l-.007-.007-.013-.013L91.9,9.5l-.007-.011a.084.084,0,0,1-.006-.014.043.043,0,0,1-.005-.012s0-.01,0-.015a.09.09,0,0,1,0-.014.1.1,0,0,1,0-.02s0-.006,0-.009a4.1,4.1,0,0,0-.607-2.352.045.045,0,0,1,0-.009,1.888,1.888,0,0,1-.456,0,3.576,3.576,0,0,0-1.96.34.15.15,0,0,1-.2-.2,3.583,3.583,0,0,0,.34-1.96,1.886,1.886,0,0,1,0-.431c-.24-.068-.476-.154-.706-.239a3.743,3.743,0,0,0-1.631-.345.15.15,0,0,1-.111-.263,3.576,3.576,0,0,0,.836-1.29,7.088,7.088,0,0,1,.422-.813A1.86,1.86,0,0,1,87.44,1.5,3.576,3.576,0,0,0,85.813.351.151.151,0,0,1,85.739.3h-.256a10.325,10.325,0,0,0,20.65,0Zm-1.069,0a.247.247,0,0,1-.445,0h-.22a.4.4,0,0,1-.78,0h-.2a.612.612,0,0,1-.507.5,5.865,5.865,0,0,1-.172,1.064,1.484,1.484,0,0,0,1.461-.549A3.841,3.841,0,0,1,105.187.3Zm-2.979,3.2a1.87,1.87,0,0,1,.754,1.009,6.231,6.231,0,0,0,.829-.267,4.606,4.606,0,0,1,1.191-.328,3.858,3.858,0,0,1-.651-1.172,5.642,5.642,0,0,0-.353-.754,1.883,1.883,0,0,1-1.209.161A6.853,6.853,0,0,1,101.854,3.5ZM99.113,6.244a6.852,6.852,0,0,1-1.364.569,1.877,1.877,0,0,1-.171,1.216,7.335,7.335,0,0,0,.709.345,4.318,4.318,0,0,1,1.18.679,4.317,4.317,0,0,1,.345-1.269,6.432,6.432,0,0,0,.27-.8A1.881,1.881,0,0,1,99.113,6.244Zm3.249-1.058a1.47,1.47,0,0,0-.644-1.422,5.926,5.926,0,0,1-.623.865.611.611,0,0,1-.854.853,5.894,5.894,0,0,1-.863.622,1.483,1.483,0,0,0,1.421.645,3.885,3.885,0,0,1,1.778.215A3.872,3.872,0,0,1,102.362,5.186ZM94.7,8.358a3.877,3.877,0,0,1,1.1,1.41,3.893,3.893,0,0,1,1.1-1.41A1.471,1.471,0,0,0,97.463,6.9a5.906,5.906,0,0,1-1.051.171.611.611,0,0,1-1.207,0A5.881,5.881,0,0,1,94.153,6.9a1.47,1.47,0,0,0,.55,1.461ZM101.981.3h-.449a.884.884,0,0,1-.618.8.88.88,0,0,1-.481,1.527.881.881,0,0,1-.759,1.331.871.871,0,0,1-.3-.055.959.959,0,0,1,.014.158.88.88,0,0,1-1.278.787.881.881,0,0,1-1.5.481.882.882,0,0,1-1.614,0,.881.881,0,0,1-1.5-.484.881.881,0,0,1-1.279-.787.873.873,0,0,1,.015-.158.871.871,0,0,1-.3.055A.88.88,0,0,1,91.17,2.63.88.88,0,0,1,90.689,1.1a.883.883,0,0,1-.573-.556A.855.855,0,0,1,90.072.3H89.63a.611.611,0,0,1-.368.462A5.719,5.719,0,0,0,90.771,4.43a.611.611,0,0,1,.8.807,6.069,6.069,0,0,0,3.658,1.53.611.611,0,0,1,1.15,0,6.556,6.556,0,0,0,3.662-1.523.611.611,0,0,1,.81-.813A6.553,6.553,0,0,0,102.369.766.612.612,0,0,1,101.981.3Zm-1.256,0a4.961,4.961,0,0,1-.04.54.584.584,0,0,0,.547-.54Zm-.481,2.032a.537.537,0,0,0,.077.006.581.581,0,0,0,.293-1.085,4.884,4.884,0,0,1-.37,1.079Zm-.862,1.249a.581.581,0,0,0,.69-.926A4.945,4.945,0,0,1,99.382,3.583Zm-1.227.948a.581.581,0,0,0,.9-.636A4.969,4.969,0,0,1,98.155,4.53Zm-1.4.505a.581.581,0,0,0,1.067-.32.175.175,0,0,0,0-.019A4.859,4.859,0,0,1,96.752,5.036Zm-1.525.056a.582.582,0,0,0,1.141,0,4.813,4.813,0,0,1-.561.033A5,5,0,0,1,95.227,5.092Zm-1.444-.376a.582.582,0,0,0,1.07.318,4.921,4.921,0,0,1-1.069-.343C93.784,4.7,93.782,4.707,93.782,4.715Zm-1.267-.651a.584.584,0,0,0,.583.583.575.575,0,0,0,.354-.122,4.927,4.927,0,0,1-.908-.641A.571.571,0,0,0,92.516,4.065ZM99.506.3a.573.573,0,0,1-.394.452.571.571,0,0,1-.312.99.571.571,0,0,1-.492.862.581.581,0,0,1-.2-.036.529.529,0,0,1,.01.1.572.572,0,0,1-.571.571.561.561,0,0,1-.257-.062.571.571,0,0,1-.972.312.571.571,0,0,1-1.045,0,.571.571,0,0,1-.97-.314.558.558,0,0,1-.256.062.572.572,0,0,1-.571-.571.592.592,0,0,1,.009-.1.558.558,0,0,1-.2.036.57.57,0,0,1-.491-.862.573.573,0,0,1-.5-.567.567.567,0,0,1,.189-.422A.574.574,0,0,1,92.12.393.562.562,0,0,1,92.1.3h-.909a4.619,4.619,0,0,0,9.237,0ZM98.415.3A2.609,2.609,0,0,1,93.2.3H92.87a2.939,2.939,0,0,0,5.872,0Zm-.631,0a1.978,1.978,0,0,1-3.952,0H93.5a2.31,2.31,0,0,0,4.615,0ZM91.345,3.08a.583.583,0,0,0,.583.583.577.577,0,0,0,.3-.085,4.923,4.923,0,0,1-.689-.928A.577.577,0,0,0,91.345,3.08Zm-.36-1.824a.582.582,0,0,0,.3,1.084.524.524,0,0,0,.09-.009,4.913,4.913,0,0,1-.338-.943A1,1,0,0,1,90.985,1.255ZM90.891.3h-.519A.551.551,0,0,0,90.4.449a.6.6,0,0,0,.387.371.587.587,0,0,0,.145.027A4.714,4.714,0,0,1,90.891.3Zm1.372,5.805a7.039,7.039,0,0,1-.879-.629.611.611,0,0,1-.855-.857,6.849,6.849,0,0,1-.61-.852,1.47,1.47,0,0,0-.639,1.418,3.863,3.863,0,0,1-.215,1.778,3.873,3.873,0,0,1,1.778-.215A1.472,1.472,0,0,0,92.262,6.107Zm1.6.706a6.868,6.868,0,0,1-1.346-.558,1.886,1.886,0,0,1-.954.725,4.588,4.588,0,0,1,.617,2.065,4.523,4.523,0,0,1,1.18-.678c.225-.1.456-.2.678-.328A1.879,1.879,0,0,1,93.867,6.813ZM88.045,2a6.7,6.7,0,0,0-.407.781,4.9,4.9,0,0,1-.65,1.125,5,5,0,0,1,1.388.366c.216.081.439.162.661.226a1.87,1.87,0,0,1,.732-.986A6.84,6.84,0,0,1,89.2,2.151,1.882,1.882,0,0,1,88.045,2Zm.9-1.193a.611.611,0,0,1-.523-.5h-.2a.4.4,0,0,1-.781,0h-.214a.248.248,0,0,1-.452,0h-.32a3.851,3.851,0,0,1,1.22,1.01,1.469,1.469,0,0,0,1.451.552A6.857,6.857,0,0,1,88.95.805ZM83.562,2.022a.779.779,0,0,0-.37.7c.074.371.621.6,1.311.6a3.391,3.391,0,0,0,.547-.047A11.069,11.069,0,0,1,84.7,1.5,2.807,2.807,0,0,0,83.562,2.022ZM84.636.79A1.278,1.278,0,0,1,83.479.3h-.525c.094.432.827.784,1.7.812C84.649,1.007,84.642.9,84.636.79Zm.472,6.558a.775.775,0,0,0,.758.235,2.806,2.806,0,0,0,1.175-.435,11.211,11.211,0,0,1-1.009-1.507c-.766.547-1.187,1.313-.924,1.707Zm.119-3.506c-.028-.081-.055-.163-.081-.245-.858.384-1.421,1.051-1.241,1.489a.778.778,0,0,0,.7.381,1.931,1.931,0,0,0,.206.011,3,3,0,0,0,1.029-.2q-.076-.149-.147-.3c-.587.246-1.159.209-1.293-.09s.235-.77.832-1.042Zm-6.939,8.523.009,0h0l-.008,0ZM82.651.3H81.522c-.1.48-.679.865-1.467,1a2.765,2.765,0,0,1,.758.429,1.054,1.054,0,0,1,.473.992c-.11.552-.832.877-1.743.838a2.832,2.832,0,0,1,.71.6,1.055,1.055,0,0,1,.266,1.067c-.2.488-.9.671-1.716.511.586.592.817,1.273.523,1.713a1.052,1.052,0,0,1-1.036.367,2.763,2.763,0,0,1-.841-.233,2.8,2.8,0,0,1,.394.78,1.053,1.053,0,0,1-.158,1.087.729.729,0,0,1-.117.094,5.638,5.638,0,0,0,.582.684.147.147,0,0,1,.044.113c0,.067-.005.135-.005.2A3.981,3.981,0,0,0,80.47,14.14a4.379,4.379,0,0,1,1.247.854l.362.362.251-.25a3.962,3.962,0,0,1,1.312-.882,3.947,3.947,0,0,0,2.473-3.672c0-.068,0-.136-.005-.2a.147.147,0,0,1,.044-.113,5.725,5.725,0,0,0,.516-.594.747.747,0,0,1-.17-.127,1.053,1.053,0,0,1-.158-1.087,2.8,2.8,0,0,1,.394-.779,2.771,2.771,0,0,1-.841.233,1.051,1.051,0,0,1-1.036-.367c-.312-.468-.032-1.208.64-1.825a2.827,2.827,0,0,1-.928.075,1.053,1.053,0,0,1-.943-.565c-.2-.489.16-1.111.853-1.575C83.647,3.619,83,3.3,82.9,2.782a1.054,1.054,0,0,1,.473-.992,2.8,2.8,0,0,1,.758-.429C83.31,1.219,82.716.808,82.651.3ZM80.7.3a1.338,1.338,0,0,1-1.156.46c-.005.1-.012.2-.02.3.838-.027,1.543-.35,1.687-.755Zm-2.55,5.282A11.309,11.309,0,0,1,77.143,7.09a2.806,2.806,0,0,0,1.175.435,1.487,1.487,0,0,0,.158.008.683.683,0,0,0,.6-.243C79.339,6.9,78.918,6.13,78.151,5.583Zm1.608-.677c-.135.3-.711.336-1.3.087-.048.1-.1.2-.15.3a3.012,3.012,0,0,0,1.054.212c.435,0,.772-.131.879-.385a.779.779,0,0,0-.223-.761,2.8,2.8,0,0,0-1.008-.736c-.027.081-.055.163-.083.244C79.524,4.136,79.9,4.6,79.759,4.906ZM79.134,3.22a3.375,3.375,0,0,0,.548.047c.689,0,1.236-.23,1.31-.6a.779.779,0,0,0-.37-.7,2.805,2.805,0,0,0-1.134-.522A10.991,10.991,0,0,1,79.134,3.22ZM78.37.3a3.594,3.594,0,0,0-1.6,1.138,1.9,1.9,0,0,1-.327.327,5.971,5.971,0,0,1,.378.8,2.776,2.776,0,0,0,.847,1.31l0,0,.012.011.009.009.009.012.009.012.006.013a.1.1,0,0,1,.006.013.055.055,0,0,1,0,.014.107.107,0,0,1,0,.015.076.076,0,0,1,0,.013.131.131,0,0,1,0,.017s0,0,0,0a.031.031,0,0,1,0,.008.141.141,0,0,1,0,.017.1.1,0,0,1-.005.014.1.1,0,0,1-.005.013l-.01.017a.018.018,0,0,1,0,.005h0a.115.115,0,0,1-.017.02v0a.142.142,0,0,1-.1.039h-.017a3.32,3.32,0,0,0-1.459.313,6.323,6.323,0,0,1-.877.281,1.848,1.848,0,0,1-.005.422,3.583,3.583,0,0,0,.34,1.96.149.149,0,0,1-.2.2,3.582,3.582,0,0,0-1.96-.339,1.9,1.9,0,0,1-.462,0,6.525,6.525,0,0,1-.283.847,3.274,3.274,0,0,0-.322,1.516.15.15,0,0,1-.264.109,3.346,3.346,0,0,0-1.337-.87,7.606,7.606,0,0,1-.754-.366,1.882,1.882,0,0,1-.315.312,3.584,3.584,0,0,0-1.146,1.626.15.15,0,0,1-.287,0,3.581,3.581,0,0,0-1.146-1.626,1.859,1.859,0,0,1-.31-.305,7.8,7.8,0,0,1-.722.352,3.407,3.407,0,0,0-1.348.877.151.151,0,0,1-.067.045h0l-.02,0-.01,0h-.029a.135.135,0,0,1-.029-.006l-.012,0-.015-.007a.147.147,0,0,1-.024-.016h0l-.007-.007-.013-.013-.008-.013-.008-.011s0-.009-.006-.014a.129.129,0,0,1-.005-.014s0-.009,0-.014,0-.009,0-.014a.159.159,0,0,1,0-.02s0-.006,0-.009A4.1,4.1,0,0,0,63.834,7l0-.009a1.89,1.89,0,0,1-.456,0,3.585,3.585,0,0,0-1.96.339.15.15,0,0,1-.2-.2,3.555,3.555,0,0,0,.339-1.96,1.885,1.885,0,0,1,0-.431c-.24-.068-.477-.155-.706-.24a3.753,3.753,0,0,0-1.631-.345.15.15,0,0,1-.111-.263,3.588,3.588,0,0,0,.836-1.29,6.965,6.965,0,0,1,.422-.813,1.87,1.87,0,0,1-.349-.343A3.6,3.6,0,0,0,58.407.3h-.356A10.325,10.325,0,0,0,78.7.3ZM77.361.3a.247.247,0,0,1-.184.083A.245.245,0,0,1,76.994.3h-.281a.4.4,0,0,1-.735,0h-.243a.608.608,0,0,1-.491.438A5.939,5.939,0,0,1,75.073,1.8a1.47,1.47,0,0,0,1.461-.55A3.817,3.817,0,0,1,77.65.3ZM74.421,3.439a1.874,1.874,0,0,1,.754,1.009A6.137,6.137,0,0,0,76,4.181a4.606,4.606,0,0,1,1.191-.328,3.86,3.86,0,0,1-.651-1.172,5.638,5.638,0,0,0-.353-.754,1.886,1.886,0,0,1-1.21.161,6.842,6.842,0,0,1-.56,1.349Zm-2.74,2.748a6.808,6.808,0,0,1-1.364.568,1.882,1.882,0,0,1-.171,1.217,7.524,7.524,0,0,0,.708.345,4.323,4.323,0,0,1,1.18.679,4.31,4.31,0,0,1,.345-1.269,6.323,6.323,0,0,0,.27-.8,1.888,1.888,0,0,1-.968-.738ZM74.93,5.128a1.472,1.472,0,0,0-.645-1.422,5.837,5.837,0,0,1-.623.864.611.611,0,0,1-.854.854,5.927,5.927,0,0,1-.864.623,1.473,1.473,0,0,0,1.422.644,3.863,3.863,0,0,1,1.778.215,3.863,3.863,0,0,1-.215-1.778ZM67.271,8.3a3.878,3.878,0,0,1,1.1,1.41A3.88,3.88,0,0,1,69.481,8.3a1.47,1.47,0,0,0,.55-1.461,5.889,5.889,0,0,1-1.051.171.611.611,0,0,1-1.207,0,5.991,5.991,0,0,1-1.05-.171,1.483,1.483,0,0,0,.549,1.46Zm7.294-8H74.1a.885.885,0,0,1-.614.743A.881.881,0,0,1,73,2.573a.874.874,0,0,1,.124.449.883.883,0,0,1-.882.882.869.869,0,0,1-.3-.055.874.874,0,0,1,.015.158.882.882,0,0,1-1.279.788.881.881,0,0,1-1.5.48.881.881,0,0,1-1.614,0,.881.881,0,0,1-1.5-.484A.88.88,0,0,1,64.8,3.85a.88.88,0,0,1-1.062-1.277.88.88,0,0,1-.48-1.528.883.883,0,0,1-.573-.556A.807.807,0,0,1,62.644.3h-.462a.614.614,0,0,1-.353.4,5.6,5.6,0,0,0,1.151,3.2l.073.1.014.018c.078.105.168.22.272.342a.611.611,0,0,1,.8.807A6.109,6.109,0,0,0,67.8,6.709a.611.611,0,0,1,1.15,0,6.551,6.551,0,0,0,3.662-1.524.611.611,0,0,1,.81-.812A6.56,6.56,0,0,0,74.936.707.61.61,0,0,1,74.564.3ZM73.291.3a4.633,4.633,0,0,1-.038.482A.583.583,0,0,0,73.793.3Zm-.479,1.973a.56.56,0,0,0,.078.006A.581.581,0,0,0,73.182,1.2,4.869,4.869,0,0,1,72.812,2.275Zm-.862,1.25a.581.581,0,0,0,.69-.926,4.946,4.946,0,0,1-.69.926Zm-1.227.948a.581.581,0,0,0,.931-.466.57.57,0,0,0-.027-.169,4.976,4.976,0,0,1-.9.635Zm-1.4.505a.581.581,0,0,0,1.067-.32c0-.006,0-.013,0-.019A4.878,4.878,0,0,1,69.319,4.978Zm-1.525.056a.582.582,0,0,0,1.141,0,4.828,4.828,0,0,1-.56.033A5.005,5.005,0,0,1,67.794,5.034ZM66.35,4.658a.582.582,0,0,0,1.07.318,4.883,4.883,0,0,1-1.068-.344c0,.009,0,.017,0,.026Zm-1.267-.651a.584.584,0,0,0,.583.584.575.575,0,0,0,.354-.123,4.936,4.936,0,0,1-.909-.64A.576.576,0,0,0,65.083,4.007ZM72.059.3A.573.573,0,0,1,71.68.7a.57.57,0,0,1-.312.989.57.57,0,0,1-.688.827.531.531,0,0,1,.01.1.57.57,0,0,1-.828.51.571.571,0,0,1-.972.312.571.571,0,0,1-1.045,0,.57.57,0,0,1-.97-.313.57.57,0,0,1-.818-.612.558.558,0,0,1-.2.035.57.57,0,0,1-.491-.862.572.572,0,0,1-.5-.566A.565.565,0,0,1,65.059.7a.573.573,0,0,1-.371-.361c0-.011-.006-.022-.009-.034H63.76a4.619,4.619,0,0,0,9.233,0ZM70.98.3a2.609,2.609,0,0,1-5.21,0h-.33a2.939,2.939,0,0,0,5.866,0Zm-.633,0A1.978,1.978,0,0,1,66.4.3h-.333A2.31,2.31,0,0,0,70.68.3Zm-6.435,2.72A.584.584,0,0,0,64.5,3.6a.57.57,0,0,0,.3-.086,4.938,4.938,0,0,1-.688-.928A.576.576,0,0,0,63.912,3.022ZM63.553,1.2a.577.577,0,0,0-.288.5.584.584,0,0,0,.583.584.491.491,0,0,0,.092-.009,4.883,4.883,0,0,1-.335-.931A.9.9,0,0,1,63.553,1.2ZM63.461.3h-.515a.536.536,0,0,0,.022.09.59.59,0,0,0,.387.371A.571.571,0,0,0,63.5.79C63.479.63,63.466.466,63.461.3Zm1.37,5.747a7.016,7.016,0,0,1-.879-.629.611.611,0,0,1-.855-.857,6.958,6.958,0,0,1-.61-.851,1.481,1.481,0,0,0-.639,1.417,3.872,3.872,0,0,1-.215,1.778,3.864,3.864,0,0,1,1.778-.215A1.474,1.474,0,0,0,64.83,6.049Zm1.6.706A6.867,6.867,0,0,1,65.089,6.2a1.879,1.879,0,0,1-.954.725,4.593,4.593,0,0,1,.618,2.065,4.507,4.507,0,0,1,1.179-.678c.225-.1.456-.2.678-.328a1.876,1.876,0,0,1-.175-1.226ZM60.613,1.941a6.74,6.74,0,0,0-.407.781,4.892,4.892,0,0,1-.65,1.125,5,5,0,0,1,1.388.366c.217.081.439.162.661.226a1.868,1.868,0,0,1,.732-.986,6.847,6.847,0,0,1-.566-1.359,1.882,1.882,0,0,1-1.159-.153ZM61.518.747A.61.61,0,0,1,61.005.3h-.233a.405.405,0,0,1-.744,0h-.271a.245.245,0,0,1-.377,0h-.252a3.817,3.817,0,0,1,1.115.953,1.47,1.47,0,0,0,1.451.552A6.848,6.848,0,0,1,61.518.747Zm-4.254.7a2.805,2.805,0,0,0-1.134.522.779.779,0,0,0-.37.7c.074.37.621.6,1.31.6a3.392,3.392,0,0,0,.547-.047,11.107,11.107,0,0,1-.353-1.778ZM57.2.733A1.386,1.386,0,0,1,56.077.3h-.538c.144.405.849.728,1.687.755C57.217.949,57.209.84,57.2.733Zm.472,6.558a.778.778,0,0,0,.758.235,2.81,2.81,0,0,0,1.175-.435A11.306,11.306,0,0,1,58.6,5.583C57.833,6.13,57.412,6.9,57.675,7.29Zm.12-3.506c-.028-.081-.055-.163-.081-.245-.858.384-1.422,1.051-1.242,1.489a.779.779,0,0,0,.7.381,1.9,1.9,0,0,0,.206.01,2.979,2.979,0,0,0,1.029-.2c-.051-.1-.1-.2-.147-.3-.587.246-1.16.21-1.294-.089s.235-.77.832-1.042Zm-6.938,8.523.008,0h0ZM55.23.3H54.218c-.1.48-.679.865-1.467,1a2.761,2.761,0,0,1,.757.429,1.053,1.053,0,0,1,.473.992c-.11.552-.832.877-1.743.838a2.826,2.826,0,0,1,.709.6,1.054,1.054,0,0,1,.267,1.067c-.2.488-.9.671-1.717.511.586.592.817,1.273.524,1.713a1.053,1.053,0,0,1-1.036.367,2.768,2.768,0,0,1-.841-.233,2.786,2.786,0,0,1,.393.779,1.053,1.053,0,0,1-.157,1.087.749.749,0,0,1-.177.13,5.627,5.627,0,0,0,.513.589.15.15,0,0,1,.044.114c0,.067-.005.135-.005.2a3.98,3.98,0,0,0,2.281,3.588,4.391,4.391,0,0,1,1.247.854l.362.363.251-.251a3.968,3.968,0,0,1,1.313-.882,3.949,3.949,0,0,0,2.473-3.673c0-.068,0-.135,0-.2a.15.15,0,0,1,.044-.114,5.518,5.518,0,0,0,.516-.594.732.732,0,0,1-.17-.126A1.053,1.053,0,0,1,58.91,8.37,2.786,2.786,0,0,1,59.3,7.59a2.764,2.764,0,0,1-.841.233,1.052,1.052,0,0,1-1.036-.367c-.312-.468-.031-1.208.64-1.825a2.846,2.846,0,0,1-.928.075,1.054,1.054,0,0,1-.943-.566c-.2-.489.161-1.111.853-1.575-.833-.005-1.478-.323-1.581-.841a1.053,1.053,0,0,1,.473-.992A2.763,2.763,0,0,1,56.7,1.3c-.788-.137-1.365-.522-1.467-1ZM52.183,1.442a11.107,11.107,0,0,1-.354,1.777,3.329,3.329,0,0,0,.549.047c.689,0,1.236-.23,1.31-.6a.779.779,0,0,0-.37-.7A2.792,2.792,0,0,0,52.183,1.442ZM53.4.3a1.339,1.339,0,0,1-1.157.46v0c-.005.1-.012.2-.02.3.838-.027,1.544-.35,1.688-.755ZM50.847,5.583A11.256,11.256,0,0,1,49.839,7.09a2.8,2.8,0,0,0,1.175.436,1.483,1.483,0,0,0,.157.008.685.685,0,0,0,.6-.243C52.036,6.9,51.615,6.13,50.847,5.583Zm1.609-.677c-.135.3-.711.336-1.3.086-.048.1-.1.2-.149.3A3.018,3.018,0,0,0,52.06,5.5c.436,0,.773-.131.879-.385a.779.779,0,0,0-.223-.761,2.793,2.793,0,0,0-1.009-.736q-.04.123-.083.245C52.22,4.135,52.593,4.6,52.456,4.906ZM51.067.3a3.6,3.6,0,0,0-1.6,1.138,1.885,1.885,0,0,1-.327.327,5.892,5.892,0,0,1,.378.8,2.776,2.776,0,0,0,.848,1.31l0,0,.012.011.009.009.009.012.008.012.006.013.006.013,0,.014c0,.005,0,.01,0,.015s0,.009,0,.013a.125.125,0,0,1,0,.017s0,0,0,0,0,.005,0,.008a.149.149,0,0,1,0,.017l0,.014-.005.013-.01.017,0,.005h0a.2.2,0,0,1-.017.02h0a.142.142,0,0,1-.1.039h-.016a3.322,3.322,0,0,0-1.459.313,6.314,6.314,0,0,1-.877.281,1.893,1.893,0,0,1,0,.422,3.578,3.578,0,0,0,.339,1.96.15.15,0,0,1-.2.2,3.576,3.576,0,0,0-1.96-.339,1.9,1.9,0,0,1-.462,0,6.517,6.517,0,0,1-.283.847,3.277,3.277,0,0,0-.323,1.516.149.149,0,0,1-.264.109,3.35,3.35,0,0,0-1.338-.87,7.525,7.525,0,0,1-.753-.366,1.894,1.894,0,0,1-.316.312,3.582,3.582,0,0,0-1.146,1.627.15.15,0,0,1-.288,0,3.583,3.583,0,0,0-1.146-1.627,1.857,1.857,0,0,1-.31-.305,7.777,7.777,0,0,1-.722.352A3.409,3.409,0,0,0,37.4,9.46a.143.143,0,0,1-.066.044l0,0-.019,0-.01,0h-.029a.136.136,0,0,1-.029-.006l-.013,0L37.217,9.5l-.024-.017h0l-.007-.007-.013-.013-.008-.013a.085.085,0,0,1-.008-.012s0-.009-.006-.014a.122.122,0,0,1-.005-.014s0-.009,0-.014,0-.009,0-.014a.159.159,0,0,1,0-.02s0-.006,0-.009A4.1,4.1,0,0,0,36.531,7l0-.009a1.891,1.891,0,0,1-.456,0,3.584,3.584,0,0,0-1.96.339.15.15,0,0,1-.2-.2,3.555,3.555,0,0,0,.339-1.96,1.89,1.89,0,0,1,0-.431c-.24-.068-.477-.155-.706-.24a3.754,3.754,0,0,0-1.631-.345.15.15,0,0,1-.111-.263A3.589,3.589,0,0,0,32.631,2.6a6.99,6.99,0,0,1,.422-.813,1.868,1.868,0,0,1-.349-.343A3.6,3.6,0,0,0,31.1.3h-.356A10.325,10.325,0,0,0,51.4.3Zm-1.01,0a.245.245,0,0,1-.183.083A.248.248,0,0,1,49.69.3h-.28a.4.4,0,0,1-.735,0h-.241a.609.609,0,0,1-.492.437A5.9,5.9,0,0,1,47.77,1.8a1.471,1.471,0,0,0,1.461-.55A3.812,3.812,0,0,1,50.347.3ZM47.118,3.439a1.878,1.878,0,0,1,.754,1.009,6.141,6.141,0,0,0,.829-.266,4.606,4.606,0,0,1,1.191-.328,3.861,3.861,0,0,1-.651-1.172,5.662,5.662,0,0,0-.353-.753,1.886,1.886,0,0,1-1.21.161A6.831,6.831,0,0,1,47.118,3.439Zm-2.74,2.748a6.846,6.846,0,0,1-1.364.569,1.877,1.877,0,0,1-.171,1.216,7.458,7.458,0,0,0,.708.345,4.328,4.328,0,0,1,1.18.679,4.3,4.3,0,0,1,.344-1.269,6.318,6.318,0,0,0,.27-.8A1.885,1.885,0,0,1,44.378,6.186Zm3.249-1.058a1.471,1.471,0,0,0-.644-1.422,5.91,5.91,0,0,1-.623.864.611.611,0,0,1-.853.854,5.951,5.951,0,0,1-.864.623,1.472,1.472,0,0,0,1.422.644,3.863,3.863,0,0,1,1.778.215A3.874,3.874,0,0,1,47.627,5.129ZM39.968,8.3a3.879,3.879,0,0,1,1.1,1.41,3.878,3.878,0,0,1,1.1-1.41,1.471,1.471,0,0,0,.55-1.461,5.9,5.9,0,0,1-1.051.171.611.611,0,0,1-1.207,0,6,6,0,0,1-1.05-.17A1.483,1.483,0,0,0,39.968,8.3ZM47.26.3H46.79a.882.882,0,0,1-.612.743A.881.881,0,0,1,45.7,2.573a.879.879,0,0,1-1.062,1.276.875.875,0,0,1,.015.158.882.882,0,0,1-1.279.788.881.881,0,0,1-1.5.48.881.881,0,0,1-1.614,0,.881.881,0,0,1-1.5-.484A.88.88,0,0,1,37.5,3.85a.88.88,0,0,1-1.062-1.277.88.88,0,0,1-.48-1.528.883.883,0,0,1-.573-.556A.823.823,0,0,1,35.341.3h-.46a.611.611,0,0,1-.354.4,5.757,5.757,0,0,0,1.509,3.666.611.611,0,0,1,.8.807A6.183,6.183,0,0,0,40.5,6.709a.611.611,0,0,1,1.15,0A6.55,6.55,0,0,0,45.31,5.185a.611.611,0,0,1,.81-.812A6.557,6.557,0,0,0,47.633.708.611.611,0,0,1,47.26.3ZM45.988.3q-.007.244-.038.483A.582.582,0,0,0,46.488.3Zm-.48,1.973a.565.565,0,0,0,.079.007A.581.581,0,0,0,45.879,1.2,4.882,4.882,0,0,1,45.508,2.275Zm-.861,1.25a.581.581,0,0,0,.69-.927A4.942,4.942,0,0,1,44.647,3.525Zm-1.228.947a.576.576,0,0,0,.348.118.584.584,0,0,0,.583-.584.561.561,0,0,0-.027-.169A4.975,4.975,0,0,1,43.419,4.472Zm-1.4.506a.581.581,0,0,0,1.067-.32c0-.006,0-.013,0-.019A4.872,4.872,0,0,1,42.016,4.978Zm-1.525.056a.582.582,0,0,0,1.141,0,4.808,4.808,0,0,1-.56.033,4.988,4.988,0,0,1-.581-.035Zm-1.444-.376a.582.582,0,0,0,1.07.318,4.886,4.886,0,0,1-1.068-.344C39.048,4.641,39.047,4.649,39.047,4.658ZM37.78,4.007a.584.584,0,0,0,.583.584.574.574,0,0,0,.354-.122,4.938,4.938,0,0,1-.908-.64A.576.576,0,0,0,37.78,4.007ZM44.756.3A.572.572,0,0,1,44.377.7a.57.57,0,0,1-.312.989.57.57,0,0,1-.491.862.577.577,0,0,1-.2-.035.565.565,0,0,1,.01.1.57.57,0,0,1-.828.51.571.571,0,0,1-.972.312.571.571,0,0,1-1.045,0,.57.57,0,0,1-.97-.313.569.569,0,0,1-.818-.612.556.556,0,0,1-.2.035.57.57,0,0,1-.491-.862.572.572,0,0,1-.5-.566A.565.565,0,0,1,37.756.7a.573.573,0,0,1-.371-.361c0-.011-.006-.022-.01-.034h-.919a4.619,4.619,0,0,0,9.233,0ZM43.677.3a2.609,2.609,0,0,1-5.21,0h-.33A2.939,2.939,0,0,0,44,.3Zm-.633,0A1.978,1.978,0,0,1,39.1.3h-.333a2.31,2.31,0,0,0,4.61,0Zm-6.435,2.72a.584.584,0,0,0,.583.583.57.57,0,0,0,.3-.086,4.93,4.93,0,0,1-.689-.928.577.577,0,0,0-.195.43ZM36.25,1.2a.577.577,0,0,0-.288.5.584.584,0,0,0,.583.584.542.542,0,0,0,.09-.009,4.874,4.874,0,0,1-.338-.944A.883.883,0,0,1,36.25,1.2ZM36.156.3h-.514a.52.52,0,0,0,.021.09.59.59,0,0,0,.387.371A.56.56,0,0,0,36.2.79C36.175.63,36.161.466,36.156.3Zm1.371,5.747a7.025,7.025,0,0,1-.879-.629.611.611,0,0,1-.855-.857,6.952,6.952,0,0,1-.61-.851,1.482,1.482,0,0,0-.639,1.417,3.873,3.873,0,0,1-.215,1.778,3.864,3.864,0,0,1,1.778-.215,1.474,1.474,0,0,0,1.421-.642Zm1.6.706A6.862,6.862,0,0,1,37.786,6.2a1.879,1.879,0,0,1-.954.725,4.593,4.593,0,0,1,.618,2.065,4.506,4.506,0,0,1,1.179-.678c.225-.1.456-.2.678-.328A1.876,1.876,0,0,1,39.131,6.755ZM33.31,1.941a6.738,6.738,0,0,0-.407.781,4.894,4.894,0,0,1-.65,1.125,5,5,0,0,1,1.388.366c.217.081.439.162.661.226a1.868,1.868,0,0,1,.732-.986,6.844,6.844,0,0,1-.566-1.359A1.882,1.882,0,0,1,33.31,1.941Zm.9-1.194A.61.61,0,0,1,33.7.3h-.233a.405.405,0,0,1-.744,0h-.271a.245.245,0,0,1-.377,0h-.252a3.82,3.82,0,0,1,1.115.953,1.47,1.47,0,0,0,1.451.552A6.86,6.86,0,0,1,34.215.747Zm-4.254.7a2.806,2.806,0,0,0-1.134.522.779.779,0,0,0-.37.7c.074.37.621.6,1.31.6a3.375,3.375,0,0,0,.547-.047A11.1,11.1,0,0,1,29.961,1.442ZM29.9.733A1.386,1.386,0,0,1,28.774.3h-.538c.144.405.849.728,1.687.755C29.914.949,29.906.841,29.9.733Zm.472,6.558a.778.778,0,0,0,.758.235,2.807,2.807,0,0,0,1.175-.435A11.3,11.3,0,0,1,31.3,5.583c-.767.547-1.188,1.313-.925,1.707Zm.12-3.506q-.042-.122-.081-.245c-.858.384-1.422,1.051-1.242,1.489a.78.78,0,0,0,.7.381,1.923,1.923,0,0,0,.206.01,2.982,2.982,0,0,0,1.029-.2c-.051-.1-.1-.2-.147-.3-.587.246-1.16.21-1.294-.089s.235-.77.832-1.042Zm-6.938,8.523.008,0h0ZM27.927.3h-1.02c-.1.481-.679.867-1.467,1a2.783,2.783,0,0,1,.757.429,1.053,1.053,0,0,1,.473.992c-.11.552-.832.877-1.743.838a2.812,2.812,0,0,1,.709.6A1.053,1.053,0,0,1,25.9,5.235c-.2.488-.9.672-1.717.511.586.592.817,1.273.524,1.713a1.054,1.054,0,0,1-1.036.367,2.764,2.764,0,0,1-.841-.233,2.786,2.786,0,0,1,.393.779,1.053,1.053,0,0,1-.157,1.087.731.731,0,0,1-.169.126,5.637,5.637,0,0,0,.515.592.15.15,0,0,1,.044.114c0,.067-.005.135-.005.2a3.98,3.98,0,0,0,2.281,3.588,4.392,4.392,0,0,1,1.247.854l.362.363.251-.251a3.97,3.97,0,0,1,1.313-.882,3.949,3.949,0,0,0,2.473-3.673c0-.068,0-.135-.005-.2a.15.15,0,0,1,.044-.114,5.527,5.527,0,0,0,.516-.594.73.73,0,0,1-.17-.126,1.053,1.053,0,0,1-.157-1.087A2.786,2.786,0,0,1,32,7.59a2.765,2.765,0,0,1-.841.233,1.052,1.052,0,0,1-1.036-.367c-.312-.468-.031-1.208.64-1.825a2.846,2.846,0,0,1-.928.075,1.054,1.054,0,0,1-.943-.566c-.2-.489.161-1.11.853-1.575-.833-.005-1.478-.322-1.581-.841a1.053,1.053,0,0,1,.473-.992,2.765,2.765,0,0,1,.757-.429c-.788-.137-1.365-.523-1.467-1ZM26.088.3A1.336,1.336,0,0,1,24.93.764c-.005.1-.012.2-.02.3C25.75,1.032,26.456.708,26.6.3ZM23.536,5.585a11.257,11.257,0,0,1-1.009,1.507,2.811,2.811,0,0,0,1.175.436c.055.005.107.008.157.008a.685.685,0,0,0,.6-.244C24.724,6.9,24.3,6.132,23.536,5.585Zm1.608-.677c-.134.3-.71.336-1.3.087-.048.1-.1.2-.15.3a3.028,3.028,0,0,0,1.054.211c.436,0,.773-.131.879-.384a.779.779,0,0,0-.223-.762A2.8,2.8,0,0,0,24.4,3.622c-.027.082-.055.163-.083.245C24.909,4.139,25.28,4.6,25.143,4.908Zm-.625-1.686a3.391,3.391,0,0,0,.547.047c.689,0,1.236-.23,1.31-.6a.779.779,0,0,0-.37-.7,2.806,2.806,0,0,0-1.134-.522A11.1,11.1,0,0,1,24.519,3.222ZM23.762.3a3.6,3.6,0,0,0-1.607,1.14,1.89,1.89,0,0,1-.327.327,5.934,5.934,0,0,1,.378.8,2.776,2.776,0,0,0,.848,1.31l0,0,.012.011.01.009.009.012.008.012.006.013a.1.1,0,0,1,.006.014.118.118,0,0,1,0,.014.107.107,0,0,1,0,.014s0,.009,0,.013a.143.143,0,0,1,0,.017s0,0,0,0,0,.006,0,.009,0,.011,0,.016,0,.009,0,.014l0,.012a.149.149,0,0,1-.011.019l0,0h0a.176.176,0,0,1-.017.02l0,0a.144.144,0,0,1-.073.037h-.041a3.321,3.321,0,0,0-1.459.313,6.211,6.211,0,0,1-.877.281,1.89,1.89,0,0,1,0,.422,3.579,3.579,0,0,0,.34,1.96.15.15,0,0,1-.2.2,3.58,3.58,0,0,0-1.96-.34,1.871,1.871,0,0,1-.462,0,6.549,6.549,0,0,1-.283.846,3.278,3.278,0,0,0-.322,1.516.15.15,0,0,1-.264.109,3.351,3.351,0,0,0-1.338-.87,7.4,7.4,0,0,1-.753-.366,1.863,1.863,0,0,1-.316.312A3.581,3.581,0,0,0,13.9,10.164a.15.15,0,0,1-.288,0,3.581,3.581,0,0,0-1.146-1.627,1.882,1.882,0,0,1-.31-.3,8,8,0,0,1-.722.351,3.415,3.415,0,0,0-1.348.877l-.009.009-.012.012-.013.009-.012.007-.013.006-.015.006-.012,0a.06.06,0,0,1-.016,0H9.961A.15.15,0,0,1,9.9,9.5L9.88,9.481h0l-.007-.007L9.859,9.46l-.008-.013-.008-.012s0-.009-.006-.014a.1.1,0,0,1-.005-.014.108.108,0,0,1,0-.014.112.112,0,0,1,0-.014.146.146,0,0,1,0-.02s0-.006,0-.009A4.1,4.1,0,0,0,9.218,7l0-.009a1.886,1.886,0,0,1-.456,0,3.58,3.58,0,0,0-1.96.34A.151.151,0,0,1,6.62,7.3.149.149,0,0,1,6.6,7.126a3.561,3.561,0,0,0,.339-1.96,1.886,1.886,0,0,1,0-.431c-.24-.068-.477-.154-.706-.239A3.747,3.747,0,0,0,4.594,4.15a.15.15,0,0,1-.111-.263A3.582,3.582,0,0,0,5.319,2.6a7.033,7.033,0,0,1,.422-.813,1.868,1.868,0,0,1-.349-.343A3.6,3.6,0,0,0,3.785.3H3.436A10.325,10.325,0,0,0,24.085.3ZM22.747.3a.244.244,0,0,1-.185.085A.248.248,0,0,1,22.375.3H22.1a.4.4,0,0,1-.734,0h-.242a.609.609,0,0,1-.492.44,5.928,5.928,0,0,1-.171,1.066,1.472,1.472,0,0,0,1.461-.551A3.828,3.828,0,0,1,23.038.3ZM19.805,3.441A1.876,1.876,0,0,1,20.56,4.45a6.115,6.115,0,0,0,.829-.266,4.638,4.638,0,0,1,1.191-.328,3.862,3.862,0,0,1-.651-1.172,5.664,5.664,0,0,0-.353-.754,1.887,1.887,0,0,1-1.21.161A6.836,6.836,0,0,1,19.805,3.441ZM17.066,6.189a6.849,6.849,0,0,1-1.364.569,1.878,1.878,0,0,1-.171,1.216,7.324,7.324,0,0,0,.708.345A4.326,4.326,0,0,1,17.419,9a4.3,4.3,0,0,1,.345-1.269,6.315,6.315,0,0,0,.27-.8A1.885,1.885,0,0,1,17.066,6.189Zm3.249-1.058a1.472,1.472,0,0,0-.644-1.422,5.924,5.924,0,0,1-.623.865.611.611,0,0,1-.853.853,5.933,5.933,0,0,1-.864.623,1.472,1.472,0,0,0,1.422.644,3.882,3.882,0,0,1,1.778.215A3.874,3.874,0,0,1,20.314,5.131ZM12.655,8.3a3.869,3.869,0,0,1,1.1,1.409,3.87,3.87,0,0,1,1.1-1.409,1.472,1.472,0,0,0,.55-1.462,5.882,5.882,0,0,1-1.051.171.611.611,0,0,1-1.207,0,5.881,5.881,0,0,1-1.051-.171A1.473,1.473,0,0,0,12.655,8.3Zm7.291-8H19.48a.885.885,0,0,1-.614.746.88.88,0,0,1-.481,1.527.879.879,0,0,1-1.062,1.276.893.893,0,0,1,.015.158.881.881,0,0,1-1.279.787.881.881,0,0,1-1.5.481.882.882,0,0,1-1.614,0,.881.881,0,0,1-1.5-.484.88.88,0,0,1-1.264-.945.869.869,0,0,1-.3.055.881.881,0,0,1-.758-1.331.88.88,0,0,1-.48-1.528A.883.883,0,0,1,8.069.492.85.85,0,0,1,8.028.3H7.57a.612.612,0,0,1-.356.407A6.1,6.1,0,0,0,8.723,4.374a.611.611,0,0,1,.8.807,5.832,5.832,0,0,0,2.14,1.213,6.522,6.522,0,0,0,1.519.317.611.611,0,0,1,1.15,0A6.555,6.555,0,0,0,18,5.188a.611.611,0,0,1,.81-.813A6.554,6.554,0,0,0,20.321.71.614.614,0,0,1,19.946.3Zm-1.27,0c0,.164-.018.325-.039.485A.584.584,0,0,0,19.178.3ZM18.2,2.278a.557.557,0,0,0,.077.006A.581.581,0,0,0,18.567,1.2,4.887,4.887,0,0,1,18.2,2.278Zm-.862,1.249a.571.571,0,0,0,.291.08.581.581,0,0,0,.4-1.006A4.964,4.964,0,0,1,17.335,3.527Zm-1.227.948a.581.581,0,0,0,.931-.466.565.565,0,0,0-.026-.17A4.947,4.947,0,0,1,16.107,4.475Zm-1.4.505a.581.581,0,0,0,1.067-.32c0-.006,0-.013,0-.019a4.869,4.869,0,0,1-1.066.34Zm-1.525.056a.582.582,0,0,0,1.141,0,4.974,4.974,0,0,1-.56.032,5.023,5.023,0,0,1-.581-.035ZM11.735,4.66a.582.582,0,0,0,1.07.318,4.931,4.931,0,0,1-1.068-.343C11.736,4.643,11.735,4.651,11.735,4.66Zm-1.267-.651a.584.584,0,0,0,.583.583A.574.574,0,0,0,11.4,4.47a4.941,4.941,0,0,1-.908-.64A.577.577,0,0,0,10.468,4.009ZM17.445.3a.573.573,0,0,1-.38.4.57.57,0,0,1-.312.989.571.571,0,0,1-.491.863.581.581,0,0,1-.2-.036.566.566,0,0,1,.01.1.572.572,0,0,1-.572.571.561.561,0,0,1-.256-.062.571.571,0,0,1-.972.312.571.571,0,0,1-1.045,0,.571.571,0,0,1-.97-.314A.561.561,0,0,1,12,3.187a.572.572,0,0,1-.571-.571.566.566,0,0,1,.01-.1.558.558,0,0,1-.2.036.571.571,0,0,1-.491-.863A.569.569,0,0,1,10.444.7a.573.573,0,0,1-.371-.361c0-.011-.007-.024-.01-.036H9.143a4.619,4.619,0,0,0,9.234,0ZM16.365.3a2.609,2.609,0,0,1-5.21,0h-.33a2.938,2.938,0,0,0,5.864,0Zm-.633,0a1.978,1.978,0,0,1-3.945,0h-.333a2.31,2.31,0,0,0,4.61,0ZM9.3,3.024a.583.583,0,0,0,.583.583.576.576,0,0,0,.3-.085,4.964,4.964,0,0,1-.689-.928A.577.577,0,0,0,9.3,3.024ZM8.984,1.332A.93.93,0,0,1,8.937,1.2a.577.577,0,0,0-.288.5.584.584,0,0,0,.583.583.535.535,0,0,0,.09-.009A4.881,4.881,0,0,1,8.984,1.332ZM8.844.3H8.329a.537.537,0,0,0,.022.092.593.593,0,0,0,.387.371.58.58,0,0,0,.144.027C8.862.631,8.849.467,8.844.3Zm1.371,5.75a6.936,6.936,0,0,1-.879-.629.611.611,0,0,1-.855-.857,6.968,6.968,0,0,1-.61-.852,1.469,1.469,0,0,0-.638,1.418,3.872,3.872,0,0,1-.215,1.778,3.872,3.872,0,0,1,1.778-.215A1.473,1.473,0,0,0,10.215,6.051Zm1.6.706A6.869,6.869,0,0,1,10.473,6.2a1.885,1.885,0,0,1-.954.725,4.586,4.586,0,0,1,.618,2.064,4.51,4.51,0,0,1,1.179-.678c.225-.1.456-.2.678-.328A1.876,1.876,0,0,1,11.819,6.757ZM6,1.943a6.749,6.749,0,0,0-.407.781,4.889,4.889,0,0,1-.65,1.125,4.976,4.976,0,0,1,1.388.366c.216.08.439.161.661.225a1.871,1.871,0,0,1,.732-.986A6.847,6.847,0,0,1,7.156,2.1,1.875,1.875,0,0,1,6,1.943ZM6.9.75A.612.612,0,0,1,6.389.3H6.158a.4.4,0,0,1-.373.247A.4.4,0,0,1,5.414.3H5.143a.246.246,0,0,1-.381,0H4.507a3.821,3.821,0,0,1,1.12.955,1.469,1.469,0,0,0,1.451.552A6.849,6.849,0,0,1,6.9.75ZM2.723,0h27.29l.023,0,.023,0h.516L30.6,0l.023,0H40.944l.037,0h1.543l.023,0h14.77l.023,0,.023,0h8.532l.023,0,.023,0h.586l.023,0H70.2l.022,0h.586l.023,0,.022,0H79.39l.023,0,.022,0H136.78V.3h-.512c-.066.507-.659.918-1.478,1.06a2.8,2.8,0,0,1,.758.429,1.054,1.054,0,0,1,.473.992c-.11.552-.832.877-1.743.838a2.8,2.8,0,0,1,.709.6,1.052,1.052,0,0,1,.267,1.066c-.2.488-.9.672-1.716.511.586.592.817,1.273.523,1.713a1.053,1.053,0,0,1-1.036.367,2.767,2.767,0,0,1-.841-.233,2.8,2.8,0,0,1,.394.779,1.053,1.053,0,0,1-.158,1.087.748.748,0,0,1-.215.15,5.606,5.606,0,0,0,.5.574.148.148,0,0,1,.043.114c0,.067,0,.135,0,.2a3.947,3.947,0,0,0,2.472,3.672,3.964,3.964,0,0,1,1.313.882l.251.25h0v.53h-.009a.211.211,0,0,1-.21-.211.205.205,0,0,1,.017-.081.209.209,0,0,1-.3-.288.21.21,0,0,1-.308-.281.21.21,0,0,1-.353-.154.206.206,0,0,1,.018-.084.21.21,0,0,1-.36-.212h0a.21.21,0,0,1-.4-.1.229.229,0,0,1,.007-.05.21.21,0,0,1-.381-.123.208.208,0,0,1,.018-.084.21.21,0,0,1-.379-.126.207.207,0,0,1,.022-.092.209.209,0,0,1-.345-.161.207.207,0,0,1,.027-.1.21.21,0,0,1-.294-.3.207.207,0,0,1-.111.032.21.21,0,0,1-.152-.356.209.209,0,0,1-.345-.16.212.212,0,0,1,.092-.174.2.2,0,0,1-.063.011.21.21,0,0,1-.108-.391h0a.2.2,0,0,1-.091.022.21.21,0,0,1-.087-.4.219.219,0,0,1-.072.013.21.21,0,0,1-.085-.4.21.21,0,0,1-.091-.4.209.209,0,0,1-.052-.408.209.209,0,0,1-.121-.334.208.208,0,0,1-.068-.369v0a.209.209,0,0,1-.343-.163.207.207,0,0,1,.057-.143.209.209,0,0,1-.29-.092c-.042-.006-.086-.012-.13-.022a6.2,6.2,0,0,0,.6.767.15.15,0,0,1,.04.1,4.554,4.554,0,0,0,2.85,4.205,3.365,3.365,0,0,1,1.113.749l.356.356a.453.453,0,0,0,.322.133h0v.3h0a.75.75,0,0,1-.534-.221l-.356-.356a3.076,3.076,0,0,0-1.013-.684,4.852,4.852,0,0,1-3.036-4.422,6.536,6.536,0,0,1-.795-1.078,3.006,3.006,0,0,1-.493-.285,2.791,2.791,0,0,1,.233.841,1.054,1.054,0,0,1-.367,1.036c-.468.312-1.208.032-1.825-.64a2.846,2.846,0,0,1,.075.928,1.055,1.055,0,0,1-.566.943c-.489.2-1.11-.161-1.575-.853,0,.833-.322,1.478-.841,1.581a1.054,1.054,0,0,1-.992-.473,2.78,2.78,0,0,1-.429-.757c-.151.869-.6,1.485-1.154,1.485s-1-.615-1.154-1.485a2.781,2.781,0,0,1-.429.757,1.053,1.053,0,0,1-.992.473c-.551-.11-.877-.832-.838-1.743a2.83,2.83,0,0,1-.6.71,1.055,1.055,0,0,1-1.067.267c-.487-.2-.671-.9-.511-1.717-.592.587-1.273.817-1.713.524a1.055,1.055,0,0,1-.367-1.036,2.792,2.792,0,0,1,.233-.841,2.972,2.972,0,0,1-.576.321,6.523,6.523,0,0,1-.771,1.039,4.853,4.853,0,0,1-3.036,4.423,3.063,3.063,0,0,0-1.013.684l-.356.356a.756.756,0,0,1-1.068,0l-.468-.469a3.51,3.51,0,0,0-.992-.675,4.894,4.894,0,0,1-2.8-4.32,6.516,6.516,0,0,1-.769-1.041,2.969,2.969,0,0,1-.569-.318,2.793,2.793,0,0,1,.233.841,1.056,1.056,0,0,1-.367,1.036c-.469.312-1.208.032-1.825-.64a2.823,2.823,0,0,1,.074.928,1.054,1.054,0,0,1-.565.943c-.489.2-1.11-.161-1.575-.853,0,.833-.322,1.478-.841,1.581a1.054,1.054,0,0,1-.992-.473,2.781,2.781,0,0,1-.429-.757c-.151.869-.6,1.485-1.154,1.485s-1-.615-1.154-1.485a2.781,2.781,0,0,1-.429.757,1.054,1.054,0,0,1-.992.473c-.551-.11-.877-.832-.838-1.743a2.83,2.83,0,0,1-.6.71,1.055,1.055,0,0,1-1.067.267c-.488-.2-.671-.9-.511-1.717-.592.587-1.273.817-1.713.524a1.054,1.054,0,0,1-.367-1.036,2.793,2.793,0,0,1,.233-.841,2.981,2.981,0,0,1-.576.321,6.533,6.533,0,0,1-.771,1.039,4.853,4.853,0,0,1-3.036,4.422,3.058,3.058,0,0,0-1.013.684l-.356.356a.756.756,0,0,1-1.068,0l-.468-.469a3.509,3.509,0,0,0-.992-.675,4.894,4.894,0,0,1-2.8-4.32,6.482,6.482,0,0,1-.775-1.052,2.871,2.871,0,0,1-.692-.365,2.792,2.792,0,0,1,.233.841,1.055,1.055,0,0,1-.367,1.036c-.468.312-1.208.031-1.825-.64a2.843,2.843,0,0,1,.075.928,1.053,1.053,0,0,1-.566.942c-.489.2-1.11-.16-1.575-.852-.005.833-.323,1.478-.841,1.581a1.054,1.054,0,0,1-.992-.473,2.77,2.77,0,0,1-.428-.757c-.152.869-.6,1.484-1.155,1.484s-1-.615-1.154-1.484a2.789,2.789,0,0,1-.429.757,1.054,1.054,0,0,1-.992.473c-.552-.11-.877-.832-.838-1.743a2.823,2.823,0,0,1-.6.71,1.056,1.056,0,0,1-1.066.267c-.488-.2-.672-.9-.511-1.717-.593.586-1.273.817-1.713.524a1.054,1.054,0,0,1-.367-1.036,2.786,2.786,0,0,1,.233-.841,2.982,2.982,0,0,1-.577.321,6.545,6.545,0,0,1-.771,1.039A4.854,4.854,0,0,1,56.55,15a3.068,3.068,0,0,0-1.013.683l-.356.356a.754.754,0,0,1-1.068,0l-.468-.468a3.508,3.508,0,0,0-.992-.675,4.893,4.893,0,0,1-2.8-4.32,6.488,6.488,0,0,1-.769-1.041,2.99,2.99,0,0,1-.57-.318,2.786,2.786,0,0,1,.233.841A1.055,1.055,0,0,1,48.38,11.1c-.468.312-1.208.031-1.825-.64a2.819,2.819,0,0,1,.075.928,1.052,1.052,0,0,1-.565.942c-.49.2-1.111-.16-1.575-.852,0,.833-.323,1.478-.841,1.581a1.053,1.053,0,0,1-.992-.473,2.786,2.786,0,0,1-.429-.757c-.151.869-.6,1.484-1.154,1.484s-1-.615-1.154-1.484a2.785,2.785,0,0,1-.429.757,1.053,1.053,0,0,1-.992.473c-.552-.11-.877-.832-.838-1.743a2.823,2.823,0,0,1-.6.71,1.056,1.056,0,0,1-1.066.267c-.488-.2-.672-.9-.511-1.717-.593.586-1.273.817-1.713.524a1.055,1.055,0,0,1-.367-1.036,2.787,2.787,0,0,1,.233-.841,2.978,2.978,0,0,1-.577.321,6.545,6.545,0,0,1-.771,1.039A4.854,4.854,0,0,1,29.247,15a3.069,3.069,0,0,0-1.013.683l-.356.356a.754.754,0,0,1-1.068,0l-.468-.468a3.506,3.506,0,0,0-.992-.675,4.893,4.893,0,0,1-2.8-4.32,6.517,6.517,0,0,1-.764-1.033,3,3,0,0,1-.584-.324,2.774,2.774,0,0,1,.233.841,1.054,1.054,0,0,1-.367,1.036c-.468.312-1.208.032-1.825-.64a2.817,2.817,0,0,1,.075.928,1.054,1.054,0,0,1-.565.943c-.49.2-1.111-.161-1.575-.853,0,.833-.323,1.478-.841,1.581a1.053,1.053,0,0,1-.992-.473,2.773,2.773,0,0,1-.429-.757c-.151.869-.6,1.485-1.154,1.485s-1-.615-1.154-1.485a2.775,2.775,0,0,1-.429.757,1.053,1.053,0,0,1-.992.473c-.551-.11-.877-.832-.838-1.743a2.825,2.825,0,0,1-.6.71,1.055,1.055,0,0,1-1.066.267c-.488-.2-.672-.9-.511-1.717-.593.587-1.273.817-1.713.524a1.054,1.054,0,0,1-.367-1.036,2.776,2.776,0,0,1,.233-.841,2.966,2.966,0,0,1-.6.331,6.561,6.561,0,0,1-.769,1.035,4.852,4.852,0,0,1-3.036,4.422A3.062,3.062,0,0,0,.9,15.7l-.356.356a.75.75,0,0,1-.534.221h0v-.3h0a.454.454,0,0,0,.322-.133l.356-.356A3.362,3.362,0,0,1,1.8,14.736a4.556,4.556,0,0,0,2.85-4.205.149.149,0,0,1,.04-.1,6.285,6.285,0,0,0,.6-.754c-.042.006-.083.011-.124.014a.21.21,0,0,1-.186.114.2.2,0,0,1-.1-.027.21.21,0,0,1-.286.306l0,0a.209.209,0,0,1-.068.369.209.209,0,0,1-.121.334.209.209,0,0,1-.051.408.21.21,0,0,1-.091.4.21.21,0,0,1-.085.4.2.2,0,0,1-.072-.014.21.21,0,0,1-.087.4.207.207,0,0,1-.092-.022h0a.21.21,0,0,1-.108.391.2.2,0,0,1-.063-.011.21.21,0,1,1-.253.334.21.21,0,0,1-.263.324.208.208,0,0,1,.051.135.209.209,0,0,1-.344.161.207.207,0,0,1,.026.1.21.21,0,0,1-.344.161.206.206,0,0,1,.022.091.21.21,0,0,1-.378.126.21.21,0,0,1-.363.207.2.2,0,0,1,.007.051.21.21,0,0,1-.4.1h0a.21.21,0,0,1-.36.211.21.21,0,0,1-.193.3.209.209,0,0,1-.142-.056.21.21,0,0,1-.171.332.206.206,0,0,1-.137-.052.21.21,0,0,1-.3.289.209.209,0,0,1,.016.081.211.211,0,0,1-.21.211l-.008,0v-.53h0l.251-.25a3.973,3.973,0,0,1,1.313-.882A3.947,3.947,0,0,0,4.044,10.5c0-.068,0-.135-.005-.2a.148.148,0,0,1,.044-.113,5.62,5.62,0,0,0,.526-.608.731.731,0,0,1-.156-.119,1.053,1.053,0,0,1-.157-1.087,2.786,2.786,0,0,1,.393-.779,2.764,2.764,0,0,1-.841.233,1.052,1.052,0,0,1-1.036-.367c-.312-.468-.031-1.208.64-1.825a2.826,2.826,0,0,1-.929.075,1.054,1.054,0,0,1-.943-.565c-.2-.489.161-1.111.853-1.575C1.6,3.564.955,3.246.851,2.727a1.053,1.053,0,0,1,.473-.992,2.784,2.784,0,0,1,.757-.429C1.292,1.169.714.783.614.3H0V0H2.723" transform="translate(0 4.936)" fill="#3c2415"/></g></svg>