<svg xmlns="http://www.w3.org/2000/svg" width="65.245" height="419.735" viewBox="0 0 65.245 419.735"><g transform="translate(0 419.735) rotate(-90)"><path d="M416.715.919H416.7a3.043,3.043,0,0,1-6.018,0h-.08a3.042,3.042,0,0,1-6.016,0h-.057a3.043,3.043,0,0,1-6.018,0h-.08a3.043,3.043,0,0,1-6.018,0h-.077a3.043,3.043,0,0,1-6.018,0h-.079a3.042,3.042,0,0,1-6.016,0H380.2a3.043,3.043,0,0,1-6.018,0H374.1a3.042,3.042,0,0,1-6.016,0h-.057a3.043,3.043,0,0,1-6.018,0h-.079a3.043,3.043,0,0,1-6.018,0h-.091a3.043,3.043,0,0,1-6.018,0h-.079a3.042,3.042,0,0,1-6.016,0h-.018a3.043,3.043,0,0,1-6.018,0H337.6a3.042,3.042,0,0,1-6.016,0h-.06a3.042,3.042,0,0,1-6.016,0h-.08a3.043,3.043,0,0,1-6.018,0h-.077a3.043,3.043,0,0,1-6.018,0h-.079a3.043,3.043,0,0,1-6.018,0H307.2a3.043,3.043,0,0,1-6.018,0h-.08a3.042,3.042,0,0,1-6.016,0h-.06a3.042,3.042,0,0,1-6.016,0h-.077a3.043,3.043,0,0,1-6.018,0h-.079a3.043,3.043,0,0,1-6.018,0H276.8a3.043,3.043,0,0,1-6.018,0H270.7a3.042,3.042,0,0,1-6.016,0h-.06a3.042,3.042,0,0,1-6.016,0h-.08a3.043,3.043,0,0,1-6.018,0h-.091a3.043,3.043,0,0,1-6.018,0h-.079a3.043,3.043,0,0,1-6.018,0h-.016a3.043,3.043,0,0,1-6.018,0h-.079a3.042,3.042,0,0,1-6.016,0h-.06a3.042,3.042,0,0,1-6.016,0h-.08a3.043,3.043,0,0,1-6.018,0h-.077a3.043,3.043,0,0,1-6.018,0h-.08a3.043,3.043,0,0,1-6.017,0H203.8a3.043,3.043,0,0,1-6.017,0h-.08a3.042,3.042,0,0,1-6.017,0h-.058a3.043,3.043,0,0,1-6.017,0h-.08a3.043,3.043,0,0,1-6.018,0h-.089a3.043,3.043,0,0,1-6.018,0h-.08a3.043,3.043,0,0,1-6.017,0h-.017a3.043,3.043,0,0,1-6.017,0h-.08a3.043,3.043,0,0,1-6.017,0h-.058a3.043,3.043,0,0,1-6.017,0h-.08a3.043,3.043,0,0,1-6.018,0h-.077a3.043,3.043,0,0,1-6.018,0h-.08a3.043,3.043,0,0,1-6.017,0h-.017a3.043,3.043,0,0,1-6.017,0h-.079a3.043,3.043,0,0,1-6.017,0h-.058a3.043,3.043,0,0,1-6.017,0h-.08a3.044,3.044,0,0,1-6.019,0h-.089a3.043,3.043,0,0,1-6.018,0h-.08a3.043,3.043,0,0,1-6.017,0h-.017a3.043,3.043,0,0,1-6.017,0h-.079a3.043,3.043,0,0,1-6.017,0H82.11a3.043,3.043,0,0,1-6.017,0h-.08A3.043,3.043,0,0,1,70,.919h-.076a3.044,3.044,0,0,1-6.019,0h-.08a3.043,3.043,0,0,1-6.017,0h-.017a3.043,3.043,0,0,1-6.017,0h-.08a3.043,3.043,0,0,1-6.017,0h-.058a3.042,3.042,0,0,1-6.017,0h-.08a3.044,3.044,0,0,1-6.019,0H33.41a3.043,3.043,0,0,1-6.018,0h-.08a3.043,3.043,0,0,1-6.017,0h-.017a3.043,3.043,0,0,1-6.017,0h-.08a3.043,3.043,0,0,1-6.017,0H9.106a3.043,3.043,0,0,1-6.017,0h-.08A3.046,3.046,0,0,1,0,3.507V0H419.734V3.5l-.011,0A3.044,3.044,0,0,1,416.715.919" transform="translate(0)" fill="#3c2415"/><path d="M0,3.047V0A3.045,3.045,0,0,1,3.011,2.6h.076a3.043,3.043,0,0,1,6.02,0h.055a3.042,3.042,0,0,1,6.02,0h.076a3.043,3.043,0,0,1,6.021,0h.013a3.043,3.043,0,0,1,6.021,0h.076a3.044,3.044,0,0,1,6.022,0H33.5a3.044,3.044,0,0,1,6.022,0H39.6a3.042,3.042,0,0,1,6.02,0h.056a3.042,3.042,0,0,1,6.02,0h.076a3.043,3.043,0,0,1,6.021,0H57.8a3.043,3.043,0,0,1,6.021,0H63.9a3.044,3.044,0,0,1,6.022,0h.073a3.043,3.043,0,0,1,6.022,0h.076a3.043,3.043,0,0,1,6.02,0h.055a3.042,3.042,0,0,1,6.02,0h.076a3.043,3.043,0,0,1,6.021,0H94.3a3.043,3.043,0,0,1,6.021,0h.076a3.043,3.043,0,0,1,6.022,0h.086a3.043,3.043,0,0,1,6.022,0h.076a3.043,3.043,0,0,1,6.02,0h.055a3.042,3.042,0,0,1,6.02,0h.076a3.043,3.043,0,0,1,6.021,0h.013a3.043,3.043,0,0,1,6.021,0h.076a3.044,3.044,0,0,1,6.022,0H143a3.044,3.044,0,0,1,6.022,0h.076a3.043,3.043,0,0,1,6.02,0h.055a3.042,3.042,0,0,1,6.02,0h.076a3.043,3.043,0,0,1,6.021,0h.013a3.043,3.043,0,0,1,6.021,0h.076a3.043,3.043,0,0,1,6.022,0h.086a3.044,3.044,0,0,1,6.022,0h.076a3.043,3.043,0,0,1,6.02,0h.055a3.042,3.042,0,0,1,6.02,0h.076a3.043,3.043,0,0,1,6.021,0h.013a3.043,3.043,0,0,1,6.021,0h.076a3.044,3.044,0,0,1,6.023,0H216a3.044,3.044,0,0,1,6.023,0h.075a3.043,3.043,0,0,1,6.02,0h.055a3.043,3.043,0,0,1,6.02,0h.075a3.044,3.044,0,0,1,6.023,0h.013a3.043,3.043,0,0,1,6.02,0h.075a3.044,3.044,0,0,1,6.023,0h.086a3.044,3.044,0,0,1,6.023,0h.075a3.043,3.043,0,0,1,6.02,0h.055a3.043,3.043,0,0,1,6.02,0h.075a3.044,3.044,0,0,1,6.023,0h.013a3.043,3.043,0,0,1,6.02,0h.075a3.044,3.044,0,0,1,6.023,0h.073a3.043,3.043,0,0,1,6.02,0h.055a3.043,3.043,0,0,1,6.02,0h.075a3.044,3.044,0,0,1,6.023,0h.011a3.044,3.044,0,0,1,6.023,0h.075a3.044,3.044,0,0,1,6.023,0h.073a3.044,3.044,0,0,1,6.023,0h.075a3.043,3.043,0,0,1,6.02,0h.055a3.043,3.043,0,0,1,6.02,0h.077a3.043,3.043,0,0,1,6.02,0h.013a3.043,3.043,0,0,1,6.02,0h.075a3.044,3.044,0,0,1,6.023,0h.086a3.044,3.044,0,0,1,6.023,0h.075a3.043,3.043,0,0,1,6.02,0h.055a3.043,3.043,0,0,1,6.02,0h.077a3.043,3.043,0,0,1,6.02,0h.013a3.043,3.043,0,0,1,6.02,0h.075a3.044,3.044,0,0,1,6.023,0h.073a3.044,3.044,0,0,1,6.023,0h.075a3.043,3.043,0,0,1,6.02,0h.055a3.043,3.043,0,0,1,6.02,0h.077a3.043,3.043,0,0,1,6.02,0h.013a3.043,3.043,0,0,1,3.01-2.6h.011V3.518H0V3.047" transform="translate(0 7.964)" fill="#3c2415"/><path d="M4.647,6.034A2.39,2.39,0,0,0,3.512,8.189c.227,1.137,1.906,1.842,4.02,1.842a10.357,10.357,0,0,0,1.679-.144A34.051,34.051,0,0,1,8.127,4.432,8.613,8.613,0,0,0,4.647,6.034Zm3.3-3.779c-1.63-.018-3-.572-3.456-1.329H2.83c.436,1.248,2.6,2.241,5.18,2.323C7.983,2.92,7.96,2.588,7.943,2.255ZM5.7,15.435A2.392,2.392,0,0,0,7.835,16.6a5.9,5.9,0,0,0,.631.033,9.2,9.2,0,0,0,3.159-.623c-.155-.3-.3-.612-.451-.921-1.8.755-3.558.643-3.969-.276-.42-.939.722-2.363,2.554-3.2-.086-.25-.169-.5-.249-.753C6.875,12.045,5.146,14.09,5.7,15.436ZM9.39,22.379a2.391,2.391,0,0,0,2.326.725,8.624,8.624,0,0,0,3.605-1.338,34.535,34.535,0,0,1-3.094-4.625C9.875,18.819,8.582,21.168,9.39,22.379Zm4.668,3.578a2.391,2.391,0,0,0,.253,2.423,1.722,1.722,0,0,0,1.26.446,4.056,4.056,0,0,0,1.162-.192,8.621,8.621,0,0,0,3.275-2.018c-.27-.23-.536-.462-.8-.7-1.412,1.42-3.133,1.994-3.866,1.281s-.193-2.489,1.226-3.946c-.166-.188-.331-.376-.493-.568A8.614,8.614,0,0,0,14.059,25.956ZM20.312,33.3a1.525,1.525,0,0,0,.861.241c1.274,0,3.039-1.2,4.378-3.079a34.464,34.464,0,0,1-4.623-3.094,8.61,8.61,0,0,0-1.338,3.6A2.394,2.394,0,0,0,20.312,33.3Zm6.669,3.578a1.4,1.4,0,0,0,.543.106,2.991,2.991,0,0,0,1.795-.791A8.592,8.592,0,0,0,31.577,33.1c-.29-.093-.578-.192-.864-.294-.793,1.853-2.194,3.03-3.143,2.63s-1.087-2.222-.316-4.083c-.271-.133-.539-.267-.806-.406C25.416,33.646,25.639,36.319,26.981,36.88Zm15.244-3A33.447,33.447,0,0,0,75.63.926h-.8a32.6,32.6,0,0,1-65.2,0h-.8a33.447,33.447,0,0,0,33.4,32.951Zm-7.723,5.3a2.4,2.4,0,0,0,2.156-1.133,8.6,8.6,0,0,0,1.6-3.48A33.97,33.97,0,0,1,32.8,33.479C32.33,36.325,33.077,38.9,34.5,39.179Zm7.723.764c1.454,0,2.691-2.376,2.783-5.261-.337.026-.674.051-1.014.068H44.1c0,2.034-.841,3.686-1.877,3.686s-1.877-1.652-1.877-3.686h.108c-.339-.018-.677-.042-1.014-.068C39.535,37.567,40.771,39.943,42.226,39.943Zm5.567-1.9a2.655,2.655,0,0,0,1.894,1.16,1.3,1.3,0,0,0,.261-.026c1.425-.283,2.173-2.854,1.7-5.7a33.968,33.968,0,0,1-5.457,1.087A8.6,8.6,0,0,0,47.793,38.046Zm8.864-.949a1.415,1.415,0,0,0,.537-.1,2.4,2.4,0,0,0,1.169-2.138,8.605,8.605,0,0,0-.593-3.788c-.264.133-.531.265-.8.393.761,1.855.62,3.666-.325,4.064s-2.352-.78-3.144-2.637c-.29.1-.582.2-.876.294C53.658,35.486,55.349,37.1,56.657,37.1Zm6.621-3.553a1.525,1.525,0,0,0,.861-.241,2.4,2.4,0,0,0,.722-2.328,8.61,8.61,0,0,0-1.338-3.6A34.469,34.469,0,0,1,58.9,30.464C60.239,32.339,62,33.543,63.278,33.543Zm4.438-4.91a4.057,4.057,0,0,0,1.162.192,1.723,1.723,0,0,0,1.26-.446,2.391,2.391,0,0,0,.253-2.423,8.614,8.614,0,0,0-2.019-3.275c-.187.221-.377.438-.57.654,1.419,1.458,1.968,3.225,1.226,3.947s-2.463.139-3.877-1.29c-.234.212-.472.417-.712.623A8.622,8.622,0,0,0,67.717,28.633Zm2.273,3.344a.458.458,0,0,1,.122.309,14.1,14.1,0,0,0,8.068,12.608,11.62,11.62,0,0,1,3.3,2.253l1.436,1.436a1.4,1.4,0,0,0,1.977,0l1.094-1.093a10.32,10.32,0,0,1,3.413-2.3,13.974,13.974,0,0,0,8.747-12.9.457.457,0,0,1,.123-.309,19.348,19.348,0,0,0,1.824-2.3c-.13.022-.258.037-.382.046a.633.633,0,0,1-.873.252.644.644,0,0,1-.877.939l0,0a.641.641,0,0,1-.208,1.133.637.637,0,0,1,.138.393.644.644,0,0,1-.509.632.642.642,0,0,1-.157,1.252.642.642,0,0,1-.279,1.215.646.646,0,0,1-.261,1.237.614.614,0,0,1-.221-.042.645.645,0,1,1-.549,1.167h0a.643.643,0,0,1-.33,1.2.687.687,0,0,1-.193-.031.644.644,0,1,1-.778,1.025.644.644,0,0,1-.806.994.643.643,0,0,1-.9.91.636.636,0,0,1,.081.307.646.646,0,0,1-.646.645.631.631,0,0,1-.411-.152.643.643,0,0,1-.579.927.641.641,0,0,1-.514-.258.636.636,0,0,1,.055.258.645.645,0,0,1-1.169.375.64.64,0,0,1-.625.8.641.641,0,0,1-.57-.349s0,0,0,0a.644.644,0,0,1-1.1.647.646.646,0,0,1-.591.906.641.641,0,0,1-.436-.172.643.643,0,0,1-.946.859.642.642,0,0,1-.922.883.653.653,0,0,1,.05.252.646.646,0,0,1-1.292,0c0-.02,0-.037.006-.057a.622.622,0,0,1-.273.057.643.643,0,0,1-.493-1.045.636.636,0,0,1-.423.15.645.645,0,0,1-.633-.658.635.635,0,0,1,.127-.368.644.644,0,0,1-1.012-.753.643.643,0,0,1-1.062-.722h0a.644.644,0,0,1-1.214-.424.644.644,0,0,1-1.1-.656.644.644,0,0,1-1.152-.411.64.64,0,0,1,.072-.278.643.643,0,0,1-1.047-.515.636.636,0,0,1,.087-.3.642.642,0,0,1-1.047-.515.641.641,0,0,1,.163-.413A.645.645,0,0,1,73.491,40a.624.624,0,0,1-.419.148.646.646,0,0,1-.339-1.188A.631.631,0,0,1,72.54,39a.645.645,0,0,1-.323-1.2.645.645,0,0,1-.9-.605.651.651,0,0,1,.39-.581.617.617,0,0,1-.222.038.644.644,0,0,1-.237-1.239.643.643,0,0,1-.255-1.221.642.642,0,0,1-.133-1.254.646.646,0,0,1-.5-.64.632.632,0,0,1,.145-.391.642.642,0,0,1-.27-1.066l-.013-.015a.637.637,0,0,1-.316.079.648.648,0,0,1-.633-.66.627.627,0,0,1,.163-.4l-.013-.018a.628.628,0,0,1-.28.064.637.637,0,0,1-.39-.143,4.858,4.858,0,0,1-.571-.055,18.965,18.965,0,0,0,1.8,2.292Zm33.833-5.369c-.269-.23-.536-.461-.8-.7-1.412,1.42-3.133,1.994-3.866,1.281s-.193-2.491,1.226-3.946c-.167-.188-.331-.378-.493-.568a8.607,8.607,0,0,0-2.019,3.275,2.391,2.391,0,0,0,.253,2.422,1.723,1.723,0,0,0,1.261.446,4.071,4.071,0,0,0,1.162-.192A8.621,8.621,0,0,0,103.823,26.608Zm.3,6.688a1.525,1.525,0,0,0,.861.241c1.275,0,3.039-1.2,4.378-3.079a34.418,34.418,0,0,1-4.623-3.094,8.609,8.609,0,0,0-1.338,3.6A2.4,2.4,0,0,0,104.125,33.3Zm6.669,3.578a1.4,1.4,0,0,0,.544.106,2.993,2.993,0,0,0,1.795-.791,8.612,8.612,0,0,0,2.258-3.094q-.435-.142-.864-.293c-.793,1.853-2.194,3.03-3.143,2.63s-1.087-2.222-.317-4.083c-.271-.132-.539-.27-.806-.406C109.229,33.64,109.452,36.312,110.794,36.873Zm15.245-3A33.445,33.445,0,0,0,159.439.926h-.8a32.6,32.6,0,0,1-65.2,0h-.8A33.448,33.448,0,0,0,126.039,33.87Zm-7.723,5.3a2.391,2.391,0,0,0,2.156-1.135,8.593,8.593,0,0,0,1.6-3.481,33.772,33.772,0,0,1-5.457-1.084c-.472,2.847.275,5.415,1.7,5.7Zm7.723.764c1.454,0,2.691-2.376,2.783-5.26q-.506.04-1.014.066h.108c0,2.036-.84,3.688-1.877,3.688s-1.877-1.652-1.877-3.688h.107q-.508-.026-1.013-.066C123.348,37.56,124.584,39.936,126.039,39.936Zm5.567-1.9A2.652,2.652,0,0,0,133.5,39.2a1.3,1.3,0,0,0,.261-.026c1.425-.285,2.173-2.853,1.7-5.7a33.988,33.988,0,0,1-5.457,1.084A8.593,8.593,0,0,0,131.606,38.037Zm8.864-.948a1.42,1.42,0,0,0,.538-.1,2.4,2.4,0,0,0,1.169-2.138,8.611,8.611,0,0,0-.593-3.79c-.264.135-.531.267-.8.4.761,1.855.62,3.666-.325,4.064s-2.352-.78-3.144-2.637c-.29.1-.582.2-.876.294C137.471,35.477,139.162,37.09,140.47,37.09Zm6.621-3.553a1.525,1.525,0,0,0,.861-.241,2.4,2.4,0,0,0,.722-2.328,8.612,8.612,0,0,0-1.339-3.606,34.484,34.484,0,0,1-4.623,3.094c1.339,1.877,3.1,3.081,4.379,3.081Zm4.438-4.909a4.073,4.073,0,0,0,1.162.192,1.724,1.724,0,0,0,1.26-.446,2.39,2.39,0,0,0,.253-2.423,8.628,8.628,0,0,0-2.021-3.278c-.187.221-.377.438-.57.654,1.421,1.458,1.97,3.224,1.228,3.949s-2.464.139-3.878-1.29q-.352.315-.713.62a8.609,8.609,0,0,0,3.277,2.021Zm2.244,3.35a.459.459,0,0,1,.122.309,14.1,14.1,0,0,0,8.068,12.608,11.611,11.611,0,0,1,3.3,2.253l1.436,1.436a1.4,1.4,0,0,0,1.977,0l1.094-1.093a10.318,10.318,0,0,1,3.413-2.3,13.974,13.974,0,0,0,8.747-12.9.458.458,0,0,1,.122-.309,19.3,19.3,0,0,0,1.824-2.3c-.13.022-.257.037-.382.046a.633.633,0,0,1-.873.252.644.644,0,0,1-.877.939l0,0a.642.642,0,0,1-.208,1.133.636.636,0,0,1,.138.393.644.644,0,0,1-.51.632.642.642,0,0,1-.157,1.252.642.642,0,0,1-.278,1.215.646.646,0,0,1-.261,1.237.614.614,0,0,1-.221-.042A.645.645,0,1,1,179.7,37.9h0a.643.643,0,0,1-.33,1.2.69.69,0,0,1-.193-.031.644.644,0,1,1-.777,1.025.644.644,0,0,1-.806.994.643.643,0,0,1-.9.91.636.636,0,0,1,.081.307.646.646,0,0,1-.646.645.631.631,0,0,1-.411-.152.642.642,0,0,1-.579.927.641.641,0,0,1-.514-.259.644.644,0,0,1-1.114.634.658.658,0,0,1,.021.155.643.643,0,0,1-1.216.3s0,0,0,0a.644.644,0,0,1-1.1.647.646.646,0,0,1-.591.906.641.641,0,0,1-.435-.172.643.643,0,0,1-.946.859.642.642,0,0,1-.922.883.655.655,0,0,1,.051.252.646.646,0,0,1-1.292,0c0-.02,0-.037.006-.057a.63.63,0,0,1-.273.057.644.644,0,0,1-.493-1.045.636.636,0,0,1-.423.15.645.645,0,0,1-.633-.658.636.636,0,0,1,.127-.368.645.645,0,0,1-1.013-.753.643.643,0,0,1-1.062-.722h0a.646.646,0,0,1-1.238-.27.665.665,0,0,1,.024-.155.645.645,0,0,1-1.1-.656.643.643,0,0,1-1.152-.411.636.636,0,0,1,.072-.278.643.643,0,0,1-1.047-.515.635.635,0,0,1,.087-.3.643.643,0,0,1-.884-.928A.644.644,0,0,1,157.276,40a.625.625,0,0,1-.419.148.646.646,0,0,1-.339-1.188.632.632,0,0,1-.194.031A.645.645,0,0,1,156,37.8a.645.645,0,0,1-.9-.605.65.65,0,0,1,.39-.581.617.617,0,0,1-.222.038.644.644,0,0,1-.237-1.239.643.643,0,0,1-.255-1.221.642.642,0,0,1-.133-1.254.646.646,0,0,1-.5-.64.633.633,0,0,1,.145-.391.642.642,0,0,1-.27-1.066l-.013-.015a.638.638,0,0,1-.316.079.648.648,0,0,1-.633-.66.624.624,0,0,1,.163-.4l-.013-.018a.621.621,0,0,1-.678-.086,4.448,4.448,0,0,1-.572-.064,18.874,18.874,0,0,0,1.813,2.308Zm33.833-5.369c-.27-.23-.536-.462-.8-.7-1.412,1.42-3.133,1.994-3.866,1.281s-.193-2.491,1.226-3.946c-.166-.188-.331-.378-.493-.568a8.606,8.606,0,0,0-2.019,3.275,2.39,2.39,0,0,0,.253,2.423,1.723,1.723,0,0,0,1.26.446,4.072,4.072,0,0,0,1.162-.192A8.626,8.626,0,0,0,187.607,26.608Zm.3,6.688a1.525,1.525,0,0,0,.861.241c1.274,0,3.039-1.2,4.378-3.079a34.416,34.416,0,0,1-4.623-3.094,8.6,8.6,0,0,0-1.338,3.6A2.4,2.4,0,0,0,187.909,33.3Zm6.669,3.578a1.4,1.4,0,0,0,.543.106,2.992,2.992,0,0,0,1.795-.791,8.611,8.611,0,0,0,2.258-3.094q-.435-.142-.864-.293c-.793,1.853-2.194,3.03-3.143,2.63s-1.087-2.222-.316-4.083c-.271-.132-.539-.27-.806-.406C193.013,33.64,193.236,36.312,194.578,36.873Zm15.244-3A33.447,33.447,0,0,0,243.227.926h-.8a32.6,32.6,0,0,1-65.2,0h-.8A33.448,33.448,0,0,0,209.823,33.869Zm-7.723,5.3a2.391,2.391,0,0,0,2.156-1.135,8.584,8.584,0,0,0,1.6-3.48,33.807,33.807,0,0,1-5.457-1.084C199.926,36.319,200.674,38.887,202.1,39.172Zm7.723.764c1.454,0,2.691-2.376,2.784-5.261q-.5.04-1.014.066h.108c0,2.036-.841,3.688-1.878,3.688s-1.877-1.652-1.877-3.688h.107q-.509-.026-1.013-.066C207.132,37.56,208.368,39.936,209.823,39.936Zm5.566-1.9a2.655,2.655,0,0,0,1.895,1.162,1.317,1.317,0,0,0,.263-.026c1.424-.285,2.173-2.853,1.7-5.7a33.837,33.837,0,0,1-5.457,1.084,8.592,8.592,0,0,0,1.6,3.48Zm8.865-.947a1.431,1.431,0,0,0,.539-.1,2.4,2.4,0,0,0,1.168-2.138,8.628,8.628,0,0,0-.592-3.79c-.265.135-.532.267-.8.4.76,1.855.621,3.666-.325,4.064s-2.352-.78-3.145-2.637c-.289.1-.583.2-.877.293C221.255,35.477,222.946,37.09,224.254,37.09Zm6.621-3.554a1.523,1.523,0,0,0,.861-.241,2.4,2.4,0,0,0,.722-2.328,8.619,8.619,0,0,0-1.338-3.6,34.511,34.511,0,0,1-4.622,3.094C227.836,32.333,229.6,33.536,230.875,33.536Zm4.439-4.91a4.058,4.058,0,0,0,1.162.193,1.724,1.724,0,0,0,1.261-.446,2.391,2.391,0,0,0,.254-2.423,8.645,8.645,0,0,0-2.019-3.275c-.188.221-.378.438-.57.654,1.418,1.458,1.968,3.224,1.226,3.947s-2.462.139-3.878-1.29c-.234.21-.47.417-.711.623a8.616,8.616,0,0,0,3.275,2.018Zm2.641,3.527a.457.457,0,0,1,.121.309,14.1,14.1,0,0,0,8.068,12.608,11.6,11.6,0,0,1,3.3,2.253l1.436,1.438a1.4,1.4,0,0,0,1.979,0l1.093-1.093a10.289,10.289,0,0,1,3.414-2.3,13.977,13.977,0,0,0,8.746-12.9.458.458,0,0,1,.124-.311,19.328,19.328,0,0,0,1.824-2.3c-.13.022-.258.038-.382.046a.634.634,0,0,1-.875.252.639.639,0,0,1,.174.44.646.646,0,0,1-.645.645.638.638,0,0,1-.406-.146s0,0,0,0a.641.641,0,0,1-.208,1.133.642.642,0,0,1-.373,1.025.642.642,0,0,1-.157,1.252.642.642,0,0,1-.278,1.215.646.646,0,0,1-.261,1.237.606.606,0,0,1-.221-.042.645.645,0,1,1-.55,1.166h0a.645.645,0,0,1-.329,1.2.625.625,0,0,1-.194-.033.644.644,0,1,1-.777,1.025.644.644,0,0,1-.806.994.633.633,0,0,1,.157.415.645.645,0,0,1-1.058.495.624.624,0,0,1,.082.307.644.644,0,0,1-1.058.495.626.626,0,0,1,.066.281.644.644,0,0,1-1.159.386.63.63,0,0,1,.055.258.643.643,0,0,1-1.168.375.723.723,0,0,1,.02.157.644.644,0,0,1-1.215.3h0a.64.64,0,0,1,.055.26.646.646,0,0,1-.647.645.639.639,0,0,1-.512-.258.673.673,0,0,1,.053.258.642.642,0,0,1-1.08.475.645.645,0,0,1-.526,1.018.63.63,0,0,1-.42-.159.643.643,0,0,1-.923.885.632.632,0,0,1,.051.25.646.646,0,0,1-1.292,0c0-.02,0-.038,0-.057a.617.617,0,0,1-.272.057.647.647,0,0,1-.634-.658.661.661,0,0,1,.141-.386.639.639,0,0,1-.424.152.647.647,0,0,1-.632-.658.635.635,0,0,1,.126-.371.643.643,0,0,1-1.071-.495.632.632,0,0,1,.06-.258.643.643,0,0,1-1.062-.72s0,0,0,0a.645.645,0,0,1-1.237-.27.607.607,0,0,1,.024-.154.644.644,0,0,1-1.162-.4.6.6,0,0,1,.06-.258.644.644,0,0,1-1.153-.409.626.626,0,0,1,.073-.28.642.642,0,0,1-1.047-.515.627.627,0,0,1,.086-.3.655.655,0,0,1-.415.144.645.645,0,0,1-.632-.658.628.628,0,0,1,.163-.413.619.619,0,0,1-.345.093.643.643,0,0,1-.444-1.1.628.628,0,0,1-.417.146.645.645,0,0,1-.634-.658.652.652,0,0,1,.294-.53.614.614,0,0,1-.192.031.645.645,0,0,1-.322-1.2.651.651,0,0,1-.269.053.645.645,0,0,1-.243-1.237.666.666,0,0,1-.221.037.645.645,0,0,1-.236-1.241.643.643,0,0,1-.256-1.221.642.642,0,0,1-.133-1.254.646.646,0,0,1-.5-.64.621.621,0,0,1,.146-.391.647.647,0,0,1-.457-.627.654.654,0,0,1,.186-.439L238.189,31a.631.631,0,0,1-.316.08.647.647,0,0,1-.632-.658.623.623,0,0,1,.163-.407L237.392,30a.624.624,0,0,1-.824-.263,4.063,4.063,0,0,1-.515-.02,19.055,19.055,0,0,0,1.9,2.44Zm33.832-5.369c-.269-.23-.537-.462-.8-.7-1.413,1.42-3.134,1.994-3.867,1.281s-.192-2.489,1.226-3.947c-.166-.187-.331-.375-.495-.567a8.66,8.66,0,0,0-2.019,3.275,2.392,2.392,0,0,0,.254,2.423A1.723,1.723,0,0,0,267.35,29a4.064,4.064,0,0,0,1.162-.192,8.616,8.616,0,0,0,3.275-2.019Zm.3,6.687a1.522,1.522,0,0,0,.861.241c1.274,0,3.039-1.2,4.377-3.079a34.534,34.534,0,0,1-4.622-3.094,8.622,8.622,0,0,0-1.338,3.6,2.4,2.4,0,0,0,.722,2.328Zm6.67,3.578a1.387,1.387,0,0,0,.543.106,2.992,2.992,0,0,0,1.793-.791,8.6,8.6,0,0,0,2.259-3.094c-.292-.093-.579-.192-.866-.294-.791,1.853-2.193,3.03-3.143,2.63s-1.087-2.222-.316-4.083c-.272-.133-.539-.267-.806-.407-1.031,2.7-.808,5.371.534,5.932Zm15.243-3A33.449,33.449,0,0,0,327.41.926h-.8a32.6,32.6,0,0,1-65.206,0h-.8A33.448,33.448,0,0,0,294,34.046Zm-7.723,5.3a2.4,2.4,0,0,0,2.158-1.133,8.62,8.62,0,0,0,1.6-3.48,34.1,34.1,0,0,1-5.457-1.087c-.473,2.847.276,5.415,1.7,5.7Zm7.723.764c1.455,0,2.692-2.376,2.785-5.26-.338.026-.676.051-1.016.068h.108c0,2.034-.839,3.686-1.877,3.686s-1.877-1.652-1.877-3.686h.11c-.34-.017-.678-.042-1.016-.068C291.313,37.737,292.549,40.113,294,40.113Zm5.568-1.9a2.657,2.657,0,0,0,1.895,1.16,1.3,1.3,0,0,0,.261-.026c1.427-.285,2.173-2.854,1.7-5.7a34.079,34.079,0,0,1-5.457,1.087A8.619,8.619,0,0,0,299.57,38.216Zm8.865-.949a1.421,1.421,0,0,0,.537-.1,2.389,2.389,0,0,0,1.171-2.138,8.619,8.619,0,0,0-.594-3.788c-.263.135-.53.265-.8.393.76,1.855.621,3.666-.325,4.063s-2.354-.78-3.145-2.637c-.291.1-.583.2-.877.294C305.436,35.656,307.128,37.266,308.435,37.266Zm6.621-3.553a1.522,1.522,0,0,0,.861-.241,2.4,2.4,0,0,0,.722-2.328,8.62,8.62,0,0,0-1.338-3.6,34.537,34.537,0,0,1-4.622,3.094C312.017,32.509,313.782,33.713,315.056,33.713ZM319.5,28.8a4.072,4.072,0,0,0,1.162.192,1.728,1.728,0,0,0,1.261-.446,2.392,2.392,0,0,0,.252-2.423,8.606,8.606,0,0,0-2.019-3.275q-.282.331-.57.654c1.42,1.458,1.97,3.224,1.228,3.947s-2.465.139-3.878-1.29c-.234.212-.473.417-.711.623A8.62,8.62,0,0,0,319.5,28.8Zm2.244,3.35a.456.456,0,0,1,.121.309,14.1,14.1,0,0,0,8.068,12.609,11.6,11.6,0,0,1,3.3,2.252l1.438,1.438a1.4,1.4,0,0,0,1.977,0l1.093-1.093a10.285,10.285,0,0,1,3.414-2.3,13.977,13.977,0,0,0,8.746-12.9.469.469,0,0,1,.124-.311,19.131,19.131,0,0,0,1.824-2.3c-.13.022-.258.038-.382.046a.634.634,0,0,1-.875.252.638.638,0,0,1,.175.44.644.644,0,0,1-1.051.5,0,0,0,0,1,0,0,.641.641,0,0,1-.208,1.133.642.642,0,0,1-.371,1.025.642.642,0,0,1-.159,1.252.642.642,0,0,1-.278,1.215.646.646,0,0,1-.261,1.237.617.617,0,0,1-.221-.042.644.644,0,0,1-.267,1.232.624.624,0,0,1-.28-.066h0a.644.644,0,0,1-.329,1.2.607.607,0,0,1-.192-.033.644.644,0,1,1-.777,1.025.645.645,0,0,1-.808.994.633.633,0,0,1,.157.415.645.645,0,0,1-1.058.495.624.624,0,0,1,.082.307.644.644,0,0,1-1.058.495.626.626,0,0,1,.068.281.645.645,0,0,1-1.162.386.629.629,0,0,1,.055.258.643.643,0,0,1-1.168.375.723.723,0,0,1,.02.157.644.644,0,0,1-1.215.3h0a.644.644,0,0,1-1.1.647.637.637,0,0,1,.055.258.647.647,0,0,1-.647.647.639.639,0,0,1-.435-.172.645.645,0,0,1-.526,1.018.63.63,0,0,1-.42-.159A.644.644,0,0,1,336.684,48a.654.654,0,0,1-.409-.15.632.632,0,0,1,.051.25.646.646,0,0,1-1.292,0,.5.5,0,0,1,.007-.057.634.634,0,0,1-.274.057.645.645,0,0,1-.493-1.045.633.633,0,0,1-.422.152.646.646,0,0,1-.508-1.029.643.643,0,0,1-1.071-.495.671.671,0,0,1,.06-.258.643.643,0,0,1-1.062-.72,0,0,0,0,0,0,0,.646.646,0,0,1-1.239-.27.605.605,0,0,1,.024-.154.644.644,0,0,1-1.162-.4.635.635,0,0,1,.06-.258.644.644,0,0,1-1.153-.409.629.629,0,0,1,.073-.281.636.636,0,0,1-.415.144.641.641,0,0,1-.545-.963.642.642,0,0,1-1.047-.515.639.639,0,0,1,.163-.413.62.62,0,0,1-.345.093.643.643,0,0,1-.632-.658.637.637,0,0,1,.188-.441.629.629,0,0,1-.417.146.645.645,0,0,1-.634-.658.652.652,0,0,1,.294-.53.6.6,0,0,1-.192.031.645.645,0,0,1-.322-1.2.637.637,0,0,1-.269.053.644.644,0,0,1-.241-1.237.7.7,0,0,1-.223.037A.645.645,0,0,1,323,35.587a.644.644,0,0,1-.256-1.222.642.642,0,0,1-.133-1.254.646.646,0,0,1-.5-.64.622.622,0,0,1,.146-.391.645.645,0,0,1-.455-.627.634.634,0,0,1,.186-.439L321.975,31a.636.636,0,0,1-.316.08.648.648,0,0,1-.634-.658.623.623,0,0,1,.163-.407L321.176,30a.618.618,0,0,1-.678-.086,4.834,4.834,0,0,1-.572-.062,18.7,18.7,0,0,0,1.813,2.306Zm33.832-5.369c-.269-.23-.537-.461-.8-.7-1.414,1.42-3.134,1.994-3.867,1.281s-.192-2.489,1.226-3.947c-.166-.187-.331-.375-.492-.567a8.6,8.6,0,0,0-2.019,3.275,2.387,2.387,0,0,0,.252,2.423,1.723,1.723,0,0,0,1.261.446A4.073,4.073,0,0,0,352.3,28.8a8.617,8.617,0,0,0,3.275-2.019Zm.3,6.688a1.522,1.522,0,0,0,.861.241c1.274,0,3.039-1.2,4.377-3.079a34.541,34.541,0,0,1-4.622-3.094,8.62,8.62,0,0,0-1.338,3.6,2.4,2.4,0,0,0,.722,2.328Zm6.67,3.578a1.391,1.391,0,0,0,.543.106,2.981,2.981,0,0,0,1.793-.791,8.578,8.578,0,0,0,2.259-3.094c-.289-.093-.579-.192-.863-.294-.793,1.853-2.2,3.03-3.143,2.631s-1.089-2.222-.318-4.083c-.269-.133-.539-.267-.806-.407-1.031,2.7-.808,5.371.534,5.932Zm15.243-3A33.449,33.449,0,0,0,411.194.926h-.8a32.6,32.6,0,0,1-65.206,0h-.8a33.449,33.449,0,0,0,33.406,33.121Zm-7.721,5.3a2.4,2.4,0,0,0,2.155-1.133,8.621,8.621,0,0,0,1.6-3.48,34.08,34.08,0,0,1-5.457-1.086C367.892,36.5,368.639,39.064,370.065,39.349Zm7.723.764c1.453,0,2.69-2.376,2.783-5.26-.338.026-.676.051-1.016.068h.11c0,2.034-.841,3.686-1.877,3.686s-1.877-1.652-1.877-3.686h.108c-.34-.017-.678-.042-1.016-.068C375.1,37.737,376.333,40.113,377.788,40.113Zm5.565-1.9a2.656,2.656,0,0,0,1.895,1.16,1.3,1.3,0,0,0,.261-.026c1.427-.285,2.173-2.854,1.7-5.7a34.08,34.08,0,0,1-5.457,1.086,8.621,8.621,0,0,0,1.6,3.48Zm8.865-.949a1.44,1.44,0,0,0,.539-.1,2.394,2.394,0,0,0,1.168-2.138,8.619,8.619,0,0,0-.594-3.788c-.263.135-.53.265-.8.393.76,1.855.621,3.666-.325,4.064s-2.352-.78-3.145-2.637c-.291.1-.583.2-.877.294C389.22,35.654,390.911,37.266,392.219,37.266Zm6.621-3.553a1.524,1.524,0,0,0,.861-.241,2.4,2.4,0,0,0,.722-2.328,8.619,8.619,0,0,0-1.338-3.6,34.536,34.536,0,0,1-4.622,3.094c1.338,1.875,3.1,3.079,4.377,3.079Zm4.439-4.909a4.072,4.072,0,0,0,1.162.192,1.727,1.727,0,0,0,1.261-.446,2.391,2.391,0,0,0,.254-2.423,8.64,8.64,0,0,0-2.021-3.275c-.185.221-.375.437-.57.653,1.42,1.458,1.97,3.225,1.228,3.947s-2.465.139-3.878-1.29c-.234.212-.473.417-.711.623a8.616,8.616,0,0,0,3.275,2.019Zm5.018-5.532a4.566,4.566,0,0,0,.484.024,2.1,2.1,0,0,0,1.842-.746c.808-1.21-.484-3.56-2.836-5.239a34.623,34.623,0,0,1-3.1,4.625,8.6,8.6,0,0,0,3.606,1.336Zm3.209-6.21c1.336,0,2.37-.4,2.7-1.179a2.4,2.4,0,0,0-.685-2.339,8.594,8.594,0,0,0-3.094-2.257c-.082.25-.168.5-.256.751,1.831.833,2.97,2.257,2.551,3.2-.411.921-2.18,1.031-3.989.267-.148.307-.3.612-.459.914A9.288,9.288,0,0,0,411.506,17.061Zm.974-6.86c2.116,0,3.794-.706,4.022-1.842A2.389,2.389,0,0,0,415.366,6.2a8.611,8.611,0,0,0-3.481-1.6,34.231,34.231,0,0,1-1.084,5.455A10.406,10.406,0,0,0,412.48,10.2ZM417.232.925h-1.546c-.283.892-1.791,1.579-3.622,1.588-.015.3-.037.605-.062.906C414.695,3.333,416.943,2.25,417.232.925Zm-8.467,0a.461.461,0,0,1-.23.152,10.974,10.974,0,0,0-4.989,3.516,5.733,5.733,0,0,1-1,1,17.982,17.982,0,0,1,1.159,2.46,8.538,8.538,0,0,0,2.6,4.02.043.043,0,0,1,.011.009.435.435,0,0,1,.035.031c.011.011.022.02.031.031l.026.033.027.04c.007.011.011.024.018.038a.23.23,0,0,1,.018.042.25.25,0,0,1,.011.04.36.36,0,0,1,.011.046c0,.013,0,.026,0,.038a.452.452,0,0,1,0,.055v.011a.089.089,0,0,1,0,.024.415.415,0,0,1-.009.053c0,.016-.011.029-.015.044l-.013.035a.572.572,0,0,1-.038.064s0,0,0,.007v0a.441.441,0,0,1-.362.188H406a10.227,10.227,0,0,0-4.477.961,19.246,19.246,0,0,1-2.692.861,5.671,5.671,0,0,1-.015,1.294,10.973,10.973,0,0,0,1.042,6.016.46.46,0,0,1-.623.625,10.955,10.955,0,0,0-6.016-1.042,5.714,5.714,0,0,1-1.418,0,19.892,19.892,0,0,1-.868,2.6,10.089,10.089,0,0,0-.992,4.656.458.458,0,0,1-.808.334,10.293,10.293,0,0,0-4.106-2.67,23.014,23.014,0,0,1-2.31-1.125,5.764,5.764,0,0,1-.967.959,11,11,0,0,0-3.518,4.991.459.459,0,0,1-.881,0,11,11,0,0,0-3.518-4.991,5.706,5.706,0,0,1-.95-.936,24.631,24.631,0,0,1-2.217,1.082,10.452,10.452,0,0,0-4.137,2.69.288.288,0,0,1-.024.024.276.276,0,0,1-.038.035.551.551,0,0,1-.046.033l-.027.015a.242.242,0,0,1-.057.024.121.121,0,0,1-.024.011.558.558,0,0,1-.062.013.111.111,0,0,1-.026,0,.541.541,0,0,1-.06,0,.146.146,0,0,0-.031,0,0,0,0,0,1,0,0,.3.3,0,0,1-.064-.011.594.594,0,0,1-.108-.04h0c-.027-.016-.051-.033-.075-.051a0,0,0,0,0,0,0,.152.152,0,0,1-.018-.018.427.427,0,0,1-.042-.044.3.3,0,0,1-.029-.042c-.007-.011-.015-.02-.022-.033l-.02-.046c0-.011-.009-.022-.013-.036s-.009-.035-.011-.051a.231.231,0,0,1-.007-.038.433.433,0,0,1,0-.075v-.018a12.584,12.584,0,0,0-1.866-7.213c0-.009-.007-.018-.011-.026a5.837,5.837,0,0,1-1.4,0,10.969,10.969,0,0,0-6.014,1.042.46.46,0,0,1-.625-.625,11,11,0,0,0,1.042-6.016,5.782,5.782,0,0,1-.013-1.323c-.736-.21-1.462-.473-2.164-.733a11.5,11.5,0,0,0-5.007-1.06.459.459,0,0,1-.34-.806,11.006,11.006,0,0,0,2.566-3.96,21.346,21.346,0,0,1,1.294-2.493,5.725,5.725,0,0,1-1.071-1.053,10.974,10.974,0,0,0-4.989-3.516.46.46,0,0,1-.23-.152H346.1a31.685,31.685,0,0,0,63.368,0Zm-3.284,0a.758.758,0,0,1-1.367,0h-.674a1.242,1.242,0,0,1-2.394,0h-.623a1.878,1.878,0,0,1-1.555,1.52,18,18,0,0,1-.528,3.266,4.553,4.553,0,0,0,4.483-1.685,11.791,11.791,0,0,1,3.743-3.1Zm-9.141,9.806a5.739,5.739,0,0,1,2.312,3.1,19.151,19.151,0,0,0,2.544-.819A14.126,14.126,0,0,1,404.851,12a11.84,11.84,0,0,1-2-3.6,17.3,17.3,0,0,0-1.084-2.312,5.781,5.781,0,0,1-3.71.495A21.017,21.017,0,0,1,396.34,10.731Zm-8.408,8.43a21.088,21.088,0,0,1-4.187,1.745,5.77,5.77,0,0,1-.523,3.732,22.137,22.137,0,0,0,2.173,1.058,13.252,13.252,0,0,1,3.62,2.083,13.251,13.251,0,0,1,1.058-3.894,19.492,19.492,0,0,0,.828-2.46,5.752,5.752,0,0,1-2.968-2.264Zm9.967-3.246a4.511,4.511,0,0,0-1.977-4.364,17.882,17.882,0,0,1-1.91,2.652,1.876,1.876,0,0,1-2.619,2.619,18.021,18.021,0,0,1-2.652,1.91,4.523,4.523,0,0,0,4.366,1.977,11.884,11.884,0,0,1,5.455.66A11.88,11.88,0,0,1,397.9,15.914Zm-23.5,9.733a11.894,11.894,0,0,1,3.39,4.326,11.942,11.942,0,0,1,3.39-4.326,4.515,4.515,0,0,0,1.689-4.483,18.027,18.027,0,0,1-3.227.526,1.874,1.874,0,0,1-3.7,0,18.349,18.349,0,0,1-3.224-.523A4.556,4.556,0,0,0,374.4,25.647ZM396.731.926h-1.378a2.713,2.713,0,0,1-1.9,2.46,2.7,2.7,0,0,1-1.477,4.687,2.683,2.683,0,0,1,.38,1.378,2.711,2.711,0,0,1-2.708,2.708,2.671,2.671,0,0,1-.93-.17,2.7,2.7,0,0,1-3.878,2.9,2.7,2.7,0,0,1-4.6,1.475,2.706,2.706,0,0,1-4.954.009,2.7,2.7,0,0,1-4.594-1.484,2.7,2.7,0,0,1-3.924-2.416,2.682,2.682,0,0,1,.046-.483,2.669,2.669,0,0,1-.932.168,2.7,2.7,0,0,1-2.326-4.085,2.7,2.7,0,0,1-1.473-4.689,2.714,2.714,0,0,1-1.76-1.705,2.627,2.627,0,0,1-.135-.753h-1.358A1.876,1.876,0,0,1,357.7,2.343a18.01,18.01,0,0,0,4.631,11.25,1.876,1.876,0,0,1,2.465,2.476,18.37,18.37,0,0,0,11.226,4.7,1.877,1.877,0,0,1,3.531,0,20.113,20.113,0,0,0,11.237-4.673,1.875,1.875,0,0,1,2.487-2.493A20.123,20.123,0,0,0,397.921,2.35a1.878,1.878,0,0,1-1.19-1.424Zm-3.854,0a14.706,14.706,0,0,1-.122,1.658A1.793,1.793,0,0,0,394.434.926ZM391.4,7.16a1.647,1.647,0,0,0,.236.018,1.783,1.783,0,0,0,.9-3.328A14.989,14.989,0,0,1,391.4,7.16Zm-2.646,3.834a1.783,1.783,0,0,0,2.118-2.843,15.168,15.168,0,0,1-2.118,2.842ZM384.99,13.9a1.784,1.784,0,0,0,2.858-1.429,1.749,1.749,0,0,0-.082-.521,15.251,15.251,0,0,1-2.776,1.95Zm-4.307,1.55a1.783,1.783,0,0,0,3.275-.983c0-.02,0-.04,0-.06a14.967,14.967,0,0,1-3.273,1.042Zm-4.68.172a1.785,1.785,0,0,0,3.5.007,14.769,14.769,0,0,1-1.72.1A15.4,15.4,0,0,1,376,15.625Zm-4.432-1.155a1.786,1.786,0,0,0,3.284.976,15.167,15.167,0,0,1-3.28-1.053C371.576,14.417,371.572,14.444,371.572,14.47Zm-3.887-2a1.791,1.791,0,0,0,1.789,1.789,1.761,1.761,0,0,0,1.087-.375,15.15,15.15,0,0,1-2.787-1.965A1.749,1.749,0,0,0,367.685,12.473ZM389.136.926a1.755,1.755,0,0,1-1.208,1.387,1.752,1.752,0,0,1-.956,3.037,1.752,1.752,0,0,1-1.508,2.646,1.781,1.781,0,0,1-.6-.11,1.627,1.627,0,0,1,.031.314,1.755,1.755,0,0,1-1.754,1.753,1.729,1.729,0,0,1-.788-.19,1.751,1.751,0,0,1-2.982.956,1.752,1.752,0,0,1-3.207.007,1.751,1.751,0,0,1-2.975-.963,1.73,1.73,0,0,1-.789.19A1.755,1.755,0,0,1,370.644,8.2a1.825,1.825,0,0,1,.029-.314,1.711,1.711,0,0,1-.6.11,1.749,1.749,0,0,1-1.506-2.646,1.759,1.759,0,0,1-1.535-1.74,1.739,1.739,0,0,1,.581-1.3,1.761,1.761,0,0,1-1.14-1.106,1.714,1.714,0,0,1-.066-.28h-2.789a14.175,14.175,0,0,0,28.344,0Zm-3.348,0a8.005,8.005,0,0,1-16,0h-1.016a9.019,9.019,0,0,0,18.021,0Zm-1.935,0a6.071,6.071,0,0,1-12.129,0h-1.018a7.087,7.087,0,0,0,14.163,0ZM364.091,9.45a1.791,1.791,0,0,0,1.789,1.789,1.771,1.771,0,0,0,.923-.26,15.206,15.206,0,0,1-2.114-2.849,1.771,1.771,0,0,0-.6,1.321Zm-1.1-5.6a1.785,1.785,0,0,0,.906,3.326,1.587,1.587,0,0,0,.276-.027,15.035,15.035,0,0,1-1.038-2.9A2.914,2.914,0,0,1,362.987,3.852ZM362.7.926h-1.592a1.606,1.606,0,0,0,.086.452,1.816,1.816,0,0,0,1.186,1.14,1.8,1.8,0,0,0,.444.084A14.989,14.989,0,0,1,362.7.926Zm4.212,17.813a21.054,21.054,0,0,1-2.7-1.93,1.875,1.875,0,0,1-2.626-2.63,21.452,21.452,0,0,1-1.873-2.613,4.546,4.546,0,0,0-1.959,4.348,11.88,11.88,0,0,1-.663,5.455,11.888,11.888,0,0,1,5.457-.66A4.527,4.527,0,0,0,366.909,18.739Zm4.921,2.167a21.088,21.088,0,0,1-4.13-1.711,5.734,5.734,0,0,1-2.926,2.224,14.108,14.108,0,0,1,1.9,6.336,13.828,13.828,0,0,1,3.617-2.081c.691-.3,1.4-.625,2.08-1.007A5.767,5.767,0,0,1,371.83,20.906ZM353.965,6.135a20.8,20.8,0,0,0-1.248,2.392,15.007,15.007,0,0,1-1.994,3.454,15.287,15.287,0,0,1,4.26,1.124c.665.245,1.347.495,2.027.691a5.75,5.75,0,0,1,2.246-3.025,21.006,21.006,0,0,1-1.736-4.17A5.767,5.767,0,0,1,353.965,6.135Zm2.776-3.664a1.877,1.877,0,0,1-1.61-1.546h-.616a1.242,1.242,0,0,1-2.4,0h-.658a.761.761,0,0,1-1.387,0h-.981a11.785,11.785,0,0,1,3.743,3.1,4.511,4.511,0,0,0,4.452,1.694,21.045,21.045,0,0,1-.541-3.249ZM340.209,6.2a2.39,2.39,0,0,0-1.135,2.156C339.3,9.5,340.979,10.2,343.1,10.2a10.407,10.407,0,0,0,1.678-.143A33.975,33.975,0,0,1,343.689,4.6,8.608,8.608,0,0,0,340.209,6.2Zm3.3-3.779c-1.749-.02-3.2-.658-3.549-1.5h-1.612c.289,1.325,2.538,2.407,5.23,2.493C343.546,3.089,343.521,2.758,343.5,2.425Zm1.449,20.124a2.382,2.382,0,0,0,2.326.722,8.6,8.6,0,0,0,3.606-1.336,34.61,34.61,0,0,1-3.1-4.625c-2.352,1.678-3.644,4.028-2.836,5.239Zm.367-10.76c-.086-.25-.168-.5-.25-.753-2.633,1.18-4.362,3.224-3.81,4.57a2.389,2.389,0,0,0,2.136,1.168,5.86,5.86,0,0,0,.632.033,9.19,9.19,0,0,0,3.158-.623q-.232-.457-.451-.921c-1.8.753-3.558.643-3.969-.276-.42-.939.722-2.363,2.553-3.2ZM324.027,37.944a.148.148,0,0,1,.027-.013h0A.148.148,0,0,0,324.027,37.944ZM337.413.926h-3.034c-.2,1.554-2.023,2.816-4.536,3.253a8.527,8.527,0,0,1,2.323,1.316,3.226,3.226,0,0,1,1.451,3.043c-.336,1.694-2.553,2.692-5.347,2.573a8.59,8.59,0,0,1,2.175,1.853,3.229,3.229,0,0,1,.819,3.271c-.627,1.5-2.758,2.063-5.267,1.568,1.8,1.818,2.507,3.907,1.606,5.257a3.232,3.232,0,0,1-3.178,1.126,8.485,8.485,0,0,1-2.582-.716,8.522,8.522,0,0,1,1.206,2.392,3.232,3.232,0,0,1-.481,3.337,2.229,2.229,0,0,1-.543.4,17.64,17.64,0,0,0,1.575,1.811.443.443,0,0,1,.135.347c-.009.205-.015.413-.015.623a12.216,12.216,0,0,0,7,11.011,13.433,13.433,0,0,1,3.827,2.622l1.111,1.111.771-.769a12.151,12.151,0,0,1,4.028-2.708,12.113,12.113,0,0,0,7.586-11.268c0-.21,0-.417-.015-.623a.459.459,0,0,1,.135-.347,17.3,17.3,0,0,0,1.583-1.822,2.292,2.292,0,0,1-.521-.388,3.232,3.232,0,0,1-.484-3.337,8.594,8.594,0,0,1,1.208-2.392,8.484,8.484,0,0,1-2.582.716,3.228,3.228,0,0,1-3.178-1.126c-.958-1.436-.1-3.708,1.963-5.6a8.681,8.681,0,0,1-2.849.23,3.234,3.234,0,0,1-2.893-1.734c-.616-1.5.492-3.41,2.617-4.834-2.557-.016-4.536-.99-4.852-2.582a3.226,3.226,0,0,1,1.451-3.043,8.525,8.525,0,0,1,2.323-1.316C339.436,3.741,337.616,2.48,337.413.926ZM328.1,4.6a34.237,34.237,0,0,1-1.084,5.455,10.407,10.407,0,0,0,1.678.143c2.114,0,3.794-.707,4.022-1.842A2.394,2.394,0,0,0,331.582,6.2,8.612,8.612,0,0,0,328.1,4.6ZM331.9.926c-.283.892-1.793,1.579-3.622,1.588-.018.3-.038.605-.062.906,2.692-.086,4.94-1.169,5.23-2.493ZM324,17.31a34.556,34.556,0,0,1-3.094,4.625,8.59,8.59,0,0,0,3.607,1.336,4.616,4.616,0,0,0,.481.024,2.1,2.1,0,0,0,1.844-.746C327.647,21.338,326.355,18.989,324,17.31Zm4.934-2.078c-.413.921-2.18,1.031-3.989.267-.148.307-.3.612-.459.914a9.276,9.276,0,0,0,3.233.647c1.338,0,2.372-.4,2.7-1.179a2.392,2.392,0,0,0-.682-2.339,8.592,8.592,0,0,0-3.094-2.257c-.082.251-.168.5-.256.75C328.214,12.871,329.354,14.293,328.934,15.232ZM324.979.926a.453.453,0,0,1-.227.152,10.974,10.974,0,0,0-4.989,3.516,5.736,5.736,0,0,1-1,1,18.221,18.221,0,0,1,1.159,2.46,8.539,8.539,0,0,0,2.6,4.02.016.016,0,0,1,.009.009.239.239,0,0,1,.04.033.316.316,0,0,1,.029.029c.009.011.018.022.026.035a.346.346,0,0,1,.024.036.323.323,0,0,1,.02.04.261.261,0,0,1,.029.084.243.243,0,0,1,.011.044.237.237,0,0,0,0,.04.406.406,0,0,1,0,.051v.013a.094.094,0,0,1,0,.024.432.432,0,0,1-.009.053.3.3,0,0,1-.015.042.289.289,0,0,1-.015.04.339.339,0,0,1-.029.049c0,.007-.007.013-.011.02l-.007.007c-.013.017-.029.035-.044.053s-.009.009-.015.013a.428.428,0,0,1-.06.046.027.027,0,0,0-.009.007.4.4,0,0,1-.071.033.016.016,0,0,1-.011,0,.3.3,0,0,1-.062.018.1.1,0,0,1-.026,0,.3.3,0,0,1-.046,0,.427.427,0,0,1-.053,0h-.009a10.208,10.208,0,0,0-4.477.961,19.374,19.374,0,0,1-2.694.861,5.793,5.793,0,0,1-.013,1.294,10.973,10.973,0,0,0,1.042,6.016.461.461,0,0,1-.625.625,10.964,10.964,0,0,0-6.014-1.042,5.744,5.744,0,0,1-1.418,0,20.475,20.475,0,0,1-.868,2.6,10.08,10.08,0,0,0-.992,4.653.458.458,0,0,1-.808.334,10.312,10.312,0,0,0-4.106-2.67,22.741,22.741,0,0,1-2.31-1.125,5.7,5.7,0,0,1-.97.959,11.006,11.006,0,0,0-3.516,4.991.459.459,0,0,1-.881,0,11,11,0,0,0-3.518-4.991,5.7,5.7,0,0,1-.95-.937,23.951,23.951,0,0,1-2.217,1.08,10.471,10.471,0,0,0-4.13,2.686.46.46,0,0,1-.318.17h-.007c-.027,0-.051,0-.077,0h0c-.031,0-.06-.011-.091-.018,0,0-.009-.007-.015-.007-.022-.009-.044-.018-.066-.029a.612.612,0,0,1-.075-.051,0,0,0,0,1,0,0,.206.206,0,0,1-.022-.022l-.04-.04c-.009-.013-.018-.027-.027-.042s-.015-.022-.022-.033a.254.254,0,0,1-.018-.044.133.133,0,0,1-.015-.038c0-.015-.007-.031-.011-.046a.272.272,0,0,1-.007-.042.292.292,0,0,1,0-.062c0-.009,0-.018,0-.027a12.577,12.577,0,0,0-1.864-7.217.137.137,0,0,1-.013-.026,5.794,5.794,0,0,1-1.4,0,10.974,10.974,0,0,0-6.016,1.042.46.46,0,0,1-.623-.625,11,11,0,0,0,1.042-6.016,5.787,5.787,0,0,1-.013-1.323c-.735-.21-1.462-.473-2.167-.733a11.485,11.485,0,0,0-5-1.06.459.459,0,0,1-.34-.806A10.972,10.972,0,0,0,268.1,8.14a21.751,21.751,0,0,1,1.3-2.493,5.708,5.708,0,0,1-1.071-1.053,10.975,10.975,0,0,0-4.991-3.516.463.463,0,0,1-.227-.152h-.786a31.686,31.686,0,0,0,63.368,0Zm-3.282,0a.758.758,0,0,1-1.367,0h-.674a1.242,1.242,0,0,1-2.394,0h-.623a1.877,1.877,0,0,1-1.555,1.519,18,18,0,0,1-.528,3.266,4.553,4.553,0,0,0,4.483-1.685,11.786,11.786,0,0,1,3.743-3.1Zm-9.141,9.806a5.738,5.738,0,0,1,2.312,3.1,19.122,19.122,0,0,0,2.544-.819A14.135,14.135,0,0,1,321.068,12a11.838,11.838,0,0,1-2-3.6,17.316,17.316,0,0,0-1.084-2.312,5.779,5.779,0,0,1-3.71.495A21.029,21.029,0,0,1,312.556,10.731Zm-8.41,8.43a21.028,21.028,0,0,1-4.185,1.745,5.761,5.761,0,0,1-.526,3.733,22.506,22.506,0,0,0,2.175,1.058,13.252,13.252,0,0,1,3.62,2.082,13.249,13.249,0,0,1,1.058-3.894,19.731,19.731,0,0,0,.828-2.46A5.772,5.772,0,0,1,304.146,19.161Zm9.969-3.247a4.512,4.512,0,0,0-1.977-4.364,18.184,18.184,0,0,1-1.91,2.655,1.875,1.875,0,0,1-2.619,2.617,18.085,18.085,0,0,1-2.648,1.908,4.55,4.55,0,0,0,4.36,1.979,11.923,11.923,0,0,1,5.457.66A11.881,11.881,0,0,1,314.115,15.914Zm-23.5,9.733A11.9,11.9,0,0,1,294,29.974a11.947,11.947,0,0,1,3.39-4.326,4.514,4.514,0,0,0,1.69-4.483,18.125,18.125,0,0,1-3.227.526,1.874,1.874,0,0,1-3.7,0,18.049,18.049,0,0,1-3.227-.526,4.51,4.51,0,0,0,1.687,4.483ZM312.947.926h-1.378a2.712,2.712,0,0,1-1.9,2.46,2.7,2.7,0,0,1-1.477,4.687,2.7,2.7,0,0,1-2.328,4.086,2.671,2.671,0,0,1-.93-.17,2.942,2.942,0,0,1,.044.486,2.7,2.7,0,0,1-3.922,2.416,2.7,2.7,0,0,1-4.6,1.475,2.706,2.706,0,0,1-4.954.009,2.7,2.7,0,0,1-4.594-1.484,2.7,2.7,0,0,1-3.924-2.416,2.679,2.679,0,0,1,.046-.484,2.673,2.673,0,0,1-.932.168,2.7,2.7,0,0,1-2.326-4.086A2.7,2.7,0,0,1,278.3,3.383a2.71,2.71,0,0,1-1.758-1.7A2.624,2.624,0,0,1,276.4.926h-1.358a1.876,1.876,0,0,1-1.128,1.418,17.549,17.549,0,0,0,4.631,11.25,1.876,1.876,0,0,1,2.465,2.476,18.624,18.624,0,0,0,11.226,4.7,1.875,1.875,0,0,1,3.529,0,20.117,20.117,0,0,0,11.239-4.673,1.875,1.875,0,0,1,2.485-2.493A20.11,20.11,0,0,0,314.138,2.35a1.878,1.878,0,0,1-1.19-1.424Zm-3.854,0a15.222,15.222,0,0,1-.121,1.658A1.793,1.793,0,0,0,310.65.926ZM307.618,7.16a1.649,1.649,0,0,0,.236.018,1.783,1.783,0,0,0,.9-3.328,14.987,14.987,0,0,1-1.135,3.311Zm-2.646,3.834a1.783,1.783,0,0,0,2.118-2.842A15.177,15.177,0,0,1,304.972,10.994ZM301.207,13.9a1.783,1.783,0,0,0,2.776-1.95A15.249,15.249,0,0,1,301.207,13.9Zm-4.307,1.55a1.784,1.784,0,0,0,3.275-.983.536.536,0,0,0,0-.06A14.911,14.911,0,0,1,296.9,15.453Zm-4.68.172a1.785,1.785,0,0,0,3.5.007,14.771,14.771,0,0,1-1.72.1A15.347,15.347,0,0,1,292.22,15.625Zm-4.432-1.155a1.786,1.786,0,0,0,3.284.976,15.1,15.1,0,0,1-3.28-1.053C287.792,14.417,287.788,14.444,287.788,14.47Zm-3.887-2a1.791,1.791,0,0,0,1.789,1.789,1.764,1.764,0,0,0,1.087-.375,15.12,15.12,0,0,1-2.787-1.966A1.753,1.753,0,0,0,283.9,12.473ZM305.352.925a1.759,1.759,0,0,1-1.208,1.387,1.752,1.752,0,0,1-.956,3.037,1.752,1.752,0,0,1-1.508,2.646,1.781,1.781,0,0,1-.6-.11,1.623,1.623,0,0,1,.031.313,1.756,1.756,0,0,1-1.754,1.754,1.723,1.723,0,0,1-.788-.19,1.751,1.751,0,0,1-2.982.956,1.752,1.752,0,0,1-3.207.007,1.753,1.753,0,0,1-2.977-.963,1.713,1.713,0,0,1-.786.19A1.755,1.755,0,0,1,286.86,8.2a1.818,1.818,0,0,1,.029-.313,1.711,1.711,0,0,1-.6.11,1.749,1.749,0,0,1-1.506-2.646,1.759,1.759,0,0,1-1.535-1.74,1.739,1.739,0,0,1,.581-1.3,1.762,1.762,0,0,1-1.14-1.107,1.724,1.724,0,0,1-.066-.28h-2.789a14.175,14.175,0,0,0,28.344,0ZM302,.925a8.005,8.005,0,0,1-16,0h-1.016a9.018,9.018,0,0,0,18.019,0Zm-1.937,0a6.07,6.07,0,0,1-12.127,0h-1.018a7.087,7.087,0,0,0,14.163,0ZM280.308,9.45a1.79,1.79,0,0,0,1.789,1.789,1.769,1.769,0,0,0,.923-.261,15.105,15.105,0,0,1-2.114-2.849A1.77,1.77,0,0,0,280.308,9.45Zm-1.1-5.6a1.785,1.785,0,0,0,.905,3.326,1.607,1.607,0,0,0,.276-.027,15.079,15.079,0,0,1-1.038-2.893A3.087,3.087,0,0,1,279.2,3.852ZM278.914.925h-1.592a1.689,1.689,0,0,0,.084.453,1.824,1.824,0,0,0,1.188,1.14,1.8,1.8,0,0,0,.444.084A14.471,14.471,0,0,1,278.914.925Zm4.209,17.814a21.6,21.6,0,0,1-2.7-1.93,1.874,1.874,0,0,1-2.624-2.63,21.016,21.016,0,0,1-1.873-2.615,4.511,4.511,0,0,0-1.961,4.351,11.855,11.855,0,0,1-.66,5.455,11.884,11.884,0,0,1,5.455-.66A4.518,4.518,0,0,0,283.123,18.739Zm4.923,2.167a21.077,21.077,0,0,1-4.13-1.712,5.786,5.786,0,0,1-2.926,2.224,14.079,14.079,0,0,1,1.895,6.336,13.879,13.879,0,0,1,3.62-2.081c.691-.3,1.4-.625,2.08-1.007A5.765,5.765,0,0,1,288.046,20.906ZM270.182,6.133a20.562,20.562,0,0,0-1.248,2.4,15.035,15.035,0,0,1-1.994,3.452A15.344,15.344,0,0,1,271.2,13.1c.663.247,1.347.5,2.027.693a5.74,5.74,0,0,1,2.246-3.025,20.991,20.991,0,0,1-1.736-4.17,5.774,5.774,0,0,1-3.556-.468Zm2.776-3.661A1.875,1.875,0,0,1,271.352.925h-.627a1.238,1.238,0,0,1-2.4,0h-.658a.761.761,0,0,1-1.387,0H265.3a11.818,11.818,0,0,1,3.743,3.1A4.507,4.507,0,0,0,273.5,5.72a21.042,21.042,0,0,1-.541-3.249ZM256.425,6.2a2.389,2.389,0,0,0-1.135,2.156c.227,1.137,1.906,1.842,4.022,1.842a10.407,10.407,0,0,0,1.678-.143A33.967,33.967,0,0,1,259.906,4.6,8.615,8.615,0,0,0,256.425,6.2Zm3.3-3.779c-1.749-.02-3.2-.658-3.549-1.5h-1.612c.289,1.325,2.538,2.407,5.23,2.493C259.762,3.089,259.738,2.758,259.72,2.425Zm1.449,20.124a2.379,2.379,0,0,0,2.326.722,8.61,8.61,0,0,0,3.607-1.336A34.4,34.4,0,0,1,264,17.31c-2.352,1.678-3.644,4.028-2.836,5.239Zm.367-10.76c-.086-.25-.168-.5-.25-.753-2.632,1.18-4.362,3.224-3.81,4.569a2.389,2.389,0,0,0,2.136,1.168,5.925,5.925,0,0,0,.632.033,9.19,9.19,0,0,0,3.158-.623q-.232-.457-.451-.921c-1.8.753-3.558.643-3.969-.276-.42-.939.722-2.363,2.553-3.2ZM240.243,37.944a.135.135,0,0,1,.026-.013h0c-.007,0-.015.007-.024.013ZM253.629.925h-3.465C249.85,2.4,248.079,3.58,245.661,4a8.483,8.483,0,0,1,2.326,1.316,3.235,3.235,0,0,1,1.451,3.043c-.338,1.694-2.553,2.69-5.349,2.573a8.69,8.69,0,0,1,2.178,1.851,3.238,3.238,0,0,1,.817,3.273c-.625,1.5-2.758,2.061-5.267,1.568,1.8,1.818,2.507,3.907,1.606,5.256a3.229,3.229,0,0,1-3.178,1.126,8.478,8.478,0,0,1-2.582-.716,8.6,8.6,0,0,1,1.208,2.392,3.232,3.232,0,0,1-.484,3.337,2.236,2.236,0,0,1-.358.289,17.3,17.3,0,0,0,1.787,2.1.45.45,0,0,1,.135.347c-.009.205-.015.413-.015.623a12.216,12.216,0,0,0,7,11.012,13.438,13.438,0,0,1,3.827,2.622l1.111,1.111.771-.768a12.158,12.158,0,0,1,4.026-2.708,12.112,12.112,0,0,0,7.588-11.268c0-.21,0-.417-.015-.623a.45.45,0,0,1,.135-.347,17.569,17.569,0,0,0,1.583-1.822,2.292,2.292,0,0,1-.521-.388,3.232,3.232,0,0,1-.484-3.337,8.594,8.594,0,0,1,1.208-2.392,8.5,8.5,0,0,1-2.582.716,3.226,3.226,0,0,1-3.178-1.126c-.958-1.436-.1-3.708,1.963-5.6a8.675,8.675,0,0,1-2.849.229,3.231,3.231,0,0,1-2.893-1.734c-.616-1.5.492-3.41,2.617-4.834-2.557-.016-4.536-.99-4.854-2.582a3.235,3.235,0,0,1,1.451-3.043,8.581,8.581,0,0,1,2.326-1.316c-2.513-.437-4.335-1.7-4.536-3.253Zm-5.983,0c-.413.8-1.84,1.4-3.547,1.411-.015.3-.038.605-.062.906,2.571-.082,4.735-1.073,5.177-2.317Zm-7.825,16.208a34.706,34.706,0,0,1-3.094,4.625,8.611,8.611,0,0,0,3.6,1.336,4.564,4.564,0,0,0,.484.024,2.1,2.1,0,0,0,1.842-.747C243.465,21.162,242.174,18.812,239.822,17.133Zm4.934-2.078c-.413.921-2.182,1.031-3.991.267-.148.307-.3.612-.459.912a9.244,9.244,0,0,0,3.235.649c1.336,0,2.37-.4,2.7-1.182a2.391,2.391,0,0,0-.685-2.336,8.594,8.594,0,0,0-3.094-2.257c-.082.25-.168.5-.256.749C244.033,12.692,245.175,14.117,244.755,15.055Zm-1.919-5.175a10.358,10.358,0,0,0,1.681.144c2.114,0,3.792-.707,4.02-1.842A2.389,2.389,0,0,0,247.4,6.027a8.608,8.608,0,0,0-3.481-1.6A33.729,33.729,0,0,1,242.836,9.881ZM240.493.925a11.028,11.028,0,0,0-4.912,3.492,5.817,5.817,0,0,1-1,1,18.327,18.327,0,0,1,1.159,2.46,8.519,8.519,0,0,0,2.6,4.02l.011.007a.507.507,0,0,1,.038.035.388.388,0,0,1,.029.029c.009.011.018.022.027.036l.027.035c.007.013.011.026.018.04a.319.319,0,0,1,.018.04.169.169,0,0,1,.011.042.328.328,0,0,1,.011.046.235.235,0,0,1,0,.04.4.4,0,0,1,0,.051s0,.009,0,.013a.1.1,0,0,1,0,.025.432.432,0,0,1-.009.053.3.3,0,0,1-.015.042.316.316,0,0,1-.015.04c-.009.017-.02.035-.031.053a.055.055,0,0,1-.009.015s0,0,0,0a.354.354,0,0,1-.053.062l0,0a.435.435,0,0,1-.3.119h-.051a10.187,10.187,0,0,0-4.477.961,19.4,19.4,0,0,1-2.692.861,5.672,5.672,0,0,1-.015,1.294,11,11,0,0,0,1.042,6.016.458.458,0,0,1-.623.623,10.991,10.991,0,0,0-6.016-1.04,5.821,5.821,0,0,1-1.418,0,20.028,20.028,0,0,1-.868,2.6,10.047,10.047,0,0,0-.989,4.654.46.46,0,0,1-.811.333,10.268,10.268,0,0,0-4.1-2.67,23.339,23.339,0,0,1-2.312-1.124,5.777,5.777,0,0,1-.967.958,11,11,0,0,0-3.518,4.991.459.459,0,0,1-.882,0,10.989,10.989,0,0,0-3.516-4.991,5.706,5.706,0,0,1-.951-.937,23.931,23.931,0,0,1-2.217,1.08,10.456,10.456,0,0,0-4.135,2.692.465.465,0,0,1-.2.139.032.032,0,0,0-.013,0,.557.557,0,0,1-.06.013.121.121,0,0,1-.029,0,.284.284,0,0,1-.061,0,.116.116,0,0,1-.028,0h0a.415.415,0,0,1-.089-.018.241.241,0,0,1-.036-.013.362.362,0,0,1-.047-.022.452.452,0,0,1-.075-.049s0,0,0,0-.014-.015-.021-.022-.028-.027-.04-.04-.017-.027-.026-.04a.3.3,0,0,1-.023-.035c-.007-.013-.012-.029-.018-.042a.4.4,0,0,1-.016-.042c0-.013-.006-.029-.009-.042s-.007-.029-.008-.044a.489.489,0,0,1,0-.062c0-.009,0-.018,0-.026a12.57,12.57,0,0,0-1.866-7.218c-.005-.009-.007-.017-.012-.026a5.8,5.8,0,0,1-1.4,0,11,11,0,0,0-6.015,1.04.459.459,0,0,1-.624-.625,10.909,10.909,0,0,0,1.042-6.013,5.785,5.785,0,0,1-.011-1.323c-.736-.21-1.463-.475-2.167-.736a11.518,11.518,0,0,0-5-1.058.459.459,0,0,1-.34-.806,11.009,11.009,0,0,0,2.565-3.96,21.376,21.376,0,0,1,1.3-2.493,5.739,5.739,0,0,1-1.071-1.053A11.032,11.032,0,0,0,179.232.925H178.14a31.685,31.685,0,0,0,63.364,0Zm-3.1,0a.759.759,0,0,1-.565.254.753.753,0,0,1-.561-.254h-.863a1.234,1.234,0,0,1-2.255,0h-.744A1.867,1.867,0,0,1,230.9,2.268a18.224,18.224,0,0,1-.526,3.269,4.512,4.512,0,0,0,4.483-1.687A11.712,11.712,0,0,1,238.284.925Zm-9.024,9.627a5.75,5.75,0,0,1,2.315,3.1,18.833,18.833,0,0,0,2.544-.817,14.135,14.135,0,0,1,3.655-1.007,11.844,11.844,0,0,1-2-3.6A17.3,17.3,0,0,0,233.8,5.917a5.788,5.788,0,0,1-3.712.495,21,21,0,0,1-1.718,4.141Zm-8.408,8.432a20.891,20.891,0,0,1-4.185,1.742,5.774,5.774,0,0,1-.523,3.735,23.09,23.09,0,0,0,2.173,1.058,13.266,13.266,0,0,1,3.62,2.083,13.225,13.225,0,0,1,1.058-3.893,19.4,19.4,0,0,0,.828-2.46,5.793,5.793,0,0,1-2.97-2.264Zm9.971-3.247a4.517,4.517,0,0,0-1.979-4.364,17.912,17.912,0,0,1-1.91,2.653,1.876,1.876,0,0,1-2.619,2.619,18.187,18.187,0,0,1-2.65,1.91,4.52,4.52,0,0,0,4.364,1.977,11.855,11.855,0,0,1,5.455.66,11.854,11.854,0,0,1-.66-5.455Zm-23.5,9.733a11.9,11.9,0,0,1,3.39,4.327,11.908,11.908,0,0,1,3.391-4.327,4.512,4.512,0,0,0,1.687-4.483,18.073,18.073,0,0,1-3.227.526,1.874,1.874,0,0,1-3.7,0,18.385,18.385,0,0,1-3.223-.523,4.551,4.551,0,0,0,1.685,4.481ZM228.814.925h-1.44a2.714,2.714,0,0,1-1.884,2.281A2.7,2.7,0,0,1,224.013,7.9a2.683,2.683,0,0,1,.38,1.378,2.711,2.711,0,0,1-2.708,2.708,2.666,2.666,0,0,1-.93-.17,2.68,2.68,0,0,1,.046.484,2.707,2.707,0,0,1-3.925,2.418,2.7,2.7,0,0,1-4.6,1.473,2.7,2.7,0,0,1-4.953.011,2.7,2.7,0,0,1-4.6-1.484,2.7,2.7,0,0,1-3.878-2.9A2.7,2.7,0,0,1,195.589,7.9a2.7,2.7,0,0,1-1.473-4.689A2.708,2.708,0,0,1,192.357,1.5a2.479,2.479,0,0,1-.122-.574h-1.417a1.884,1.884,0,0,1-1.083,1.241A17.193,17.193,0,0,0,193.266,12c.07.1.146.2.225.311l.042.055c.239.323.514.674.834,1.049a1.875,1.875,0,0,1,2.464,2.476,18.748,18.748,0,0,0,11.227,4.7,1.876,1.876,0,0,1,3.53,0,20.1,20.1,0,0,0,11.237-4.675,1.874,1.874,0,0,1,2.485-2.491,20.13,20.13,0,0,0,4.644-11.25,1.873,1.873,0,0,1-1.14-1.245Zm-3.907,0a14.222,14.222,0,0,1-.117,1.48,1.789,1.789,0,0,0,1.656-1.48Zm-1.471,6.056a1.717,1.717,0,0,0,.238.02,1.783,1.783,0,0,0,.9-3.328A14.939,14.939,0,0,1,223.437,6.981Zm-2.646,3.836a1.783,1.783,0,0,0,2.118-2.843,15.176,15.176,0,0,1-2.118,2.843Zm-3.766,2.908a1.783,1.783,0,0,0,2.858-1.431,1.749,1.749,0,0,0-.082-.519,15.271,15.271,0,0,1-2.776,1.95Zm-4.307,1.551a1.784,1.784,0,0,0,3.275-.983c0-.02,0-.04,0-.06A14.968,14.968,0,0,1,212.719,15.276Zm-4.68.172a1.785,1.785,0,0,0,3.5.007,14.817,14.817,0,0,1-1.719.1A15.359,15.359,0,0,1,208.039,15.448Zm-4.431-1.155a1.785,1.785,0,0,0,3.282.976,14.983,14.983,0,0,1-3.278-1.056c0,.027,0,.053,0,.08Zm-3.888-2a1.793,1.793,0,0,0,1.79,1.791,1.766,1.766,0,0,0,1.087-.378,15.146,15.146,0,0,1-2.788-1.963A1.768,1.768,0,0,0,199.72,12.295ZM221.126.925a1.76,1.76,0,0,1-1.164,1.21,1.75,1.75,0,0,1-.956,3.034,1.751,1.751,0,0,1-2.111,2.537,1.628,1.628,0,0,1,.031.314,1.749,1.749,0,0,1-2.542,1.564,1.751,1.751,0,0,1-2.981.956,1.751,1.751,0,0,1-3.207,0,1.75,1.75,0,0,1-2.976-.961,1.748,1.748,0,0,1-2.511-1.877,1.711,1.711,0,0,1-.6.109A1.75,1.75,0,0,1,200.6,5.17a1.755,1.755,0,0,1-1.534-1.738,1.735,1.735,0,0,1,.58-1.3,1.759,1.759,0,0,1-1.139-1.107c-.012-.033-.019-.068-.029-.1h-2.818a14.174,14.174,0,0,0,28.332,0Zm-3.311,0a8.007,8.007,0,0,1-15.987,0h-1.013a9.018,9.018,0,0,0,18,0Zm-1.941,0a6.07,6.07,0,0,1-12.1,0H202.75a7.088,7.088,0,0,0,14.145,0ZM196.127,9.273a1.791,1.791,0,0,0,1.79,1.789,1.75,1.75,0,0,0,.922-.263,15.155,15.155,0,0,1-2.112-2.849A1.769,1.769,0,0,0,196.127,9.273Zm-1.1-5.6a1.772,1.772,0,0,0-.885,1.535A1.793,1.793,0,0,0,195.928,7a1.507,1.507,0,0,0,.283-.029,14.983,14.983,0,0,1-1.029-2.856A2.753,2.753,0,0,1,195.023,3.675ZM194.74.925h-1.581a1.643,1.643,0,0,0,.066.276,1.812,1.812,0,0,0,1.188,1.137,1.751,1.751,0,0,0,.447.086c-.064-.492-.1-.994-.12-1.5Zm4.2,17.637a21.531,21.531,0,0,1-2.7-1.93A1.875,1.875,0,0,1,193.622,14a21.351,21.351,0,0,1-1.871-2.613,4.545,4.545,0,0,0-1.961,4.348,11.883,11.883,0,0,1-.661,5.455,11.856,11.856,0,0,1,5.456-.661A4.523,4.523,0,0,0,198.943,18.562Zm4.922,2.167a21.072,21.072,0,0,1-4.13-1.711,5.766,5.766,0,0,1-2.927,2.224,14.094,14.094,0,0,1,1.9,6.336,13.83,13.83,0,0,1,3.619-2.08c.69-.3,1.4-.625,2.08-1.007a5.758,5.758,0,0,1-.538-3.761ZM186,5.956a20.683,20.683,0,0,0-1.248,2.4,15.013,15.013,0,0,1-1.995,3.452,15.332,15.332,0,0,1,4.26,1.122c.664.247,1.348.5,2.028.693a5.733,5.733,0,0,1,2.246-3.026,21.013,21.013,0,0,1-1.736-4.17A5.776,5.776,0,0,1,186,5.956Zm2.777-3.664A1.871,1.871,0,0,1,187.206.925h-.716a1.243,1.243,0,0,1-2.283,0h-.833a.752.752,0,0,1-1.157,0h-.773a11.713,11.713,0,0,1,3.421,2.924,4.511,4.511,0,0,0,4.452,1.694A21.013,21.013,0,0,1,188.778,2.292ZM175.724,4.426a8.608,8.608,0,0,0-3.481,1.6,2.391,2.391,0,0,0-1.135,2.156c.227,1.135,1.906,1.842,4.021,1.842a10.409,10.409,0,0,0,1.679-.143,34.081,34.081,0,0,1-1.084-5.455Zm-.184-2.177c-1.625-.018-2.994-.57-3.459-1.323H170.43c.442,1.243,2.606,2.235,5.177,2.317C175.58,2.911,175.557,2.579,175.54,2.248Zm1.447,20.124a2.387,2.387,0,0,0,2.326.722,8.624,8.624,0,0,0,3.605-1.336,34.7,34.7,0,0,1-3.094-4.625C177.472,18.812,176.179,21.161,176.987,22.372Zm.367-10.76c-.086-.25-.169-.5-.249-.753-2.634,1.179-4.362,3.224-3.811,4.569a2.392,2.392,0,0,0,2.137,1.168,5.841,5.841,0,0,0,.631.031A9.142,9.142,0,0,0,179.221,16c-.155-.3-.3-.609-.451-.921-1.8.755-3.558.645-3.969-.274-.42-.938.722-2.363,2.554-3.2ZM156.063,37.765a.13.13,0,0,1,.025-.011s0,0,0,0A.133.133,0,0,1,156.063,37.765ZM169.482.925h-3.1c-.313,1.473-2.085,2.654-4.5,3.076A8.474,8.474,0,0,1,164.2,5.318a3.231,3.231,0,0,1,1.451,3.043c-.337,1.694-2.553,2.69-5.348,2.573a8.672,8.672,0,0,1,2.176,1.851,3.236,3.236,0,0,1,.819,3.273c-.627,1.5-2.759,2.061-5.268,1.568,1.8,1.818,2.507,3.906,1.606,5.256a3.232,3.232,0,0,1-3.179,1.126,8.493,8.493,0,0,1-2.581-.716,8.55,8.55,0,0,1,1.207,2.392,3.231,3.231,0,0,1-.483,3.337,2.3,2.3,0,0,1-.543.4,17.269,17.269,0,0,0,1.576,1.809.46.46,0,0,1,.134.349c-.01.206-.015.413-.015.621a12.214,12.214,0,0,0,7,11.011,13.475,13.475,0,0,1,3.828,2.622l1.112,1.113.769-.771a12.176,12.176,0,0,1,4.028-2.705,12.118,12.118,0,0,0,7.588-11.27c0-.208-.005-.415-.015-.621a.46.46,0,0,1,.134-.349,16.936,16.936,0,0,0,1.582-1.822,2.245,2.245,0,0,1-.52-.386,3.23,3.23,0,0,1-.483-3.337,8.549,8.549,0,0,1,1.207-2.392,8.481,8.481,0,0,1-2.581.715,3.228,3.228,0,0,1-3.179-1.126c-.958-1.436-.1-3.708,1.964-5.6a8.733,8.733,0,0,1-2.849.23,3.235,3.235,0,0,1-2.893-1.736c-.615-1.5.493-3.408,2.617-4.832-2.557-.016-4.535-.99-4.853-2.582a3.23,3.23,0,0,1,1.451-3.043A8.479,8.479,0,0,1,173.984,4c-2.417-.422-4.189-1.6-4.5-3.076Zm-9.35,3.5a34.086,34.086,0,0,1-1.085,5.453,10.217,10.217,0,0,0,1.685.146c2.114,0,3.794-.707,4.021-1.842a2.39,2.39,0,0,0-1.134-2.155A8.567,8.567,0,0,0,160.132,4.426Zm3.731-3.5c-.414.8-1.843,1.4-3.552,1.411V2.321c-.017.307-.037.616-.061.921,2.572-.082,4.737-1.073,5.179-2.316Zm-7.829,16.206a34.543,34.543,0,0,1-3.093,4.625,8.6,8.6,0,0,0,3.607,1.338,4.55,4.55,0,0,0,.483.024,2.1,2.1,0,0,0,1.843-.747C159.682,21.162,158.389,18.81,156.034,17.131Zm4.936-2.076c-.413.924-2.183,1.031-3.995.265-.148.307-.3.612-.457.914a9.26,9.26,0,0,0,3.237.65c1.337,0,2.371-.4,2.7-1.182a2.39,2.39,0,0,0-.684-2.337,8.57,8.57,0,0,0-3.1-2.259q-.124.377-.255.75C160.248,12.69,161.39,14.117,160.97,15.055ZM156.708.926A11.031,11.031,0,0,0,151.8,4.417a5.785,5.785,0,0,1-1,1,18.08,18.08,0,0,1,1.16,2.46,8.519,8.519,0,0,0,2.6,4.02l.009.007a.417.417,0,0,1,.038.035.282.282,0,0,1,.029.029.321.321,0,0,1,.027.035c.009.011.018.024.025.035s.013.026.019.04.013.026.018.04.008.029.011.042.007.031.01.047,0,.026,0,.04a.382.382,0,0,1,0,.051s0,.009,0,.013,0,.015,0,.024a.455.455,0,0,1-.01.053c0,.013-.009.029-.014.042s-.01.026-.016.04-.019.035-.031.053-.006.011-.009.016l0,0a.6.6,0,0,1-.053.062s0,0-.005,0a.435.435,0,0,1-.3.119h-.05a10.193,10.193,0,0,0-4.478.961,19.375,19.375,0,0,1-2.692.861,5.811,5.811,0,0,1-.014,1.294,10.981,10.981,0,0,0,1.042,6.016.459.459,0,0,1-.624.623,10.973,10.973,0,0,0-6.014-1.04,5.821,5.821,0,0,1-1.418,0,20,20,0,0,1-.869,2.6,10.057,10.057,0,0,0-.99,4.653.459.459,0,0,1-.809.334,10.281,10.281,0,0,0-4.1-2.67,23.091,23.091,0,0,1-2.311-1.124,5.813,5.813,0,0,1-.969.958,10.992,10.992,0,0,0-3.516,4.991.46.46,0,0,1-.883,0,11,11,0,0,0-3.516-4.991,5.7,5.7,0,0,1-.952-.937,23.867,23.867,0,0,1-2.217,1.08,10.461,10.461,0,0,0-4.135,2.693.439.439,0,0,1-.2.136l-.014.007a.493.493,0,0,1-.06.013c-.01,0-.02,0-.03,0a.318.318,0,0,1-.061,0,.13.13,0,0,1-.028,0h0a.418.418,0,0,1-.089-.018l-.04-.015-.044-.018a.721.721,0,0,1-.075-.051s0,0,0,0-.014-.016-.021-.022l-.04-.04c-.01-.013-.017-.027-.026-.04a.259.259,0,0,1-.023-.035c-.007-.013-.012-.029-.018-.042a.373.373,0,0,1-.016-.042c0-.013-.006-.029-.009-.042s-.007-.029-.008-.044a.485.485,0,0,1,0-.062c0-.009,0-.018,0-.026a12.57,12.57,0,0,0-1.866-7.217c0-.009-.008-.018-.012-.027a5.8,5.8,0,0,1-1.4,0,11,11,0,0,0-6.015,1.04.459.459,0,0,1-.624-.625,10.909,10.909,0,0,0,1.042-6.013,5.8,5.8,0,0,1-.012-1.323c-.736-.21-1.462-.475-2.167-.736a11.52,11.52,0,0,0-5-1.058.459.459,0,0,1-.34-.806,11.015,11.015,0,0,0,2.565-3.96,21.453,21.453,0,0,1,1.3-2.493,5.732,5.732,0,0,1-1.071-1.053A11.031,11.031,0,0,0,95.448.925H94.356a31.684,31.684,0,0,0,63.361,0Zm-3.1,0a.753.753,0,0,1-.562.254.761.761,0,0,1-.565-.254h-.859a1.235,1.235,0,0,1-2.257,0h-.739a1.87,1.87,0,0,1-1.51,1.343,18.094,18.094,0,0,1-.526,3.269,4.513,4.513,0,0,0,4.484-1.687A11.7,11.7,0,0,1,154.5.926Zm-9.02,9.627a5.763,5.763,0,0,1,2.314,3.1,18.846,18.846,0,0,0,2.543-.817,14.134,14.134,0,0,1,3.656-1.007,11.849,11.849,0,0,1-2-3.6,17.372,17.372,0,0,0-1.084-2.312,5.788,5.788,0,0,1-3.713.494A20.961,20.961,0,0,1,144.589,10.552Zm-8.407,8.432A21.008,21.008,0,0,1,132,20.729a5.761,5.761,0,0,1-.523,3.732,22.886,22.886,0,0,0,2.174,1.058,13.282,13.282,0,0,1,3.621,2.083,13.206,13.206,0,0,1,1.057-3.894,19.386,19.386,0,0,0,.828-2.46A5.784,5.784,0,0,1,136.182,18.984Zm9.969-3.246a4.514,4.514,0,0,0-1.977-4.364,18.136,18.136,0,0,1-1.912,2.652,1.875,1.875,0,0,1-2.618,2.619,18.263,18.263,0,0,1-2.652,1.91,4.518,4.518,0,0,0,4.364,1.977,11.855,11.855,0,0,1,5.456.66A11.888,11.888,0,0,1,146.151,15.738Zm-23.5,9.733a11.9,11.9,0,0,1,3.39,4.326,11.9,11.9,0,0,1,3.39-4.326,4.515,4.515,0,0,0,1.688-4.483,18.092,18.092,0,0,1-3.226.526,1.875,1.875,0,0,1-3.705,0,18.4,18.4,0,0,1-3.223-.523A4.55,4.55,0,0,0,122.648,25.471ZM145.027.926h-1.445a2.706,2.706,0,0,1-1.877,2.281A2.7,2.7,0,0,1,140.229,7.9a2.7,2.7,0,0,1-3.258,3.916,2.684,2.684,0,0,1,.046.484,2.706,2.706,0,0,1-3.924,2.418,2.7,2.7,0,0,1-4.6,1.473,2.7,2.7,0,0,1-4.953.011,2.7,2.7,0,0,1-4.6-1.484,2.7,2.7,0,0,1-3.878-2.9A2.7,2.7,0,0,1,111.805,7.9a2.7,2.7,0,0,1-1.474-4.689A2.709,2.709,0,0,1,108.573,1.5a2.526,2.526,0,0,1-.124-.574h-1.412a1.873,1.873,0,0,1-1.086,1.241,17.665,17.665,0,0,0,4.631,11.25,1.875,1.875,0,0,1,2.464,2.476,18.973,18.973,0,0,0,11.227,4.695,1.875,1.875,0,0,1,3.529,0,20.1,20.1,0,0,0,11.237-4.675,1.874,1.874,0,0,1,2.485-2.491A20.123,20.123,0,0,0,146.17,2.173,1.876,1.876,0,0,1,145.027.926Zm-3.906,0q-.023.749-.117,1.482A1.787,1.787,0,0,0,142.656.926Zm-1.473,6.055a1.733,1.733,0,0,0,.242.02,1.784,1.784,0,0,0,.9-3.328A14.981,14.981,0,0,1,139.648,6.981Zm-2.641,3.836a1.784,1.784,0,0,0,2.116-2.845A15.166,15.166,0,0,1,137.007,10.817Zm-3.767,2.906a1.767,1.767,0,0,0,1.069.362,1.793,1.793,0,0,0,1.79-1.791,1.72,1.72,0,0,0-.081-.519A15.266,15.266,0,0,1,133.24,13.724Zm-4.305,1.552a1.784,1.784,0,0,0,3.275-.983c0-.02,0-.04,0-.059A14.95,14.95,0,0,1,128.935,15.276Zm-4.68.172a1.785,1.785,0,0,0,3.5.007,14.755,14.755,0,0,1-1.719.1,15.306,15.306,0,0,1-1.784-.108Zm-4.432-1.155a1.785,1.785,0,0,0,3.283.976,15,15,0,0,1-3.278-1.056C119.826,14.24,119.823,14.267,119.823,14.293Zm-3.888-2a1.793,1.793,0,0,0,1.79,1.791,1.762,1.762,0,0,0,1.086-.375,15.152,15.152,0,0,1-2.787-1.965A1.768,1.768,0,0,0,115.935,12.295ZM137.341.926a1.756,1.756,0,0,1-1.163,1.21,1.749,1.749,0,0,1-.957,3.034,1.75,1.75,0,0,1-1.507,2.646,1.77,1.77,0,0,1-.6-.108,1.735,1.735,0,0,1,.03.314A1.749,1.749,0,0,1,130.6,9.585a1.751,1.751,0,0,1-2.981.956,1.752,1.752,0,0,1-3.208,0,1.75,1.75,0,0,1-2.976-.96,1.748,1.748,0,0,1-2.511-1.877,1.7,1.7,0,0,1-.6.108,1.75,1.75,0,0,1-1.507-2.646,1.755,1.755,0,0,1-1.534-1.738,1.735,1.735,0,0,1,.58-1.3,1.759,1.759,0,0,1-1.139-1.106c-.012-.033-.02-.068-.029-.1h-2.822a14.174,14.174,0,0,0,28.333,0Zm-3.309,0a8.007,8.007,0,0,1-15.987,0h-1.013a9.018,9.018,0,0,0,18,0Zm-1.942,0a6.07,6.07,0,0,1-12.1,0h-1.021a7.088,7.088,0,0,0,14.145,0ZM112.342,9.273a1.791,1.791,0,0,0,1.79,1.789,1.748,1.748,0,0,0,.922-.263,15.13,15.13,0,0,1-2.114-2.847,1.77,1.77,0,0,0-.6,1.321Zm-1.1-5.6a1.772,1.772,0,0,0-.885,1.535A1.793,1.793,0,0,0,112.144,7a1.664,1.664,0,0,0,.277-.026,14.958,14.958,0,0,1-1.038-2.9,2.71,2.71,0,0,1-.144-.4ZM110.952.926h-1.576a1.6,1.6,0,0,0,.066.276,1.81,1.81,0,0,0,1.188,1.138,1.717,1.717,0,0,0,.443.086C111.008,1.932,110.968,1.431,110.952.926Zm4.207,17.637a21.555,21.555,0,0,1-2.7-1.93A1.875,1.875,0,0,1,109.838,14a21.334,21.334,0,0,1-1.871-2.613,4.546,4.546,0,0,0-1.961,4.349,11.885,11.885,0,0,1-.661,5.455,11.856,11.856,0,0,1,5.456-.66,4.524,4.524,0,0,0,4.36-1.97Zm4.922,2.167a21.057,21.057,0,0,1-4.13-1.711,5.766,5.766,0,0,1-2.927,2.224,14.1,14.1,0,0,1,1.9,6.336,13.826,13.826,0,0,1,3.619-2.08c.69-.3,1.4-.625,2.08-1.007A5.756,5.756,0,0,1,120.082,20.729ZM102.217,5.956a20.678,20.678,0,0,0-1.248,2.4A15.018,15.018,0,0,1,98.974,11.8a15.34,15.34,0,0,1,4.26,1.122c.665.247,1.348.5,2.028.693a5.733,5.733,0,0,1,2.246-3.025,21,21,0,0,1-1.735-4.17A5.776,5.776,0,0,1,102.217,5.956Zm2.777-3.664A1.872,1.872,0,0,1,103.421.926h-.716a1.243,1.243,0,0,1-2.283,0H99.59a.752.752,0,0,1-1.157,0H97.66a11.723,11.723,0,0,1,3.421,2.924,4.511,4.511,0,0,0,4.452,1.694,21.052,21.052,0,0,1-.539-3.251ZM91.94,4.426a8.61,8.61,0,0,0-3.481,1.6,2.39,2.39,0,0,0-1.134,2.156c.227,1.135,1.906,1.842,4.02,1.842a10.356,10.356,0,0,0,1.679-.144A34.064,34.064,0,0,1,91.94,4.426Zm-.184-2.178C90.131,2.23,88.762,1.678,88.3.926H86.646c.441,1.243,2.606,2.235,5.177,2.316C91.8,2.911,91.773,2.58,91.756,2.248ZM93.2,22.372a2.388,2.388,0,0,0,2.326.722,8.615,8.615,0,0,0,3.605-1.336,34.661,34.661,0,0,1-3.095-4.625c-2.353,1.678-3.645,4.029-2.837,5.239Zm.368-10.76q-.129-.374-.249-.753c-2.634,1.179-4.362,3.224-3.811,4.57A2.393,2.393,0,0,0,91.648,16.6a5.9,5.9,0,0,0,.631.031,9.152,9.152,0,0,0,3.158-.623c-.155-.3-.3-.61-.451-.921-1.8.755-3.559.645-3.97-.274-.42-.938.722-2.363,2.554-3.2ZM72.279,37.765a.117.117,0,0,1,.025-.011v0A.12.12,0,0,1,72.279,37.765ZM85.7.926h-3.13c-.309,1.477-2.082,2.661-4.5,3.083a8.539,8.539,0,0,1,2.324,1.316A3.231,3.231,0,0,1,81.84,8.368c-.337,1.694-2.553,2.692-5.348,2.573a8.628,8.628,0,0,1,2.176,1.853,3.231,3.231,0,0,1,.819,3.271c-.627,1.5-2.759,2.063-5.268,1.568,1.8,1.818,2.507,3.907,1.607,5.256a3.233,3.233,0,0,1-3.179,1.126,8.482,8.482,0,0,1-2.581-.715,8.549,8.549,0,0,1,1.207,2.392,3.231,3.231,0,0,1-.483,3.337,2.243,2.243,0,0,1-.518.386,17.3,17.3,0,0,0,1.58,1.815.46.46,0,0,1,.134.349c-.01.205-.015.413-.015.621a12.214,12.214,0,0,0,7,11.011A13.478,13.478,0,0,1,82.8,45.833l1.112,1.113.769-.771a12.183,12.183,0,0,1,4.028-2.705A12.117,12.117,0,0,0,96.294,32.2c0-.208-.005-.416-.015-.621a.459.459,0,0,1,.134-.349A16.962,16.962,0,0,0,98,29.408a2.24,2.24,0,0,1-.521-.386,3.23,3.23,0,0,1-.483-3.337A8.55,8.55,0,0,1,98.2,23.293a8.485,8.485,0,0,1-2.581.716,3.229,3.229,0,0,1-3.179-1.126c-.958-1.436-.1-3.708,1.964-5.6a8.732,8.732,0,0,1-2.849.23,3.235,3.235,0,0,1-2.893-1.736c-.615-1.5.493-3.408,2.617-4.832-2.557-.015-4.536-.99-4.853-2.582a3.231,3.231,0,0,1,1.451-3.043A8.486,8.486,0,0,1,90.2,4C87.783,3.58,86.011,2.4,85.7.925Zm-5.642,0c-.409.808-1.841,1.409-3.553,1.418-.017.3-.037.6-.061.906,2.576-.082,4.744-1.076,5.179-2.323ZM72.224,17.14a34.543,34.543,0,0,1-3.095,4.625A8.625,8.625,0,0,0,72.735,23.1c.168.016.329.024.483.024a2.1,2.1,0,0,0,1.843-.749C75.869,21.168,74.577,18.818,72.224,17.14Zm4.933-2.078c-.413.921-2.18,1.031-3.99.267-.148.307-.3.612-.459.914a9.293,9.293,0,0,0,3.235.647c1.337,0,2.371-.4,2.7-1.179a2.391,2.391,0,0,0-.684-2.339,8.582,8.582,0,0,0-3.094-2.257c-.082.252-.167.5-.256.751C76.436,12.7,77.577,14.123,77.157,15.062ZM75.24,9.887a10.408,10.408,0,0,0,1.679.143c2.114,0,3.794-.7,4.021-1.842A2.39,2.39,0,0,0,79.8,6.033a8.611,8.611,0,0,0-3.481-1.6A34.059,34.059,0,0,1,75.24,9.887ZM72.917.925a11.035,11.035,0,0,0-4.932,3.5,5.8,5.8,0,0,1-1,1,18.209,18.209,0,0,1,1.16,2.46,8.518,8.518,0,0,0,2.6,4.02.028.028,0,0,1,.009.009.2.2,0,0,1,.038.033.256.256,0,0,1,.029.029.3.3,0,0,1,.027.035c.009.011.018.024.025.035s.013.026.019.04a.317.317,0,0,1,.018.042.363.363,0,0,1,.011.042.328.328,0,0,1,.01.044c0,.013,0,.026,0,.04a.436.436,0,0,1,0,.051s0,.009,0,.013,0,.018-.005.027-.005.033-.009.051-.009.029-.015.044-.009.024-.014.036a.459.459,0,0,1-.033.057l-.008.013s0,0,0,0a.54.54,0,0,1-.053.062s0,0-.005,0a.442.442,0,0,1-.224.112l-.016,0a.2.2,0,0,1-.052,0,.323.323,0,0,1-.049,0h-.01a10.191,10.191,0,0,0-4.478.961,19.058,19.058,0,0,1-2.692.861,5.8,5.8,0,0,1-.014,1.294,10.984,10.984,0,0,0,1.042,6.016.46.46,0,0,1-.624.625,10.986,10.986,0,0,0-6.015-1.042,5.741,5.741,0,0,1-1.418,0,20.1,20.1,0,0,1-.869,2.6,10.059,10.059,0,0,0-.99,4.653.459.459,0,0,1-.809.334,10.283,10.283,0,0,0-4.1-2.67,22.7,22.7,0,0,1-2.311-1.124,5.718,5.718,0,0,1-.969.959,10.99,10.99,0,0,0-3.516,4.991.46.46,0,0,1-.883,0A10.99,10.99,0,0,0,38.268,26.2a5.774,5.774,0,0,1-.951-.934A24.554,24.554,0,0,1,35.1,26.343a10.481,10.481,0,0,0-4.136,2.692l-.027.026c-.012.011-.023.024-.036.035l-.039.026-.036.022c-.012.007-.025.011-.038.017s-.029.013-.045.018l-.038.007a.184.184,0,0,1-.05.009.517.517,0,0,1-.058,0,.131.131,0,0,0-.029,0h0a.461.461,0,0,1-.176-.055.656.656,0,0,1-.072-.048s0,0,0,0a.156.156,0,0,1-.021-.022c-.014-.013-.028-.027-.04-.04s-.017-.027-.026-.04a.311.311,0,0,1-.023-.036c-.007-.013-.012-.029-.018-.042a.307.307,0,0,1-.016-.042.331.331,0,0,1-.009-.044.345.345,0,0,1-.008-.042.448.448,0,0,1,0-.062c0-.009,0-.018,0-.026a12.569,12.569,0,0,0-1.866-7.218c0-.009-.008-.018-.012-.026a5.789,5.789,0,0,1-1.4,0,10.984,10.984,0,0,0-6.014,1.042.462.462,0,0,1-.547-.08.456.456,0,0,1-.076-.545,10.927,10.927,0,0,0,1.042-6.016,5.789,5.789,0,0,1-.011-1.323c-.736-.208-1.462-.473-2.167-.733a11.5,11.5,0,0,0-5.005-1.06.459.459,0,0,1-.34-.806,10.992,10.992,0,0,0,2.565-3.96,21.581,21.581,0,0,1,1.3-2.493,5.733,5.733,0,0,1-1.071-1.053,11.033,11.033,0,0,0-4.932-3.5H10.543a31.686,31.686,0,0,0,63.364,0ZM69.8.925a.75.75,0,0,1-.567.261.762.762,0,0,1-.573-.261h-.854a1.228,1.228,0,0,1-2.253,0h-.742A1.867,1.867,0,0,1,63.3,2.275a18.191,18.191,0,0,1-.525,3.271,4.518,4.518,0,0,0,4.483-1.69A11.747,11.747,0,0,1,70.7.925Zm-9.027,9.633a5.758,5.758,0,0,1,2.315,3.1,18.764,18.764,0,0,0,2.543-.817,14.232,14.232,0,0,1,3.656-1.007,11.85,11.85,0,0,1-2-3.6,17.383,17.383,0,0,0-1.084-2.312,5.792,5.792,0,0,1-3.714.495A20.977,20.977,0,0,1,60.775,10.559Zm-8.407,8.432a21.018,21.018,0,0,1-4.186,1.745,5.764,5.764,0,0,1-.523,3.733,22.475,22.475,0,0,0,2.174,1.058,13.274,13.274,0,0,1,3.621,2.083,13.206,13.206,0,0,1,1.057-3.894,19.381,19.381,0,0,0,.828-2.46A5.784,5.784,0,0,1,52.369,18.991Zm9.97-3.246a4.518,4.518,0,0,0-1.977-4.364,18.18,18.18,0,0,1-1.912,2.655,1.874,1.874,0,0,1-2.618,2.617,18.208,18.208,0,0,1-2.652,1.91,4.516,4.516,0,0,0,4.364,1.977A11.913,11.913,0,0,1,63,21.2,11.888,11.888,0,0,1,62.338,15.744Zm-23.5,9.735a11.874,11.874,0,0,1,3.39,4.324,11.876,11.876,0,0,1,3.39-4.324A4.518,4.518,0,0,0,47.3,20.994a18.049,18.049,0,0,1-3.226.525,1.874,1.874,0,0,1-3.7,0,18.049,18.049,0,0,1-3.226-.525A4.52,4.52,0,0,0,38.835,25.479ZM61.208.925h-1.43a2.716,2.716,0,0,1-1.885,2.29A2.7,2.7,0,0,1,56.416,7.9a2.7,2.7,0,0,1-3.258,3.916,2.74,2.74,0,0,1,.046.486,2.7,2.7,0,0,1-3.924,2.416,2.7,2.7,0,0,1-4.6,1.475,2.705,2.705,0,0,1-4.953.009,2.7,2.7,0,0,1-4.6-1.484,2.7,2.7,0,0,1-3.878-2.9,2.666,2.666,0,0,1-.931.168A2.7,2.7,0,0,1,27.992,7.9a2.7,2.7,0,0,1-1.473-4.689A2.71,2.71,0,0,1,24.76,1.508a2.607,2.607,0,0,1-.125-.583h-1.4a1.879,1.879,0,0,1-1.092,1.248,18.7,18.7,0,0,0,4.631,11.25A1.875,1.875,0,0,1,29.233,15.9,17.9,17.9,0,0,0,35.8,19.622a20.014,20.014,0,0,0,4.661.972,1.875,1.875,0,0,1,3.53,0,20.115,20.115,0,0,0,11.237-4.673,1.875,1.875,0,0,1,2.486-2.493A20.112,20.112,0,0,0,62.358,2.179,1.883,1.883,0,0,1,61.208.925Zm-3.9,0c-.015.5-.055,1-.118,1.488A1.791,1.791,0,0,0,58.851.925ZM55.84,6.99a1.709,1.709,0,0,0,.237.018,1.784,1.784,0,0,0,.9-3.328A15,15,0,0,1,55.84,6.99Zm-2.645,3.834a1.754,1.754,0,0,0,.894.245,1.784,1.784,0,0,0,1.223-3.087A15.233,15.233,0,0,1,53.195,10.824Zm-3.766,2.908A1.783,1.783,0,0,0,52.285,12.3a1.735,1.735,0,0,0-.081-.521A15.18,15.18,0,0,1,49.428,13.732Zm-4.306,1.55A1.784,1.784,0,0,0,48.4,14.3c0-.02,0-.04,0-.059a14.94,14.94,0,0,1-3.272,1.042Zm-4.68.173a1.786,1.786,0,0,0,3.5.009,15.262,15.262,0,0,1-1.719.1,15.415,15.415,0,0,1-1.784-.108ZM36.01,14.3a1.786,1.786,0,0,0,3.283.976,15.13,15.13,0,0,1-3.278-1.053C36.014,14.247,36.01,14.273,36.01,14.3Zm-3.888-2a1.792,1.792,0,0,0,1.79,1.789A1.76,1.76,0,0,0,35,13.717a15.163,15.163,0,0,1-2.787-1.965A1.769,1.769,0,0,0,32.123,12.3ZM53.532.925a1.758,1.758,0,0,1-1.166,1.217,1.749,1.749,0,0,1-.957,3.034A1.752,1.752,0,0,1,49.9,7.824a1.784,1.784,0,0,1-.6-.11,1.736,1.736,0,0,1,.03.313,1.755,1.755,0,0,1-1.754,1.754,1.721,1.721,0,0,1-.787-.19,1.752,1.752,0,0,1-2.982.956,1.753,1.753,0,0,1-3.207.007,1.752,1.752,0,0,1-2.976-.963,1.721,1.721,0,0,1-.787.19,1.755,1.755,0,0,1-1.754-1.754,1.737,1.737,0,0,1,.03-.313,1.712,1.712,0,0,1-.6.11A1.751,1.751,0,0,1,33,5.177a1.747,1.747,0,0,1-.954-3.034,1.758,1.758,0,0,1-1.139-1.106C30.9,1,30.888.963,30.878.925h-2.82a14.175,14.175,0,0,0,28.335,0Zm-3.312,0a8.007,8.007,0,0,1-15.988,0H33.219a9.015,9.015,0,0,0,17.994,0Zm-1.942,0a6.07,6.07,0,0,1-12.1,0H35.152A7.088,7.088,0,0,0,49.3.925ZM28.53,9.28a1.791,1.791,0,0,0,1.789,1.789,1.766,1.766,0,0,0,.922-.261,15.233,15.233,0,0,1-2.114-2.849A1.77,1.77,0,0,0,28.53,9.28Zm-.96-5.192a2.856,2.856,0,0,1-.144-.406,1.772,1.772,0,0,0-.885,1.537,1.792,1.792,0,0,0,1.789,1.789,1.64,1.64,0,0,0,.277-.026A14.978,14.978,0,0,1,27.57,4.088ZM27.14.925H25.56a1.646,1.646,0,0,0,.068.282,1.819,1.819,0,0,0,1.188,1.14,1.779,1.779,0,0,0,.443.084c-.065-.495-.105-1-.12-1.506Zm4.207,17.644a21.284,21.284,0,0,1-2.7-1.93,1.875,1.875,0,0,1-2.625-2.63,21.381,21.381,0,0,1-1.873-2.615,4.509,4.509,0,0,0-1.959,4.351,11.881,11.881,0,0,1-.661,5.455,11.883,11.883,0,0,1,5.456-.66A4.52,4.52,0,0,0,31.347,18.569Zm4.922,2.167a21.078,21.078,0,0,1-4.13-1.711,5.785,5.785,0,0,1-2.927,2.226,14.074,14.074,0,0,1,1.9,6.334,13.841,13.841,0,0,1,3.619-2.08c.69-.3,1.4-.625,2.08-1.007A5.758,5.758,0,0,1,36.269,20.735ZM18.4,5.963a20.711,20.711,0,0,0-1.248,2.4,15,15,0,0,1-1.994,3.452,15.269,15.269,0,0,1,4.26,1.124c.664.246,1.348.5,2.028.691A5.741,5.741,0,0,1,23.695,10.6a21.011,21.011,0,0,1-1.736-4.17A5.754,5.754,0,0,1,18.4,5.963ZM21.181,2.3A1.877,1.877,0,0,1,19.607.925H18.9a1.242,1.242,0,0,1-1.145.758A1.234,1.234,0,0,1,16.615.925h-.833a.754.754,0,0,1-1.17,0h-.781a11.725,11.725,0,0,1,3.438,2.93A4.507,4.507,0,0,0,21.72,5.55,21.017,21.017,0,0,1,21.181,2.3ZM8.356.006H92.1c.023,0,.046-.006.07-.006s.047,0,.07.006h1.582c.023,0,.046-.006.07-.006s.047,0,.07.006h31.683L125.757,0h4.734l.07.006h45.323c.023,0,.046-.006.07-.006s.047,0,.07.006H202.2c.023,0,.046-.006.07-.006s.047,0,.07.006h1.8c.023,0,.046-.006.07-.006h11.225c.024,0,.046,0,.068.006h1.8c.022,0,.046-.006.071-.006s.046,0,.068.006h26.182c.022,0,.046-.006.071-.006s.046,0,.068.006H419.735V.925h-1.573c-.2,1.555-2.023,2.816-4.536,3.253a8.581,8.581,0,0,1,2.326,1.316A3.236,3.236,0,0,1,417.4,8.538c-.338,1.694-2.553,2.692-5.349,2.573a8.593,8.593,0,0,1,2.175,1.853,3.23,3.23,0,0,1,.819,3.271c-.625,1.5-2.758,2.063-5.267,1.568,1.8,1.818,2.507,3.907,1.606,5.256a3.23,3.23,0,0,1-3.178,1.126,8.491,8.491,0,0,1-2.582-.716,8.591,8.591,0,0,1,1.208,2.392,3.232,3.232,0,0,1-.484,3.337,2.3,2.3,0,0,1-.66.459,17.2,17.2,0,0,0,1.537,1.76.454.454,0,0,1,.132.349c-.009.206-.013.413-.013.621a12.112,12.112,0,0,0,7.586,11.268,12.165,12.165,0,0,1,4.028,2.708l.771.768,0,0v1.628l-.026,0a.646.646,0,0,1-.645-.647.629.629,0,0,1,.051-.25.643.643,0,0,1-.923-.884.644.644,0,0,1-.945-.861.644.644,0,0,1-1.082-.473.631.631,0,0,1,.055-.258.645.645,0,0,1-1.1-.649h0a.644.644,0,0,1-1.215-.3.7.7,0,0,1,.02-.155.644.644,0,0,1-1.168-.378.638.638,0,0,1,.055-.259.645.645,0,0,1-1.162-.386.636.636,0,0,1,.068-.281.642.642,0,0,1-1.058-.494.635.635,0,0,1,.082-.307.643.643,0,0,1-.9-.91.635.635,0,0,1-.34.1.644.644,0,0,1-.466-1.091.642.642,0,0,1-1.06-.492.649.649,0,0,1,.283-.534.626.626,0,0,1-.192.033.645.645,0,0,1-.331-1.2h0a.623.623,0,0,1-.28.069.645.645,0,0,1-.267-1.232.671.671,0,0,1-.221.04.644.644,0,0,1-.261-1.234.644.644,0,0,1-.278-1.217.642.642,0,0,1-.159-1.252.642.642,0,0,1-.371-1.025.639.639,0,0,1-.208-1.131s0,0,0-.007a.642.642,0,0,1-1.051-.5.634.634,0,0,1,.174-.437.64.64,0,0,1-.89-.282c-.13-.018-.263-.038-.4-.066a19.03,19.03,0,0,0,1.855,2.354.46.46,0,0,1,.124.31,13.976,13.976,0,0,0,8.746,12.9,10.326,10.326,0,0,1,3.414,2.3l1.093,1.093a1.39,1.39,0,0,0,.989.409h0V50.1h0a2.3,2.3,0,0,1-1.639-.678L417,48.326a9.441,9.441,0,0,0-3.11-2.1,14.89,14.89,0,0,1-9.318-13.571,20.059,20.059,0,0,1-2.438-3.309,9.222,9.222,0,0,1-1.513-.875,8.565,8.565,0,0,1,.716,2.582,3.236,3.236,0,0,1-1.126,3.18c-1.436.958-3.708.1-5.6-1.963a8.733,8.733,0,0,1,.23,2.849,3.239,3.239,0,0,1-1.736,2.893c-1.5.614-3.408-.495-4.834-2.617-.013,2.557-.989,4.534-2.58,4.852a3.233,3.233,0,0,1-3.046-1.451,8.532,8.532,0,0,1-1.316-2.323c-.464,2.668-1.853,4.556-3.54,4.556s-3.079-1.888-3.542-4.556A8.533,8.533,0,0,1,372.93,38.8a3.231,3.231,0,0,1-3.046,1.451c-1.692-.338-2.69-2.553-2.573-5.349a8.683,8.683,0,0,1-1.851,2.177,3.238,3.238,0,0,1-3.273.82c-1.5-.627-2.061-2.759-1.568-5.27-1.818,1.8-3.907,2.507-5.256,1.608a3.236,3.236,0,0,1-1.126-3.18,8.569,8.569,0,0,1,.716-2.582,9.12,9.12,0,0,1-1.769.985,20.015,20.015,0,0,1-2.367,3.189A14.893,14.893,0,0,1,341.5,46.219a9.4,9.4,0,0,0-3.11,2.1L337.3,49.41a2.319,2.319,0,0,1-3.277,0l-1.436-1.438a10.77,10.77,0,0,0-3.046-2.072,15.017,15.017,0,0,1-8.593-13.255,19.994,19.994,0,0,1-2.359-3.2,9.109,9.109,0,0,1-1.747-.976,8.571,8.571,0,0,1,.716,2.582,3.241,3.241,0,0,1-1.126,3.18c-1.438.958-3.708.1-5.6-1.963a8.663,8.663,0,0,1,.227,2.849,3.233,3.233,0,0,1-1.734,2.893c-1.5.614-3.408-.495-4.834-2.617-.013,2.557-.989,4.534-2.58,4.852a3.233,3.233,0,0,1-3.046-1.451,8.533,8.533,0,0,1-1.316-2.323c-.464,2.668-1.855,4.556-3.542,4.556s-3.076-1.889-3.54-4.556a8.535,8.535,0,0,1-1.316,2.323A3.233,3.233,0,0,1,286.1,40.25c-1.692-.338-2.69-2.553-2.573-5.349a8.686,8.686,0,0,1-1.851,2.177,3.239,3.239,0,0,1-3.273.82c-1.5-.627-2.061-2.759-1.568-5.27-1.818,1.8-3.907,2.507-5.256,1.608a3.236,3.236,0,0,1-1.126-3.18,8.572,8.572,0,0,1,.716-2.582,9.148,9.148,0,0,1-1.769.985,20.05,20.05,0,0,1-2.367,3.189,14.893,14.893,0,0,1-9.318,13.571,9.383,9.383,0,0,0-3.11,2.1l-1.093,1.093a2.319,2.319,0,0,1-3.277,0L248.8,47.973a10.769,10.769,0,0,0-3.046-2.072,15.017,15.017,0,0,1-8.593-13.255,19.89,19.89,0,0,1-2.379-3.229,8.809,8.809,0,0,1-2.125-1.119,8.567,8.567,0,0,1,.716,2.582,3.236,3.236,0,0,1-1.126,3.18c-1.436.958-3.708.095-5.6-1.963a8.725,8.725,0,0,1,.23,2.849,3.231,3.231,0,0,1-1.736,2.891c-1.5.616-3.408-.492-4.832-2.615-.015,2.558-.992,4.534-2.582,4.852a3.235,3.235,0,0,1-3.046-1.451,8.5,8.5,0,0,1-1.314-2.323c-.466,2.665-1.855,4.554-3.543,4.554s-3.078-1.888-3.542-4.554a8.557,8.557,0,0,1-1.316,2.323,3.233,3.233,0,0,1-3.045,1.451c-1.693-.338-2.69-2.553-2.572-5.349A8.663,8.663,0,0,1,197.5,36.9a3.242,3.242,0,0,1-3.272.82c-1.5-.627-2.061-2.761-1.567-5.269-1.818,1.8-3.908,2.506-5.257,1.608a3.235,3.235,0,0,1-1.127-3.18,8.551,8.551,0,0,1,.716-2.582,9.149,9.149,0,0,1-1.77.985,20.085,20.085,0,0,1-2.367,3.189,14.9,14.9,0,0,1-9.318,13.572,9.415,9.415,0,0,0-3.109,2.1l-1.094,1.094a2.314,2.314,0,0,1-3.277,0L164.618,47.8a10.764,10.764,0,0,0-3.045-2.072,15.016,15.016,0,0,1-8.594-13.256,19.911,19.911,0,0,1-2.359-3.2,9.174,9.174,0,0,1-1.748-.976,8.55,8.55,0,0,1,.716,2.582,3.236,3.236,0,0,1-1.127,3.18c-1.436.958-3.708.094-5.6-1.964a8.649,8.649,0,0,1,.229,2.849,3.229,3.229,0,0,1-1.734,2.891c-1.5.616-3.409-.492-4.834-2.615-.014,2.558-.99,4.534-2.581,4.852a3.232,3.232,0,0,1-3.045-1.451,8.549,8.549,0,0,1-1.316-2.323c-.464,2.665-1.854,4.554-3.542,4.554S122.96,38.964,122.5,36.3a8.546,8.546,0,0,1-1.316,2.323,3.232,3.232,0,0,1-3.045,1.451c-1.692-.338-2.69-2.553-2.572-5.349a8.662,8.662,0,0,1-1.852,2.177,3.241,3.241,0,0,1-3.272.82c-1.5-.627-2.061-2.76-1.568-5.269-1.818,1.8-3.908,2.506-5.257,1.608a3.236,3.236,0,0,1-1.127-3.18A8.551,8.551,0,0,1,103.2,28.3a9.137,9.137,0,0,1-1.77.985,20.083,20.083,0,0,1-2.367,3.189A14.9,14.9,0,0,1,89.75,46.043a9.417,9.417,0,0,0-3.11,2.1l-1.093,1.094a2.313,2.313,0,0,1-3.277,0L80.834,47.8a10.758,10.758,0,0,0-3.045-2.072A15.016,15.016,0,0,1,69.2,32.469,20,20,0,0,1,66.852,29.3a9.2,9.2,0,0,1-1.792-.994,8.513,8.513,0,0,1,.716,2.58,3.235,3.235,0,0,1-1.127,3.18c-1.436.958-3.708.1-5.6-1.964a8.643,8.643,0,0,1,.229,2.849,3.236,3.236,0,0,1-1.734,2.893c-1.5.614-3.409-.494-4.834-2.617-.014,2.557-.99,4.534-2.581,4.852a3.232,3.232,0,0,1-3.045-1.451,8.51,8.51,0,0,1-1.316-2.323c-.464,2.668-1.855,4.556-3.542,4.556s-3.078-1.888-3.542-4.556a8.516,8.516,0,0,1-1.316,2.323,3.233,3.233,0,0,1-3.045,1.451c-1.692-.338-2.69-2.553-2.572-5.349A8.668,8.668,0,0,1,29.9,36.908a3.238,3.238,0,0,1-3.272.82c-1.5-.627-2.061-2.761-1.567-5.27-1.818,1.8-3.907,2.507-5.257,1.608a3.236,3.236,0,0,1-1.127-3.18,8.52,8.52,0,0,1,.716-2.58,9.1,9.1,0,0,1-1.85,1.016,20.133,20.133,0,0,1-2.36,3.176A14.889,14.889,0,0,1,5.864,46.069a9.4,9.4,0,0,0-3.109,2.1L1.661,49.26a2.3,2.3,0,0,1-1.638.678h0V49.02h0a1.393,1.393,0,0,0,.989-.409l1.094-1.093a10.318,10.318,0,0,1,3.413-2.3,13.979,13.979,0,0,0,8.747-12.9.458.458,0,0,1,.122-.309,19.287,19.287,0,0,0,1.83-2.314c-.129.02-.255.033-.379.042a.646.646,0,0,1-.571.349A.624.624,0,0,1,14.956,30a.643.643,0,0,1-.877.939l0,.006a.64.64,0,0,1-.208,1.131A.642.642,0,0,1,13.5,33.1a.642.642,0,0,1-.157,1.252.644.644,0,0,1-.278,1.217A.645.645,0,0,1,12.8,36.8a.62.62,0,0,1-.222-.042.645.645,0,0,1-.267,1.232.635.635,0,0,1-.282-.066h0a.645.645,0,0,1-.33,1.2.627.627,0,0,1-.193-.033.644.644,0,1,1-.777,1.025.645.645,0,0,1-.806.994.639.639,0,0,1,.155.415.641.641,0,0,1-1.057.494.635.635,0,0,1,.081.307.644.644,0,0,1-1.057.495.633.633,0,0,1,.067.281.644.644,0,0,1-1.16.386.645.645,0,0,1-1.114.636.625.625,0,0,1,.021.155.644.644,0,0,1-1.215.3h0a.644.644,0,0,1-1.1.647.646.646,0,0,1-.591.906.641.641,0,0,1-.436-.173.644.644,0,0,1-.526,1.018.632.632,0,0,1-.42-.159.643.643,0,0,1-.922.885.642.642,0,0,1,.05.25.647.647,0,0,1-.646.647.1.1,0,0,1-.025,0V46.97l0,0L.792,46.2A12.192,12.192,0,0,1,4.82,43.5a12.112,12.112,0,0,0,7.588-11.268c0-.21-.005-.415-.015-.623a.455.455,0,0,1,.135-.347,17.248,17.248,0,0,0,1.614-1.866,2.243,2.243,0,0,1-.479-.364,3.231,3.231,0,0,1-.483-3.337A8.549,8.549,0,0,1,14.386,23.3a8.482,8.482,0,0,1-2.581.715,3.229,3.229,0,0,1-3.179-1.126c-.958-1.436-.1-3.708,1.964-5.6a8.673,8.673,0,0,1-2.849.229,3.233,3.233,0,0,1-2.893-1.734c-.615-1.5.493-3.41,2.617-4.834-2.557-.013-4.535-.99-4.853-2.582A3.23,3.23,0,0,1,4.063,5.325,8.543,8.543,0,0,1,6.387,4.008C3.966,3.587,2.192,2.4,1.884.926H0V.006H8.356" transform="translate(0 15.148)" fill="#3c2415"/></g></svg>