<svg xmlns="http://www.w3.org/2000/svg" width="1311" height="1062" viewBox="0 0 1311 1062"><g transform="translate(-338.506 -1405.8)"><path d="M1336.992-1419.345H2378.24c2.575-79.968,58.011-145.845,127.9-151.918v-749.324c-69.185-5.965-123.446-68.751-127.726-147.79H1336.831c-4.352,79.234-60.861,143.4-130.34,147.984v748.935c71.321,4.668,127.9,70.631,130.5,152.112Zm1046.8,6.484H1331.438l-.045-3.177c-1.169-80.574-57.325-146.061-127.846-149.087l-2.729-.13V-2326.6l2.729-.13c68.7-2.96,124.817-66.654,127.756-145.045l.115-3.091H2383.827l.114,3.091c2.917,78.2,56.742,140.507,125.208,144.937l2.67.173v761.47l-2.67.173c-69.128,4.474-124.166,69.918-125.3,148.979l-.057,3.177" transform="translate(-862.312 3880.66)" fill="#383635"/><path d="M2368.509-2458.768H1346.722c-11.177,75.842-63.888,136.256-129.812,148.776v728.008c67.683,12.673,120.66,74.873,130.386,153.03h1020.7c9.667-76.68,61.522-138.659,127.733-152.5v-728.978C2430.241-2323.878,2379.381-2383.211,2368.509-2458.768Zm-9.437,13.2c14.108,71.963,62.862,128.762,125.188,145.866v707.532c-63.685,17.655-112.726,76.107-125.915,150.01H1356.95c-13.28-75.358-63.378-134.1-128.569-150.737V-2299.1c63.451-16.42,113.212-73.485,127.748-146.461H2359.072" transform="translate(-862.313 3880.66)" fill="#383635"/></g></svg>