<svg xmlns="http://www.w3.org/2000/svg" width="294.737" height="33.262" viewBox="0 0 294.737 33.262"><path d="M356.54-501.725l42.909-.646c25.744-.444,60.07-.757,94.4-1.163,17.162-.232,34.326-.54,50.416-.625,8.045.072,15.822.039,23.2.191,7.374.108,14.346.256,20.785.434,6.435.145,12.333.419,17.563.587s9.788.359,13.545.571c7.507.351,11.8.651,11.8.651v.517s-4.291.3-11.8.649c-3.757.212-8.315.4-13.545.571s-11.127.442-17.562.589c-6.438.176-13.411.323-20.785.431-7.374.153-15.151.119-23.2.191-16.09-.085-33.254-.393-50.416-.623-34.326-.408-68.653-.721-94.4-1.163l-42.909-.646v-.517" transform="translate(-347.855 518.109)" fill="#523223"/><path d="M365.315-497.911s-12.81-5.876-12.585-9.163,13.183,2.928,13.059,9.233l-.474-.07" transform="translate(-352.727 514.523)" fill="#523223"/><path d="M374.053-496.037s-17.748-8.14-17.438-12.693,18.264,4.054,18.094,12.788l-.656-.1" transform="translate(-347.765 512.641)" fill="#523223"/><path d="M379.094-494.96S361.24-505.04,362.9-510.068s19.606,5.62,16.9,15.354l-.7-.245" transform="translate(-339.867 511.357)" fill="#523223"/><path d="M365.315-502.734s-12.81,5.876-12.585,9.163,13.183-2.925,13.059-9.23l-.474.067" transform="translate(-352.727 519.382)" fill="#523223"/><path d="M474.829-497.911s-12.81-5.876-12.585-9.163,13.18,2.928,13.059,9.233l-.474-.07" transform="translate(-212.801 514.523)" fill="#523223"/><path d="M474.829-502.734s-12.81,5.876-12.585,9.163,13.18-2.925,13.059-9.23l-.474.067" transform="translate(-212.801 519.382)" fill="#523223"/><path d="M374.053-502.718s-17.748,8.139-17.438,12.692,18.264-4.054,18.094-12.785l-.656.093" transform="translate(-347.765 519.373)" fill="#523223"/><path d="M379.094-502.539S361.24-492.456,362.9-487.427s19.606-5.62,16.9-15.354l-.7.243" transform="translate(-339.867 519.401)" fill="#523223"/><path d="M498.174-496.122c-4.088,6.584-12.321,15.576-22.394,13.78a8.1,8.1,0,0,1-4.78-2.5c-2.478-2.946-.234-5.878,2.7-7.713a32.175,32.175,0,0,1,7.839-3.512c-1.033.307-4.428-1.3-5.43-1.742a13.2,13.2,0,0,1-4.692-3.217c-1.734-1.972-2.843-5.4-.531-7.411,3.459-3.013,11.656-1.129,15.121.964a42.121,42.121,0,0,1,12.172,11.346" transform="translate(-203.437 512.627)" fill="#523223"/></svg>