<svg xmlns="http://www.w3.org/2000/svg" width="294.734" height="33.262" viewBox="0 0 294.734 33.262"><g transform="translate(0)"><path d="M765.068-501.208l-42.909.646c-25.744.442-60.07.754-94.4,1.163-17.162.23-34.323.537-50.416.623-8.045-.072-15.819-.039-23.2-.191-7.374-.108-14.346-.256-20.782-.431-6.438-.147-12.336-.421-17.566-.589s-9.788-.359-13.542-.571c-7.51-.351-11.8-.649-11.8-.649v-.517s4.291-.3,11.8-.651c3.754-.212,8.312-.4,13.542-.571s11.127-.442,17.566-.587c6.435-.178,13.408-.326,20.782-.434,7.377-.153,15.151-.119,23.2-.191,16.093.085,33.254.393,50.416.625,34.326.406,68.653.718,94.4,1.163l42.909.646v.517" transform="translate(-479.02 518.109)" fill="#523223"/><path d="M609.577-497.911s12.81-5.876,12.585-9.163-13.18,2.928-13.059,9.233l.474-.07" transform="translate(-327.431 514.523)" fill="#523223"/><path d="M603.667-496.037s17.745-8.14,17.435-12.693-18.261,4.054-18.094,12.788l.659-.1" transform="translate(-335.218 512.641)" fill="#523223"/><path d="M598.169-494.96s17.851-10.08,16.193-15.108-19.609,5.62-16.9,15.354l.708-.245" transform="translate(-342.66 511.357)" fill="#523223"/><path d="M609.577-502.734s12.81,5.876,12.585,9.163-13.18-2.925-13.059-9.23l.474.067" transform="translate(-327.431 519.382)" fill="#523223"/><path d="M500.062-497.911s12.81-5.876,12.588-9.163-13.183,2.928-13.062,9.233l.474-.07" transform="translate(-467.357 514.523)" fill="#523223"/><path d="M500.062-502.734s12.81,5.876,12.588,9.163-13.183-2.925-13.062-9.23l.474.067" transform="translate(-467.357 519.382)" fill="#523223"/><path d="M603.667-502.718s17.745,8.139,17.435,12.692-18.261-4.054-18.094-12.785l.659.093" transform="translate(-335.218 519.373)" fill="#523223"/><path d="M598.169-502.539s17.851,10.083,16.193,15.111-19.609-5.62-16.9-15.354l.708.243" transform="translate(-342.66 519.401)" fill="#523223"/><path d="M485.438-496.122c4.085,6.584,12.318,15.576,22.391,13.78a8.121,8.121,0,0,0,4.783-2.5c2.475-2.946.231-5.878-2.7-7.713a32.068,32.068,0,0,0-7.838-3.512c1.032.307,4.428-1.3,5.43-1.742a13.2,13.2,0,0,0,4.692-3.217c1.734-1.972,2.843-5.4.531-7.411-3.459-3.013-11.656-1.129-15.121.964a42.057,42.057,0,0,0-12.169,11.346" transform="translate(-485.437 512.627)" fill="#523223"/></g></svg>